<svg id="Layer_1" data-name="Layer 1" xmlns="http://www.w3.org/2000/svg" viewBox="0 0 553.398 549.151">
  <defs>
    <style>
      .cls-1 {
        fill: #5abfb5;
      }

      .cls-1, .cls-11, .cls-14, .cls-18, .cls-19, .cls-2, .cls-20, .cls-22, .cls-24 {
        stroke: #596368;
      }

      .cls-1, .cls-10, .cls-14, .cls-18, .cls-19, .cls-2, .cls-22, .cls-23, .cls-7 {
        stroke-miterlimit: 10;
      }

      .cls-1, .cls-11, .cls-12, .cls-14, .cls-18, .cls-19, .cls-20, .cls-22, .cls-7 {
        stroke-width: 2px;
      }

      .cls-10, .cls-11, .cls-12, .cls-19, .cls-2, .cls-23, .cls-24, .cls-7 {
        fill: none;
      }

      .cls-3 {
        fill: #db8661;
      }

      .cls-4 {
        fill: #596368;
      }

      .cls-5 {
        fill: #f19b70;
      }

      .cls-22, .cls-6 {
        fill: #c0d8d7;
      }

      .cls-6 {
        opacity: 0.2;
      }

      .cls-10, .cls-7 {
        stroke: #b6c6ce;
      }

      .cls-8 {
        fill: #439e93;
      }

      .cls-14, .cls-20, .cls-9 {
        fill: #fff;
      }

      .cls-10, .cls-11, .cls-12, .cls-20, .cls-23, .cls-24 {
        stroke-linecap: round;
      }

      .cls-10 {
        stroke-width: 3px;
      }

      .cls-11, .cls-12, .cls-20, .cls-24 {
        stroke-linejoin: round;
      }

      .cls-12 {
        stroke: #cecece;
      }

      .cls-13 {
        fill: #366;
      }

      .cls-15 {
        fill: #e5eaea;
      }

      .cls-16 {
        fill: #576265;
      }

      .cls-17 {
        fill: #f4f8f8;
      }

      .cls-18 {
        fill: #b8ccca;
      }

      .cls-21 {
        fill: #98afac;
      }

      .cls-23 {
        stroke: #c0d8d7;
      }

      .cls-23, .cls-24 {
        stroke-width: 4px;
      }

      .cls-25 {
        fill: #ed8757;
      }
    </style>
  </defs>
  <title>5a7a24fb-2ab6-404b-9969-e5a6e1546ad6</title>
  <g>
    <g>
      <path class="cls-1" d="M178.435,229.456a102.982,102.982,0,0,1,15.581-55c17.059-26.868,123.812-23.51,136.766-10.076s24.874,44.9,25.631,78.963S192.814,301.246,178.435,229.456Z"/>
      <ellipse class="cls-2" cx="315.922" cy="228.346" rx="39.492" ry="39.458"/>
      <g>
        <path class="cls-3" d="M432.045,493.393c-3.879,0-8.781-1.832-12.491-4.666L193.765,316.207c-3.3-2.522-5.1-5.436-4.806-7.794a3.963,3.963,0,0,1,2.553-3.17l14.969-6.438a8.409,8.409,0,0,1,3.317-.6c3.88,0,8.782,1.832,12.491,4.666l225.789,172.52c3.3,2.522,5.1,5.436,4.806,7.794a3.963,3.963,0,0,1-2.553,3.17L435.362,492.8A8.409,8.409,0,0,1,432.045,493.393Z"/>
        <path class="cls-4" d="M209.8,299.207a21.324,21.324,0,0,1,11.884,4.46l225.789,172.52c4.769,3.644,5.873,7.786,2.464,9.252l-14.969,6.438a7.455,7.455,0,0,1-2.922.516,21.324,21.324,0,0,1-11.884-4.46L194.372,315.413c-4.769-3.644-5.873-7.786-2.465-9.252l14.969-6.438a7.455,7.455,0,0,1,2.922-.516m0-2a9.387,9.387,0,0,0-3.713.678l-14.969,6.438a4.925,4.925,0,0,0-3.15,3.967c-.341,2.756,1.551,5.931,5.191,8.712l225.789,172.52c3.872,2.959,9.014,4.87,13.1,4.87a9.386,9.386,0,0,0,3.712-.678l14.969-6.438a4.925,4.925,0,0,0,3.15-3.966c.341-2.756-1.551-5.931-5.19-8.712L222.9,302.078c-3.872-2.959-9.014-4.87-13.1-4.87Z"/>
      </g>
      <g>
        <path class="cls-5" d="M169.3,493.393a8.406,8.406,0,0,1-3.316-.6l-14.97-6.438a3.963,3.963,0,0,1-2.553-3.17c-.291-2.359,1.5-5.272,4.806-7.794l225.789-172.52c3.71-2.834,8.613-4.666,12.492-4.666a8.4,8.4,0,0,1,3.316.6l14.969,6.438a3.963,3.963,0,0,1,2.553,3.17c.292,2.358-1.5,5.272-4.8,7.794L181.8,488.727c-3.709,2.834-8.611,4.666-12.49,4.666Z"/>
        <path class="cls-4" d="M391.552,299.207a7.454,7.454,0,0,1,2.922.516l14.969,6.438c3.408,1.466,2.3,5.608-2.465,9.252L181.189,487.933a21.325,21.325,0,0,1-11.884,4.46,7.455,7.455,0,0,1-2.922-.516l-14.969-6.438c-3.408-1.466-2.3-5.608,2.465-9.252l225.789-172.52a21.325,21.325,0,0,1,11.884-4.46m0-2c-4.084,0-9.226,1.912-13.1,4.87L152.665,474.6c-3.64,2.781-5.531,5.956-5.191,8.712a4.925,4.925,0,0,0,3.15,3.967l14.969,6.438a9.386,9.386,0,0,0,3.712.678c4.084,0,9.226-1.912,13.1-4.87L408.193,317c3.64-2.781,5.531-5.956,5.191-8.712a4.925,4.925,0,0,0-3.15-3.967l-14.969-6.438a9.387,9.387,0,0,0-3.712-.678Z"/>
      </g>
      <path class="cls-1" d="M178.435,229.456s-3.224,38.875,26.138,53.089c48.936,23.691,142.07,20.6,151.841-39.2"/>
      <circle class="cls-6" cx="148.289" cy="141.824" r="98.268"/>
      <circle class="cls-6" cx="114.201" cy="261.493" r="98.268"/>
      <circle class="cls-6" cx="455.13" cy="450.833" r="98.268"/>
      <circle class="cls-7" cx="110.951" cy="121.481" r="3.25"/>
      <circle class="cls-7" cx="86.697" cy="254.993" r="3.25"/>
      <path class="cls-8" d="M180.424,229.456s-1.648,11.907.455,19.945,8.064,24.134,15.1,25.541,25.971-20.061,25.971-20.061l22.274,18.972s7.841,2.311,43.9,1.156S316.5,257.876,316.5,257.876l22.013,17.96s16.021-9.576,16.791-32.49L339.945,214.84l-47.037-1.49s-11.246,14.469-15.473,22.535S248.6,247.617,248.6,247.617l-5.457,5.733H196.154Z"/>
      <g>
        <circle class="cls-7" cx="145.22" cy="20.308" r="3.25"/>
        <circle class="cls-9" cx="144.97" cy="17.058" r="2"/>
      </g>
      <g>
        <circle class="cls-7" cx="4.75" cy="180.469" r="3.25"/>
        <circle class="cls-9" cx="4.5" cy="177.219" r="2"/>
      </g>
      <line class="cls-10" x1="29.325" y1="75.918" x2="33.56" y2="79.271"/>
      <line class="cls-10" x1="7.817" y1="380.74" x2="1.5" y2="387.151"/>
      <line class="cls-10" x1="149.435" y1="389.335" x2="157.304" y2="384.967"/>
      <g>
        <path class="cls-5" d="M144.244,276.4h311.4a8.8,8.8,0,0,1,8.8,8.8v13.4a8.8,8.8,0,0,1-8.8,8.8h-311.4a8.8,8.8,0,0,1-8.8-8.8v-13.4A8.8,8.8,0,0,1,144.244,276.4Z"/>
        <path class="cls-4" d="M455.641,277.405a7.8,7.8,0,0,1,7.8,7.8v13.4a7.8,7.8,0,0,1-7.8,7.8h-311.4a7.8,7.8,0,0,1-7.8-7.8v-13.4a7.8,7.8,0,0,1,7.8-7.8h311.4m0-2h-311.4a9.813,9.813,0,0,0-9.8,9.8v13.4a9.813,9.813,0,0,0,9.8,9.8h311.4a9.813,9.813,0,0,0,9.8-9.8v-13.4a9.813,9.813,0,0,0-9.8-9.8Z"/>
      </g>
      <g>
        <rect class="cls-9" x="231.189" y="289.846" width="3.24" height="35.167" transform="translate(-74.62 540.238) rotate(-90)"/>
        <line class="cls-11" x1="212.632" y1="307.429" x2="217.926" y2="307.429"/>
        <line class="cls-11" x1="247.817" y1="307.429" x2="255.731" y2="307.429"/>
        <line class="cls-11" x1="224.044" y1="307.429" x2="232.226" y2="307.429"/>
        <line class="cls-12" x1="237.226" y1="307.429" x2="241.226" y2="307.429"/>
      </g>
      <circle class="cls-13" cx="217.786" cy="258.483" r="31.718"/>
      <ellipse class="cls-13" cx="316.383" cy="223.18" rx="31.718" ry="34.697"/>
      <path class="cls-14" d="M239.653,418.65h-26.59c-21.91-67.56-18.62-165.3-18.62-165.3a23.91,23.91,0,0,1,47.82,0C254.573,356.26,239.653,418.65,239.653,418.65Z"/>
      <path class="cls-15" d="M244.576,363.994s-6.964,36.216-11.68,46.172,6.508,3.778,6.508,3.778S245.844,372.206,244.576,363.994Z"/>
      <path class="cls-14" d="M322.122,378.65h-26.59s-14.93-62.39-2.62-165.3h.1a23.91,23.91,0,0,1,47.82,0c0,.5-.02.99-.05,1.48v.01C341.083,227.35,342.443,315.98,322.122,378.65Z"/>
      <path class="cls-16" d="M205.776,434.558s-7.4-28.133,14.5-30.328,28.946,11.12,26.432,30.328C246.7,434.558,223.972,439.613,205.776,434.558Z"/>
      <path class="cls-17" d="M206.2,442.07l-.421-7.511s21.076,4.765,40.929,0v7.511S223.93,446.5,206.2,442.07Z"/>
      <path class="cls-15" d="M334.073,324.055S318.88,365.625,312.7,376.79s10.269-7.413,10.269-7.413"/>
      <path class="cls-16" d="M289.853,394.558s-7.4-28.133,14.5-30.328,28.946,11.12,26.432,30.328C330.782,394.558,308.05,399.613,289.853,394.558Z"/>
      <path class="cls-17" d="M290.274,402.07l-.421-7.511s21.076,4.765,40.929,0v7.511S308.007,406.5,290.274,402.07Z"/>
      <path class="cls-18" d="M209.491,87.7s16.572,37.956-15.475,86.756,139.057-4.788,139.057-4.788-15.151-26.387-12.152-84.305S209.491,87.7,209.491,87.7Z"/>
      <g>
        <path class="cls-14" d="M333.073,169.671a42.878,42.878,0,0,1-19.206,19.155,41.553,41.553,0,0,1-8.144,3.031,70.634,70.634,0,0,0-19.069,12.516c-.725.864-1.465,1.7-2.234,2.51-.683.925-1.393,1.83-2.128,2.7a54.956,54.956,0,0,1-4.926,5.166c0,.005-.005.011-.01.008-.246.226-.493.452-.741.671-15.925,14.144-39.062,18.094-58.721,8.163-25.94-13.105-36.012-45.41-22.5-72.153A54.56,54.56,0,0,1,240,121.36a51.241,51.241,0,0,1,11.017.393,68.654,68.654,0,0,0,23.322-5.279,41.925,41.925,0,0,1,9.319-4.739,40.2,40.2,0,0,1,31.919,1.829C335.748,123.753,343.58,148.874,333.073,169.671Z"/>
        <circle class="cls-19" cx="274.242" cy="158.855" r="16.361" transform="translate(13.882 339.565) rotate(-64.845)"/>
        <g>
          <path class="cls-5" d="M294.969,159.12a5.615,5.615,0,0,1-5.266-3.7l-.566-1.572a5.6,5.6,0,0,1,3.364-7.165L444.543,91.81a5.593,5.593,0,0,1,7.166,3.365l.567,1.571a5.606,5.606,0,0,1-3.365,7.166L296.869,158.786A5.58,5.58,0,0,1,294.969,159.12Z"/>
          <path class="cls-4" d="M446.444,92.476a4.6,4.6,0,0,1,4.325,3.038l.567,1.571a4.6,4.6,0,0,1-2.764,5.886L296.53,157.845a4.593,4.593,0,0,1-5.886-2.764l-.567-1.571a4.6,4.6,0,0,1,2.764-5.886L444.883,92.75a4.59,4.59,0,0,1,1.561-.274m0-2a6.579,6.579,0,0,0-2.24.393L292.162,145.743a6.605,6.605,0,0,0-3.966,8.446l.567,1.571a6.593,6.593,0,0,0,8.446,3.966l152.042-54.874a6.605,6.605,0,0,0,3.966-8.446l-.567-1.571a6.616,6.616,0,0,0-6.206-4.359Z"/>
        </g>
        <g>
          <path class="cls-5" d="M423.181,122a9.626,9.626,0,0,1-9.029-6.343l-3.858-10.691a9.6,9.6,0,0,1,5.771-12.288l27.788-10.029a9.592,9.592,0,0,1,12.288,5.771L460,99.113a9.6,9.6,0,0,1-5.77,12.287L426.44,121.429A9.572,9.572,0,0,1,423.181,122Z"/>
          <path class="cls-4" d="M447.11,83.079a8.6,8.6,0,0,1,8.089,5.682l3.859,10.691a8.6,8.6,0,0,1-5.169,11.008L426.1,120.489a8.591,8.591,0,0,1-11.008-5.169l-3.859-10.691A8.6,8.6,0,0,1,416.4,93.621l27.789-10.029a8.588,8.588,0,0,1,2.919-.513m0-2h0a10.573,10.573,0,0,0-3.6.632L415.724,91.74a10.611,10.611,0,0,0-6.371,13.568L413.211,116a10.591,10.591,0,0,0,13.568,6.371l27.789-10.029a10.611,10.611,0,0,0,6.371-13.568l-3.859-10.691a10.628,10.628,0,0,0-9.969-7Z"/>
        </g>
      </g>
      <path class="cls-15" d="M312.169,188.483s-23.9-9.869-33.88,23.649C278.29,212.132,290.958,194.073,312.169,188.483Z"/>
      <path class="cls-20" d="M293.652,190.93c-1.725,3.962-5.548,6.122-9.638,6.944a27.349,27.349,0,0,1-6.383.456c-1.8-.065-3.267.115-5.018-.577-1.452-.574-2.805-1.377-4.26-1.946-3.91-1.528-8.011-1.029-12.077-1.379q-4.438-.381-8.863-.9-8.165-.959-16.26-2.422a214.247,214.247,0,0,1-26.883-6.639,164.281,164.281,0,0,1-19.793-7.707,120.163,120.163,0,0,1-13.215-7.183,74.307,74.307,0,0,1-7.148-5.068c-.577-.469-1.159-.943-1.694-1.461l-.06-.42c-11.02-3.24-8.13-20.14-8.13-20.14,7.06-102,39.21-111.19,39.21-111.19s30.14-15.45,37.39-30.3l1.98,11.99s-8.96,28.3-12.54,44.55-30.34,84.95-30.34,84.95c5.323,5.878,12.622,10.092,19.446,13.963,8.921,5.061,18.187,9.511,27.533,13.725,5.863,2.643,11.784,5.153,17.694,7.686a1.074,1.074,0,0,0,.7.125c.53-.155.9-.995,1.435-1.289a13.781,13.781,0,0,1,2.273-.793c1.324-.445,2.668-.83,3.98-1.311,2.216-.812,4.4-1.757,6.531-2.766,3.418-1.615,7.627-3.531,9.913-6.691,4.42-6.05,5.3,4.71-2.95,9.28s12.97,3.24,13.41.44S297.683,181.64,293.652,190.93Z"/>
      <path class="cls-15" d="M227.138,8.033s-54.964,78.733-40.345,139.122l41.54-108.373Z"/>
      <path class="cls-21" d="M208.281,92.831s7.824,3.622,5.468,22.879c0,0,56.916-22.451,106.937-6.431,0,0-3.341-5.894.236-23.913S208.281,92.831,208.281,92.831Z"/>
      <path class="cls-22" d="M228.613,4.222c1.282.631-6.353,23.927-6.889,25.6-5.244,16.406-30.02,46.753-13.443,63.007,18.511,18.15,70.131,5.964,92.764,2.374,23.822-3.779,33.483-14.934,18.709-36.024-7.15-10.207-40.231-41.154-20.8-53.008C298.947,6.174,269.308,24.255,228.613,4.222Z"/>
      <path class="cls-19" d="M173.1,115.38s-.09.11-.24.33"/>
      <path class="cls-14" d="M264.163,194.44l-.6.53c-.43-.03-.87-.05-1.3-.09A4.2,4.2,0,0,1,264.163,194.44Z"/>
      <path class="cls-23" d="M235.895,102.332s48.668-2.2,59.75-7.218"/>
      <g>
        <rect class="cls-9" x="377.632" y="111.482" width="3.24" height="35.167" transform="translate(387.682 529.588) rotate(-110)"/>
        <line class="cls-11" x1="360.291" y1="135.966" x2="365.266" y2="134.155"/>
        <line class="cls-11" x1="393.355" y1="123.932" x2="400.791" y2="121.226"/>
        <line class="cls-11" x1="371.015" y1="132.063" x2="378.703" y2="129.265"/>
        <line class="cls-12" x1="383.402" y1="127.555" x2="387.161" y2="126.187"/>
      </g>
      <path class="cls-15" d="M242.226,263.943s-7.777,19.732-6.93,33.233,10.28,32.73,10.28,38.624"/>
      <path class="cls-15" d="M338.319,277.405c-1.037-4.039-7.548-22.361-6.979-32.34s8.038-21.88,8.038-21.88"/>
      <g>
        <rect class="cls-9" x="161.527" y="289.822" width="3.24" height="35.167" transform="translate(-144.258 470.552) rotate(-90)"/>
        <line class="cls-11" x1="142.97" y1="307.405" x2="148.264" y2="307.405"/>
        <line class="cls-11" x1="178.155" y1="307.405" x2="186.069" y2="307.405"/>
        <line class="cls-11" x1="154.382" y1="307.405" x2="162.564" y2="307.405"/>
        <line class="cls-12" x1="167.564" y1="307.405" x2="171.564" y2="307.405"/>
      </g>
      <path class="cls-15" d="M282.292,207.585s-29.177,37.009-66.974,13.4c0,0,26.18.076,50.079-6.854A94.71,94.71,0,0,0,282.292,207.585Z"/>
      <path class="cls-15" d="M282.654,201.418s-3.686,9.229-19.088,13.224l11.151-.739,7.575-6.318,3.046-5.226Z"/>
      <path class="cls-15" d="M226.587,125.3s31.559,18.989,59.192-13.2a27.128,27.128,0,0,0-5.532,2.151c-3.222,1.483-6.225,3.389-10.44,5.014-1.833.707-3.5.927-6.423,1.7-7.944,2.1-15.739,1.489-23.35,1.231C233.413,121.974,231.14,123.876,226.587,125.3Z"/>
      <g>
        <circle class="cls-7" cx="81.287" cy="412.526" r="3.25"/>
        <circle class="cls-9" cx="81.037" cy="409.276" r="2"/>
      </g>
    </g>
    <path class="cls-24" d="M191.292,194.1a84.977,84.977,0,0,0-31.773,19.572c-6.552,6.409-12.369,15.682-9.182,24.276,1.8,4.864,6.1,8.272,9.515,12.173,13.97,15.941,13.093,40.059,7.584,60.526-9.5,35.3-17.524,67.814-16.331,104.906.274,8.507.943,17.15,4,25.093,7.151,18.573,26.033,30.927,41.813,41.662,21.075,14.338,43.632,22.081,68.735,26.062,16.41,2.6,32.992,4.075,49.337,7.1,14.407,2.668,28.225,9.06,42.861,10.47,13.108,1.263,26.909-1.77,40.322-1.252A195.5,195.5,0,0,1,482,547.151"/>
    <g>
      <rect class="cls-25" x="176.82" y="191.418" width="15" height="9" rx="1.83" ry="1.83" transform="translate(-72.084 114.586) rotate(-29.148)"/>
      <path class="cls-5" d="M192.292,194.877a1.823,1.823,0,0,0-.121-.28l-2.6-4.664a1.83,1.83,0,0,0-2.489-.707l-9.585,5.345C179.386,196.689,183.83,199.55,192.292,194.877Z"/>
    </g>
  </g>
</svg>
