<svg id="Layer_1" data-name="Layer 1" xmlns="http://www.w3.org/2000/svg" viewBox="0 0 1058 945">
  <defs>
    <style>
      .cls-1, .cls-8 {
        fill: #ff6652;
      }

      .cls-1 {
        opacity: 0.81;
      }

      .cls-2, .cls-3, .cls-9 {
        fill: #fff;
      }

      .cls-2, .cls-4 {
        stroke: #3a4945;
      }

      .cls-2, .cls-4, .cls-9 {
        stroke-miterlimit: 10;
        stroke-width: 3px;
      }

      .cls-4 {
        fill: none;
      }

      .cls-10, .cls-5, .cls-6 {
        fill: #3a4945;
      }

      .cls-5 {
        opacity: 0.31;
      }

      .cls-7 {
        fill: #485451;
      }

      .cls-8 {
        opacity: 0.48;
      }

      .cls-9 {
        stroke: #fff;
      }

      .cls-10 {
        opacity: 0.15;
      }
    </style>
  </defs>
  <title>eaf70cb8-74e1-4916-bf6d-be05739cf9f7</title>
  <path class="cls-1" d="M1058,503c0,244.11-236.841,442-529,442S0,747.11,0,503C0,396.2,68,300,180,253,307.316,199.573,255.661,87,420,87c73.04,0,251.622-13.632,314.911,8.735C849.09,136.086,768.444,316.48,825,408,862.489,468.666,1058,430.017,1058,503Z"/>
  <path class="cls-2" d="M969.78,588.49c-3.83,5.94-34.12,36.07-34.12,36.07s-7.94,5.82-12.7,2.76-22.1-7.48-22.1-7.48c-3.64-.15-7.45-.09-11.29.1-21.51,36.12-68.67,115.92-94.53,164.83-28.43,53.75-100.74-19.43-121.92-42.74l-.2-1.65a1.4,1.4,0,0,1,.09-.18c.84-1.64,6.53-12.77,13.55-27.01,10.19-20.62,23.17-47.78,28.23-62.08,8.97,11.11,39.98,49.99,52.89,71.75,0,0,65.51-91.48,91.57-115.39a.732.732,0,0,1,.02-.08c20.82-21.92,38.24-12.4,50.9-5.95s22.56.22,22.56.22c9.77-2.13,24.34-10.41,24.34-10.41C965.78,584.24,969.78,588.49,969.78,588.49Z"/>
  <polygon class="cls-3" points="877.435 425.62 850.963 526.543 855.926 533.161 927.07 553.015 925.415 557.979 933.687 566.251 941.96 556.324 958.505 561.288 961.814 574.524 973.395 569.56 971.741 559.633 981.668 561.288 988.286 548.052 1018.066 428.929 1008.139 409.075 887.362 375.985 877.435 425.62"/>
  <path class="cls-2" d="M394,757.35a328.2,328.2,0,0,1-28.41,38.77l-.05.07-.03.02C341.43,823.94,310,846.75,286,817c-38.06-47.16-108.29-125.81-131.4-151.56-1.24.28-2.49.56-3.74.87,0,0-26.11,6.59-30.17,10.52s-13-.2-13-.2-35.63-23.57-40.55-28.65c0,0,3.08-4.95,13,.21,0,0,15.92,5.25,25.91,5.41,0,0,10.94,4.17,22.08-4.65s26.35-21.59,51.07-4.2l12.74,12.38.02.01C224.14,678.41,301,751,301,751c7.71-21.59,27.31-59.83,35.88-76.2,5.11,11,24.54,38.37,39.74,59.14,7.56,10.33,14.08,19.03,17.28,23.27A1.207,1.207,0,0,0,394,757.35Z"/>
  <path class="cls-4" d="M394,757.35a1.207,1.207,0,0,1-.1-.14S394.5,757.5,394,757.35Z"/>
  <path class="cls-2" d="M570.42,407.91C570.64,414.76,567,421,567,421a15.7,15.7,0,0,1-11,5c-2,0-2,1-2,1s-3,50-1,81c-.01.02-.03.03-.04.05-19.08,22.11-40.43,18.12-54.02,11.78-.06-.03-.12-.06-.19-.09-.24-.11-.47-.22-.7-.34a77.8,77.8,0,0,1-13.04-8.42c.31-.9,10.26-29.65,11.12-37.25A51.618,51.618,0,0,1,486,475s-12,0-16-24c-3.45-20.71,1.29-71.21,10.36-96.87,6.72,2.42,13.8,7.03,18.04,7.93,12.97,2.77,26.47.66,38.6-4.47a78.873,78.873,0,0,0,8.83-4.39l.99-.6c-1.19,4.04-7.91,27.89-8.82,53.4-.02,1.58,2.6,3.28,5.21,4.46l.06.03a9.462,9.462,0,0,0,4.61,1.5.486.486,0,0,0,.12.01s0-.5.04-1.32c.01-.01.01-.02.01-.04.53-3.94,1.61-8.53,4.04-11.7l.01-.02c1.76-1.32,3.91-3.01,6.27-3.71h.01a11.083,11.083,0,0,1,1.18-.09,9.177,9.177,0,0,1,6.35,2.29A16.886,16.886,0,0,1,568,400a14.433,14.433,0,0,1,1.29,2.41c.09.24.18.47.26.71a2.53,2.53,0,0,1,.12.36c.11.33.2.65.28.98.04.19.09.38.13.57.11.57.2,1.15.26,1.73A11.308,11.308,0,0,1,570.42,407.91Z"/>
  <path class="cls-4" d="M552.96,508.05c-.95,1.29-21.1,27.7-54.02,11.78C512.53,526.17,533.88,530.16,552.96,508.05Z"/>
  <path class="cls-4" d="M547.88,411.99a9.462,9.462,0,0,1-4.61-1.5A17.974,17.974,0,0,0,547.88,411.99Z"/>
  <path class="cls-4" d="M548,412a.486.486,0,0,1-.12-.01c.05-.43.1-.86.16-1.31C548,411.5,548,412,548,412Z"/>
  <path class="cls-4" d="M558.37,395.21c-2.36.7-4.51,2.39-6.27,3.71A9.18,9.18,0,0,1,558.37,395.21Z"/>
  <path class="cls-4" d="M569.29,402.41A14.433,14.433,0,0,0,568,400a16.886,16.886,0,0,0-2.09-2.59A12.573,12.573,0,0,1,569.29,402.41Z"/>
  <path class="cls-2" d="M714.28,654.71c-.16.45-.32.91-.49,1.4-5.06,14.3-18.04,41.46-28.23,62.08-6.77,13.74-12.31,24.58-13.44,26.8-.04.08-.08.15-.11.21l-.13-.12.04.3a.126.126,0,0,1-.02.03l-5.44-5.57-6.59-6.75c-.14,1.12-.27,2.25-.4,3.38-3.26,26.9-7.62,56.5-13.47,87.53,0,0-8,71,2,101s-225.5,11.5-225.5,11.5,12.66-81.31-13.84-192.58c-.03-.15-.07-.31-.11-.46l-11.99,16.96-.07-.1s-.04-.06-.13-.17c-.02-.03-.04-.06-.07-.1-.07-.09-.15-.2-.25-.33q-.075-.105-.18-.24c-.07-.1-.15-.2-.25-.32a.469.469,0,0,0-.09-.12c-.14-.2-.31-.42-.52-.69a.759.759,0,0,0-.1-.14c-.09-.13-.19-.26-.3-.4s-.22-.3-.34-.45c-2.72-3.64-7.54-10.09-12.09-16.24-1.06-1.43-2.1-2.84-3.09-4.19-.25-.34-.5-.68-.74-1.01s-.48-.66-.72-.98c-15.2-20.77-34.63-48.14-39.74-59.14-1.25-2.71-1.64-4.42-.88-4.8,6-3,5-4,5-4,8.87-53.19,34.62-79.75,44.28-88.06.01-.01.03-.02.04-.04,21.144-21.348,48.5-37.652,73.96-53.262,6.046-3.707,12.133-7.355,18.306-10.849,1.821-1.031,4.334-3.1,6.4-3.513,4.68-.94,8.34,4.865,11.7,7.09a33.362,33.362,0,0,0,17.014,5.084c13.742.541,30.231-3.427,38.846-14.955-1.388,1.858,73.785,42.877,80.456,45.5a55.247,55.247,0,0,1,14.5,8.37c5.74,2.89,41.81,22.97,62.27,80.92,0,0-.81,1.16,5.61,3.08C716.48,646.7,715.93,649.8,714.28,654.71Z"/>
  <path class="cls-5" d="M408,744s-16-52-22-66L366,796s23.5-30.5,28.5-38.5l1,2Z"/>
  <path class="cls-5" d="M660.769,733.963s5.546-54.122,8.7-69.024l42.64,111.83s-29-25.328-35.464-32.2l-.591,2.157Z"/>
  <path class="cls-6" d="M570.42,407.91a11.308,11.308,0,0,0-.08-1.15,13.164,13.164,0,0,0-.26-1.73,3.9,3.9,0,0,0-.13-.57,7.65,7.65,0,0,0-.28-.98,2.53,2.53,0,0,0-.12-.36c-.08-.24-.17-.47-.26-.71A14.433,14.433,0,0,0,568,400a16.886,16.886,0,0,0-2.09-2.59c-2.61-2.61-5.18-2.9-7.53-2.2h-.01c-2.36.7-4.51,2.39-6.27,3.71l-.01.02L552,399c-3.09,2.32-3.79,8.8-3.95,11.64,0,.02,0,.03-.01.04C548,411.5,548,412,548,412a.486.486,0,0,1-.12-.01,9.462,9.462,0,0,1-4.61-1.5l-.06-.03A23.165,23.165,0,0,1,538,406c.91-25.51,7.63-49.36,8.82-53.4.14-.08.27-.16.4-.24,4.69-2.94,8.88-6.86,11.08-11.9a15.829,15.829,0,0,0,1.37-6.28C566.93,335.34,594.4,343.98,570.42,407.91Z"/>
  <path class="cls-7" d="M559.67,334.18a15.829,15.829,0,0,1-1.37,6.28c-2.2,5.04-6.39,8.96-11.08,11.9-.13.08-.26.16-.4.24l-.99.6a78.873,78.873,0,0,1-8.83,4.39c-12.13,5.13-25.63,7.24-38.6,4.47-4.24-.9-11.32-5.51-18.04-7.93C474.02,351.84,468,351.49,465,358c0,0-4-27,13-40,16.83-12.87,44.18-17.9,63.37-7.82C550.03,314.73,559.82,323.93,559.67,334.18Z"/>
  <path class="cls-4" d="M498.94,519.83"/>
  <path class="cls-4" d="M395.49,759.32c-.34-.45-.85-1.11-1.49-1.97a1.207,1.207,0,0,1-.1-.14Z"/>
  <g id="IjAuxy.tif">
    <g>
      <path class="cls-2" d="M772.268,324.532c-20.72-16.038-34.566-36.831-45.82-59.389a217.913,217.913,0,0,1-12.459-31.667c-24.279,27.459-51.565,49.972-88.523,59.376l5.255-24.351a82.983,82.983,0,0,0,17.393-5.972c28.8-13.1,50.42-33.932,69.045-57.981,1.157-1.494,1.753-3.507,4.425-4.493a235.55,235.55,0,0,0,10.689,34.2c10.142,24.985,23.3,48.142,45.249,65.925Z"/>
      <path class="cls-2" d="M640.206,224.553c6.047.025,11.077-2.818,16.141-5.245,26.081-12.5,45.106-32.371,62.011-54.348,4.941-6.423,9.4-13.185,14.395-20.23,1.536,1.915,1.391,3.888,1.739,5.711,4.876,25.531,12.31,50.317,25.287,73.465A115.937,115.937,0,0,0,781.6,252.4c1.6,1.489,2.861,3.528,5.406,3.837L781.5,281.745c-32.09-27.756-45.893-64.317-55.76-103.563-23.992,32.265-50.707,59.9-91.042,71.882Z"/>
    </g>
  </g>
  <g>
    <path class="cls-6" d="M946.37,452.837a3,3,0,0,0,2.16,3.653l29.2,7.5a3,3,0,1,0,1.493-5.813l-29.2-7.5A2.976,2.976,0,0,0,946.37,452.837Z"/>
    <path class="cls-6" d="M959.383,474.841a3,3,0,0,0,2.16,3.653l17.508,4.5a3,3,0,0,0,1.493-5.813l-17.474-4.486A3.029,3.029,0,0,0,959.383,474.841Z"/>
    <path class="cls-6" d="M964.721,441.984a3,3,0,0,0,1.493-5.813l-5.848-1.5a3,3,0,0,0-1.493,5.813Z"/>
    <path class="cls-6" d="M922.206,462.2a3,3,0,0,0-1.493,5.813l29.2,7.5a3,3,0,1,0,1.493-5.813Z"/>
    <path class="cls-6" d="M915.791,547.666l-55.466-14.241a9.056,9.056,0,0,1-6.507-11L888.3,388.136a3,3,0,0,0-2.16-3.653,15.09,15.09,0,0,0-18.351,10.853,3,3,0,0,0,5.813,1.493,9.1,9.1,0,0,1,7.972-6.774l-33.6,130.868a15.09,15.09,0,0,0,10.853,18.351l55.466,14.241a3,3,0,0,0,3.653-2.16A2.963,2.963,0,0,0,915.791,547.666Z"/>
    <path class="cls-6" d="M896.006,443,936.87,453.5a3,3,0,0,0,1.493-5.813L897.5,437.191A3,3,0,1,0,896.006,443Z"/>
    <path class="cls-6" d="M900.5,425.5l11.661,2.994a3,3,0,0,0,1.493-5.813l-11.661-2.994A3,3,0,0,0,900.5,425.5Z"/>
    <path class="cls-6" d="M948.714,431.642l-23.356-6a3,3,0,0,0-1.493,5.813l23.356,6a3,3,0,0,0,1.493-5.813Z"/>
    <path class="cls-6" d="M1000.052,401.338,889.121,372.857a27.122,27.122,0,0,0-32.979,19.417l-.009.034-.009.034-.009.034-.009.034a27.183,27.183,0,0,0,7.319,26.009,3.022,3.022,0,0,0,4.24-4.306,21.035,21.035,0,0,1,19.962-35.444L998.56,407.151a21.147,21.147,0,0,1,15.2,25.7L982.283,555.443a8.6,8.6,0,0,1-2.294,3.967,3.031,3.031,0,0,0,0,4.264,3.091,3.091,0,0,0,1.365.788,3.047,3.047,0,0,0,2.9-.787,14.825,14.825,0,0,0,3.845-6.74l31.475-122.592A27.144,27.144,0,0,0,1000.052,401.338Z"/>
    <path class="cls-6" d="M974.346,537.8a18.076,18.076,0,1,0-22,13.013A18.111,18.111,0,0,0,974.346,537.8Zm-20.5,7.166A12.039,12.039,0,1,1,968.5,536.3,12.054,12.054,0,0,1,953.844,544.97Z"/>
    <path class="cls-6" d="M946.321,552.406a3.011,3.011,0,0,0-4.273.033l-9.093,9.293-.605-1.759a2.982,2.982,0,0,0-1.923-1.879l-1.786-.568,9.239-9.438a3.022,3.022,0,1,0-4.306-4.24l-12.644,12.9a3.028,3.028,0,0,0,1.236,4.983l4.982,1.607,1.715,4.96a3.023,3.023,0,0,0,2.094,1.923l.1.026a2.974,2.974,0,0,0,2.805-.847l12.5-12.757A2.962,2.962,0,0,0,946.321,552.406Z"/>
    <path class="cls-6" d="M972.18,553.906a3.022,3.022,0,1,0-5.816,1.641l3.517,12.567-1.839-.363a3.081,3.081,0,0,0-2.591.72l-1.378,1.25L960.6,557.275a3.022,3.022,0,0,0-5.816,1.641l4.789,17.122a3.021,3.021,0,0,0,2.05,2.094l.1.026a2.977,2.977,0,0,0,2.762-.676l3.893-3.52,5.14.992a3.017,3.017,0,0,0,2.789-.924,3.08,3.08,0,0,0,.695-2.847Z"/>
    <path class="cls-6" d="M891.511,460.513l17.508,4.5a3,3,0,0,0,1.493-5.813L893,454.7a3,3,0,1,0-1.493,5.813Z"/>
    <path class="cls-6" d="M887.007,478.055l35.017,8.99a3,3,0,0,0,1.493-5.813l-35.017-8.99a3,3,0,0,0-1.493,5.813Z"/>
    <path class="cls-6" d="M966.583,495.352a3,3,0,0,0-2.16-3.653l-29.2-7.5a3,3,0,0,0-1.493,5.813l29.2,7.5A2.976,2.976,0,0,0,966.583,495.352Z"/>
  </g>
  <circle class="cls-8" cx="117" cy="213" r="17"/>
  <circle class="cls-6" cx="270" cy="396" r="14"/>
  <circle class="cls-6" cx="889.5" cy="245.5" r="20.5"/>
  <circle class="cls-6" cx="660.5" cy="12.5" r="12.5"/>
  <circle class="cls-9" cx="469" cy="145" r="17"/>
  <circle class="cls-6" cx="723" cy="376" r="7"/>
  <circle class="cls-3" cx="815" cy="480" r="10"/>
  <path class="cls-10" d="M395.56,759.42l-.07-.1A.864.864,0,0,0,395.56,759.42Z"/>
  <path class="cls-5" d="M528.55,460.2,521,470.27l-18,22-16.99,17.98c.31-.9,10.26-29.65,11.12-37.25h.01c.92-.21,1.88-.45,2.86-.73,7-2,24-10,24-10l3.68-3.34A.812.812,0,0,1,528.55,460.2Z"/>
  <rect class="cls-3" x="263.076" y="208.743" width="146.872" height="94.588" rx="7.472" ry="7.472" transform="translate(-53.117 91.766) rotate(-14.405)"/>
  <g>
    <path class="cls-6" d="M388.077,189.817,350.559,200.06l-1.788-6.548a12.512,12.512,0,0,0-15.348-8.765l-30.516,8.332a12.512,12.512,0,0,0-8.765,15.348l1.788,6.548-37.517,10.243a10.905,10.905,0,0,0-7.639,13.377l20.161,73.839a10.905,10.905,0,0,0,13.377,7.639l129.663-35.4a10.905,10.905,0,0,0,7.639-13.377l-20.161-73.839A10.9,10.9,0,0,0,388.077,189.817Zm-87.931,16.971a6.282,6.282,0,0,1,4.4-7.706l30.516-8.332a6.282,6.282,0,0,1,7.706,4.4l1.788,6.548-42.623,11.637Zm115.466,66.146a4.675,4.675,0,0,1-3.275,5.735l-129.664,35.4a4.675,4.675,0,0,1-5.735-3.275l-15.814-57.921,52.188,9.77a12.464,12.464,0,0,0,14.592,6.823l22.812-6.228a12.464,12.464,0,0,0,9.1-13.292l24.973-21.821a3.111,3.111,0,1,0-4.094-4.686l-23.287,20.348a12.463,12.463,0,0,0-13.248-4.562l-22.812,6.228a12.463,12.463,0,0,0-9.091,10.661L259.3,246.2l-2.525-9.247a4.675,4.675,0,0,1,3.275-5.735l129.663-35.4a4.675,4.675,0,0,1,5.735,3.275l20.161,73.839ZM318.622,259.1a6.23,6.23,0,0,1,4.364-7.642L345.8,245.23a6.223,6.223,0,0,1,3.278,12.006l-22.812,6.228A6.23,6.23,0,0,1,318.622,259.1Z"/>
    <path class="cls-6" d="M395.275,214.832a3.111,3.111,0,0,0-4.39-.3l-1.6,1.4a3.111,3.111,0,1,0,4.094,4.686l1.6-1.4A3.112,3.112,0,0,0,395.275,214.832Z"/>
  </g>
  <polygon class="cls-3" points="72.944 481.621 105.584 504.327 109.841 538.387 126.871 546.902 158.093 549.74 192.152 546.902 209.182 535.548 209.182 502.908 244.661 478.782 158.093 422.016 72.944 481.621"/>
  <g id="UzrL2i.tif">
    <g>
      <path class="cls-6" d="M249.2,478.4c-1.87,4.97-6.328,7.288-10.459,9.739-3.188,1.892-4.154,4.157-4,7.8.455,11.094.7,22.206.635,33.308-.034,5.583.7,10.67,3.973,15.377a57.137,57.137,0,0,1,4.733,8.966c2.626,5.742.4,9.761-5.8,10.277a77.884,77.884,0,0,1-11.844.139c-5.251-.367-7.551-4.117-5.942-9.106a7.922,7.922,0,0,1,.937-2.048c5.633-8.206,7.359-18.19,7.56-27.965.1-4.931-.16-9.861-.47-14.781-.153-2.416-.323-4.832-.467-7.249-.054-.91-.588-6.909-.014-7.3-5.229,3.531-9.656,6.565-14.135,9.522-1.779,1.174-1.454,2.895-1.427,4.555.1,6.4-.127,12.831.445,19.189.714,7.94-3.028,12.805-9.578,16.279-8.1,4.3-16.871,6.349-25.845,7.544-17.284,2.3-34.52,2.3-51.6-1.783a50.12,50.12,0,0,1-13.64-5.224c-5.3-3.073-8.247-7.331-8.03-13.773.208-6.2-.444-12.431-.18-18.626.169-3.973-1.446-6.07-4.682-7.991-8.893-5.281-17.556-10.949-26.4-16.316-2.97-1.8-5.543-3.82-6.937-7.082L66,480.717c1.3-2.259,2.431-4.5,4.786-6.083q41.2-27.664,82.278-55.506l6.784-.128q41.916,26.058,83.863,52.067c2.549,1.575,3.99,3.827,5.46,6.2Zm-43.51,31.979c-.121-6.4-.489-12.8-.276-19.185.147-4.4-1.7-7.07-5.406-8.95a49.931,49.931,0,0,0-10.547-3.894c-16.494-4.128-33.16-4.025-49.869-1.814a71.393,71.393,0,0,0-23.184,6.682c-4.216,2.137-6.412,5.016-6.165,10.212.6,12.587.763,25.2.737,37.806-.009,4.388,1.7,7.072,5.407,8.948a50.235,50.235,0,0,0,10.548,3.894c16.494,4.118,33.156,4.036,49.867,1.806,8.035-1.073,15.882-2.962,23.179-6.691,4.178-2.135,6.669-4.941,6.171-10.2C205.562,522.823,205.8,516.582,205.685,510.374ZM241.607,478.1c-.925-.716-1.344-1.1-1.819-1.4q-39.282-24.5-78.542-49.038c-3.63-2.281-6.47-1.736-9.793.537-17.861,12.223-35.821,24.3-53.741,36.435C89.782,470,81.865,475.393,73.4,481.146l30.056,18.734c.077-2.1.153-3.17.151-4.241-.03-12.016,2.209-16.181,13.74-20.268a124.179,124.179,0,0,1,80.367-1.494c11.642,3.648,14.01,7.715,14.453,19.772.039,1.06.158,2.117.316,4.161Zm-9.323,68.175c-1.987,3.9-3.957,6.843-4.746,10.94,3.343.019,7.464,1.416,9.225-.718,1.835-2.225-1.864-5.067-2.85-7.754A16.318,16.318,0,0,0,232.283,546.27Z"/>
      <path class="cls-6" d="M158.216,514.631c11.9-.079,23.714.6,35.234,3.914,1.264.364,2.515.779,3.75,1.232,1.593.585,3.557,1.133,2.637,3.425-.726,1.809-2.332,1.385-3.87.873-16.236-5.4-32.922-5.591-49.731-4.183a92.911,92.911,0,0,0-24.748,5.365c-1.61.6-3.456,1.629-4.431-.447-1.237-2.633,1.292-3.138,2.922-3.763C132.284,516.33,145.179,515.043,158.216,514.631Z"/>
    </g>
  </g>
  <polygon class="cls-3" points="232.598 545.483 224.793 558.255 240.403 558.255 232.598 545.483"/>
</svg>
