<svg id="Layer_1" data-name="Layer 1" xmlns="http://www.w3.org/2000/svg" viewBox="0 0 531 293">
  <defs>
    <style>
      .cls-1 {
        fill: #4b58ff;
      }

      .cls-2 {
        fill: #fff;
      }

      .cls-3 {
        fill: #e5eaea;
      }

      .cls-4 {
        fill: #39393a;
      }
    </style>
  </defs>
  <title>3fc6a952-f9aa-4858-9ec0-2bb9669d2322</title>
  <rect class="cls-1" x="61" width="470" height="147" rx="25.892" ry="25.892"/>
  <g>
    <path class="cls-2" d="M98.041,48.206a8.347,8.347,0,0,1,8.548-8.623,7.54,7.54,0,0,1,6.623,3.524l-2.125,1.125a5.281,5.281,0,0,0-4.5-2.424c-3.375,0-5.974,2.649-5.974,6.4,0,3.724,2.6,6.4,5.974,6.4a5.281,5.281,0,0,0,4.5-2.425l2.125,1.125a7.572,7.572,0,0,1-6.623,3.524A8.347,8.347,0,0,1,98.041,48.206Z"/>
    <path class="cls-2" d="M114.915,50.48a6.1,6.1,0,1,1,12.2,0c0,3.5-2.324,6.348-6.1,6.348C117.265,56.829,114.915,53.979,114.915,50.48Zm9.848,0c0-2.274-1.324-4.324-3.749-4.324-2.4,0-3.749,2.05-3.749,4.324,0,2.3,1.35,4.349,3.749,4.349C123.438,54.829,124.763,52.78,124.763,50.48Z"/>
    <path class="cls-2" d="M129.215,50.48a6.1,6.1,0,1,1,12.2,0c0,3.5-2.324,6.348-6.1,6.348C131.564,56.829,129.215,53.979,129.215,50.48Zm9.848,0c0-2.274-1.324-4.324-3.749-4.324-2.4,0-3.749,2.05-3.749,4.324,0,2.3,1.35,4.349,3.749,4.349C137.738,54.829,139.063,52.78,139.063,50.48Z"/>
    <path class="cls-2" d="M144.265,61.128V44.457h2.249v1.725a4.921,4.921,0,0,1,3.949-2.024c3.149,0,5.374,2.375,5.374,6.324s-2.225,6.348-5.374,6.348a4.817,4.817,0,0,1-3.949-2.049v6.349Zm5.6-14.972a4.136,4.136,0,0,0-3.35,1.774v5.124a4.2,4.2,0,0,0,3.35,1.774c2.249,0,3.624-1.824,3.624-4.349C153.487,47.981,152.112,46.156,149.863,46.156Z"/>
    <path class="cls-2" d="M163.988,44.157c3.624,0,5.873,2.824,5.873,6.523v.55h-9.547a3.958,3.958,0,0,0,4.1,3.749,5.134,5.134,0,0,0,3.574-1.424l1.05,1.475a6.79,6.79,0,0,1-4.849,1.8,6.037,6.037,0,0,1-6.249-6.348A6.071,6.071,0,0,1,163.988,44.157Zm-3.7,5.449h7.373a3.571,3.571,0,0,0-3.674-3.6A3.7,3.7,0,0,0,160.289,49.605Z"/>
    <path class="cls-2" d="M172.689,44.457h2.249v1.85a5.129,5.129,0,0,1,3.949-2.125v2.274a3.547,3.547,0,0,0-.774-.075,4.266,4.266,0,0,0-3.175,1.75v8.4h-2.249Z"/>
    <path class="cls-2" d="M178.664,58.9a3.886,3.886,0,0,0,1.7-2.325c-.05,0-.249.05-.374.05a1.348,1.348,0,0,1-1.351-1.425,1.515,1.515,0,0,1,1.525-1.524,1.85,1.85,0,0,1,1.749,2.074,5.056,5.056,0,0,1-2.2,4.024Z"/>
    <path class="cls-2" d="M191.438,61.128V44.457h2.249v1.725a4.921,4.921,0,0,1,3.949-2.024c3.149,0,5.374,2.375,5.374,6.324s-2.225,6.348-5.374,6.348a4.817,4.817,0,0,1-3.949-2.049v6.349Zm5.6-14.972a4.136,4.136,0,0,0-3.35,1.774v5.124a4.2,4.2,0,0,0,3.35,1.774c2.249,0,3.624-1.824,3.624-4.349C200.661,47.981,199.286,46.156,197.037,46.156Z"/>
    <path class="cls-2" d="M205.863,39.858h2.249V56.529h-2.249Z"/>
    <path class="cls-2" d="M219.136,55.2a5.173,5.173,0,0,1-3.948,1.625,4.011,4.011,0,0,1-4.2-4,3.9,3.9,0,0,1,4.2-3.949,5.034,5.034,0,0,1,3.948,1.6v-2c0-1.5-1.225-2.4-2.949-2.4a4.942,4.942,0,0,0-3.624,1.6l-.975-1.55a6.786,6.786,0,0,1,4.949-1.975c2.624,0,4.849,1.15,4.849,4.224v8.148h-2.25Zm0-3.374a3.823,3.823,0,0,0-3.1-1.375,2.425,2.425,0,1,0,0,4.8,3.823,3.823,0,0,0,3.1-1.375Z"/>
    <path class="cls-2" d="M225.737,59.428a1.668,1.668,0,0,0,1.75-1.175l.7-1.6-4.974-12.2h2.4l3.774,9.473,3.774-9.473h2.424l-5.948,14.372a3.815,3.815,0,0,1-3.85,2.6,6.5,6.5,0,0,1-1.4-.175l.351-2.024A2.737,2.737,0,0,0,225.737,59.428Z"/>
    <path class="cls-2" d="M244.313,53.854V46.431h-2V44.457h2v-3.3h2.249v3.3h2.449v1.975h-2.449v6.923c0,.85.4,1.475,1.175,1.475a1.73,1.73,0,0,0,1.225-.475l.575,1.7a3.2,3.2,0,0,1-2.35.775C245.287,56.829,244.313,55.754,244.313,53.854Z"/>
    <path class="cls-2" d="M259.66,48.756c0-2-1.024-2.6-2.574-2.6a4.313,4.313,0,0,0-3.324,1.75v8.623h-2.25V39.858h2.25v6.3a5.8,5.8,0,0,1,4.273-2c2.575,0,3.874,1.3,3.874,3.849v8.523H259.66Z"/>
    <path class="cls-2" d="M270.811,44.157c3.624,0,5.874,2.824,5.874,6.523v.55h-9.548a3.959,3.959,0,0,0,4.1,3.749,5.13,5.13,0,0,0,3.574-1.424l1.05,1.475a6.789,6.789,0,0,1-4.849,1.8,6.037,6.037,0,0,1-6.248-6.348A6.071,6.071,0,0,1,270.811,44.157Zm-3.7,5.449h7.374a3.572,3.572,0,0,0-3.675-3.6A3.7,3.7,0,0,0,267.111,49.605Z"/>
    <path class="cls-2" d="M300.634,48.481c0-1.4-.625-2.325-2.1-2.325a3.89,3.89,0,0,0-3,1.725v8.648h-2.249V48.481c0-1.4-.6-2.325-2.125-2.325a3.948,3.948,0,0,0-2.949,1.75v8.623h-2.249V44.457h2.249v1.7a5.227,5.227,0,0,1,3.9-2,3.119,3.119,0,0,1,3.274,2.25,5.063,5.063,0,0,1,4.074-2.25c2.224,0,3.424,1.225,3.424,3.649v8.723h-2.249Z"/>
    <path class="cls-2" d="M306.112,41.008a1.467,1.467,0,0,1,1.449-1.45,1.451,1.451,0,0,1,1.45,1.45,1.43,1.43,0,0,1-1.45,1.424A1.445,1.445,0,0,1,306.112,41.008Zm.35,3.449h2.249V56.529h-2.249Z"/>
    <path class="cls-2" d="M316.636,51.83l-3.4,4.7h-2.55l4.524-6.2-4.249-5.874h2.55l3.124,4.349,3.1-4.349h2.55L318.01,50.33l4.55,6.2h-2.55Z"/>
    <path class="cls-2" d="M338.51,47.256l-2.975,9.273h-2.324l-3.8-12.072h2.35l2.75,9.2,3.023-9.2h1.95l3.024,9.2,2.749-9.2h2.35l-3.8,12.072h-2.324Z"/>
    <path class="cls-2" d="M349.261,41.008a1.467,1.467,0,0,1,1.45-1.45,1.45,1.45,0,0,1,1.449,1.45,1.429,1.429,0,0,1-1.449,1.424A1.445,1.445,0,0,1,349.261,41.008Zm.35,3.449h2.25V56.529h-2.25Z"/>
    <path class="cls-2" d="M355.886,53.854V46.431h-2V44.457h2v-3.3h2.249v3.3h2.449v1.975h-2.449v6.923c0,.85.4,1.475,1.175,1.475a1.73,1.73,0,0,0,1.225-.475l.575,1.7a3.2,3.2,0,0,1-2.35.775C356.86,56.829,355.886,55.754,355.886,53.854Z"/>
    <path class="cls-2" d="M371.233,48.756c0-2-1.024-2.6-2.574-2.6a4.313,4.313,0,0,0-3.324,1.75v8.623h-2.25V39.858h2.25v6.3a5.8,5.8,0,0,1,4.273-2c2.575,0,3.874,1.3,3.874,3.849v8.523h-2.249Z"/>
    <path class="cls-2" d="M376.336,50.48a6.1,6.1,0,1,1,12.2,0c0,3.5-2.324,6.348-6.1,6.348C378.685,56.829,376.336,53.979,376.336,50.48Zm9.848,0c0-2.274-1.325-4.324-3.749-4.324-2.4,0-3.75,2.05-3.75,4.324,0,2.3,1.351,4.349,3.75,4.349C384.858,54.829,386.184,52.78,386.184,50.48Z"/>
    <path class="cls-2" d="M399.533,54.879a5.965,5.965,0,0,1-4.3,1.949c-2.574,0-3.85-1.3-3.85-3.849V44.457h2.25V52.23c0,2,1,2.6,2.549,2.6a4.363,4.363,0,0,0,3.35-1.7V44.457h2.249V56.529h-2.249Z"/>
    <path class="cls-2" d="M405.81,53.854V46.431h-2V44.457h2v-3.3h2.25v3.3h2.449v1.975H408.06v6.923c0,.85.4,1.475,1.175,1.475a1.732,1.732,0,0,0,1.225-.475l.574,1.7a3.2,3.2,0,0,1-2.35.775C406.784,56.829,405.81,55.754,405.81,53.854Z"/>
    <path class="cls-2" d="M419.909,53.854V46.431h-2V44.457h2v-3.3h2.25v3.3h2.449v1.975h-2.449v6.923c0,.85.4,1.475,1.175,1.475a1.732,1.732,0,0,0,1.225-.475l.574,1.7a3.2,3.2,0,0,1-2.35.775C420.884,56.829,419.909,55.754,419.909,53.854Z"/>
    <path class="cls-2" d="M435.258,48.756c0-2-1.025-2.6-2.575-2.6a4.315,4.315,0,0,0-3.324,1.75v8.623h-2.249V39.858h2.249v6.3a5.8,5.8,0,0,1,4.274-2c2.574,0,3.874,1.3,3.874,3.849v8.523h-2.249Z"/>
    <path class="cls-2" d="M446.408,44.157c3.624,0,5.873,2.824,5.873,6.523v.55h-9.547a3.958,3.958,0,0,0,4.1,3.749,5.134,5.134,0,0,0,3.574-1.424l1.05,1.475a6.79,6.79,0,0,1-4.849,1.8,6.037,6.037,0,0,1-6.249-6.348A6.071,6.071,0,0,1,446.408,44.157Zm-3.7,5.449h7.373a3.571,3.571,0,0,0-3.674-3.6A3.7,3.7,0,0,0,442.709,49.605Z"/>
    <path class="cls-2" d="M98.716,88.3a5.846,5.846,0,0,0,4.049,1.725c1.7,0,2.6-.7,2.6-1.725,0-1.2-1.375-1.6-2.925-1.95-2.05-.475-4.449-1.025-4.449-3.624,0-1.924,1.65-3.574,4.6-3.574a6.461,6.461,0,0,1,4.6,1.725l-1,1.575a4.708,4.708,0,0,0-3.574-1.475c-1.524,0-2.475.6-2.475,1.575,0,1.05,1.3,1.4,2.8,1.75,2.1.475,4.6,1.05,4.6,3.824,0,2.074-1.7,3.7-4.874,3.7a6.866,6.866,0,0,1-5.023-1.875Z"/>
    <path class="cls-2" d="M115.688,79.157c3.624,0,5.874,2.824,5.874,6.523v.55h-9.548a3.959,3.959,0,0,0,4.1,3.749,5.13,5.13,0,0,0,3.574-1.424l1.05,1.475a6.789,6.789,0,0,1-4.849,1.8,6.34,6.34,0,0,1-.2-12.672Zm-3.7,5.449h7.374a3.572,3.572,0,0,0-3.675-3.6A3.7,3.7,0,0,0,111.989,84.605Z"/>
    <path class="cls-2" d="M129.789,79.157a5.273,5.273,0,0,1,4.523,2.125l-1.5,1.375a3.374,3.374,0,0,0-2.925-1.5c-2.374,0-3.9,1.825-3.9,4.324s1.525,4.349,3.9,4.349a3.433,3.433,0,0,0,2.925-1.5l1.5,1.375a5.273,5.273,0,0,1-4.523,2.125,6.339,6.339,0,0,1,0-12.672Z"/>
    <path class="cls-2" d="M136.04,85.48a6.1,6.1,0,1,1,12.2,0c0,3.5-2.324,6.348-6.1,6.348C138.39,91.829,136.04,88.979,136.04,85.48Zm9.848,0c0-2.274-1.324-4.324-3.749-4.324-2.4,0-3.749,2.05-3.749,4.324,0,2.3,1.35,4.349,3.749,4.349C144.563,89.829,145.888,87.78,145.888,85.48Z"/>
    <path class="cls-2" d="M159.238,83.806c0-2-1.025-2.649-2.575-2.649a4.315,4.315,0,0,0-3.324,1.75v8.623H151.09V79.457h2.249v1.7a5.757,5.757,0,0,1,4.274-2c2.55,0,3.874,1.35,3.874,3.9v8.473h-2.249Z"/>
    <path class="cls-2" d="M173.662,89.8a4.992,4.992,0,0,1-3.949,2.024c-3.148,0-5.4-2.375-5.4-6.323,0-3.874,2.25-6.349,5.4-6.349a4.917,4.917,0,0,1,3.949,2.05V74.858h2.25V91.529h-2.25Zm0-6.874a4.172,4.172,0,0,0-3.349-1.774c-2.25,0-3.649,1.825-3.649,4.349,0,2.5,1.4,4.324,3.649,4.324a4.151,4.151,0,0,0,3.349-1.75Z"/>
    <path class="cls-2" d="M185.964,79.457h2.249v1.85a5.129,5.129,0,0,1,3.949-2.125v2.274a3.547,3.547,0,0,0-.774-.075,4.266,4.266,0,0,0-3.175,1.75v8.4h-2.249Z"/>
    <path class="cls-2" d="M194.063,76.008a1.467,1.467,0,0,1,1.45-1.45,1.45,1.45,0,0,1,1.449,1.45,1.429,1.429,0,0,1-1.449,1.424A1.445,1.445,0,0,1,194.063,76.008Zm.35,3.449h2.25V91.529h-2.25Z"/>
    <path class="cls-2" d="M200.788,81.431h-2V79.457h2v-.8c0-2.6,1.524-4.049,3.674-4.049a3.977,3.977,0,0,1,1.975.45l-.524,1.675a2.147,2.147,0,0,0-1.075-.275c-1.124,0-1.8.75-1.8,2.2v.8h2.45v1.975h-2.45v10.1h-2.249Zm7.4,0h-2V79.457h2v-.8c0-2.6,1.524-4.049,3.674-4.049a3.979,3.979,0,0,1,1.975.45l-.524,1.675a2.152,2.152,0,0,0-1.075-.275c-1.125,0-1.8.75-1.8,2.2v.8h2.449v1.975h-2.449v10.1h-2.249Z"/>
    <path class="cls-2" d="M215.088,88.68a1.58,1.58,0,0,1,1.575,1.549,1.6,1.6,0,0,1-1.575,1.575,1.579,1.579,0,0,1-1.55-1.575A1.558,1.558,0,0,1,215.088,88.68Z"/>
  </g>
  <rect class="cls-3" y="174" width="371" height="89" rx="25.892" ry="25.892"/>
  <g>
    <path class="cls-4" d="M38.141,220.255a7.028,7.028,0,0,0,5.248,2.35c2.7,0,3.649-1.375,3.649-2.575,0-1.75-1.9-2.25-4.024-2.8-2.674-.7-5.773-1.475-5.773-4.874,0-2.75,2.425-4.749,5.9-4.749a8.172,8.172,0,0,1,6.074,2.325l-1.45,1.849a6.5,6.5,0,0,0-4.823-1.949c-1.85,0-3.125.95-3.125,2.349,0,1.5,1.8,1.975,3.874,2.5,2.725.725,5.9,1.575,5.9,5.124,0,2.6-1.8,5.023-6.3,5.023a8.53,8.53,0,0,1-6.573-2.649Z"/>
    <path class="cls-4" d="M60.589,222.879a5.967,5.967,0,0,1-4.3,1.949c-2.574,0-3.849-1.3-3.849-3.849v-8.523h2.249v7.773c0,2,1,2.6,2.55,2.6a4.365,4.365,0,0,0,3.35-1.7v-8.673h2.249v12.072H60.589Z"/>
    <path class="cls-4" d="M66.415,212.457h2.249v1.85a5.129,5.129,0,0,1,3.949-2.125v2.274a3.547,3.547,0,0,0-.774-.075,4.266,4.266,0,0,0-3.175,1.75v8.4H66.415Z"/>
    <path class="cls-4" d="M80.163,212.157c3.624,0,5.874,2.824,5.874,6.523v.55H76.489a3.959,3.959,0,0,0,4.1,3.749,5.13,5.13,0,0,0,3.574-1.424l1.05,1.475a6.789,6.789,0,0,1-4.849,1.8,6.34,6.34,0,0,1-.2-12.672Zm-3.7,5.449h7.374a3.572,3.572,0,0,0-3.675-3.6A3.7,3.7,0,0,0,76.464,217.605Z"/>
    <path class="cls-4" d="M95.765,221.854v-7.423h-2v-1.975h2v-3.3h2.249v3.3h2.449v1.975H98.014v6.923c0,.85.4,1.475,1.175,1.475a1.73,1.73,0,0,0,1.225-.475l.575,1.7a3.2,3.2,0,0,1-2.35.775C96.739,224.829,95.765,223.754,95.765,221.854Z"/>
    <path class="cls-4" d="M111.112,216.756c0-2-1.024-2.6-2.574-2.6a4.313,4.313,0,0,0-3.324,1.75v8.623h-2.25V207.858h2.25v6.3a5.8,5.8,0,0,1,4.273-2c2.575,0,3.874,1.3,3.874,3.849v8.523h-2.249Z"/>
    <path class="cls-4" d="M116.614,209.008a1.467,1.467,0,0,1,1.45-1.45,1.45,1.45,0,0,1,1.449,1.45,1.429,1.429,0,0,1-1.449,1.424A1.445,1.445,0,0,1,116.614,209.008Zm.35,3.449h2.25v12.072h-2.25Z"/>
    <path class="cls-4" d="M130.938,216.806c0-2-1.025-2.649-2.575-2.649a4.315,4.315,0,0,0-3.324,1.75v8.623h-2.249V212.457h2.249v1.7a5.757,5.757,0,0,1,4.274-2c2.55,0,3.874,1.35,3.874,3.9v8.473h-2.249Z"/>
    <path class="cls-4" d="M137.738,225.979a4.711,4.711,0,0,0,3.874,1.6c1.875,0,3.749-.9,3.749-3.449v-1.575a5.088,5.088,0,0,1-3.974,2.075c-3.124,0-5.374-2.3-5.374-6.249,0-3.874,2.25-6.224,5.374-6.224a4.928,4.928,0,0,1,3.974,2.05v-1.75h2.25v11.6c0,4.149-3.024,5.374-6,5.374a6.486,6.486,0,0,1-4.948-1.8Zm7.623-10.048a4.208,4.208,0,0,0-3.349-1.774c-2.25,0-3.649,1.75-3.649,4.224,0,2.5,1.4,4.249,3.649,4.249a4.229,4.229,0,0,0,3.349-1.8Z"/>
    <path class="cls-4" d="M152.338,221.68a1.58,1.58,0,0,1,1.575,1.549,1.6,1.6,0,0,1-1.575,1.55,1.552,1.552,0,0,1-1.524-1.55A1.536,1.536,0,0,1,152.338,221.68Zm-1.374-13.822h2.774l-.426,11.8h-1.924Z"/>
  </g>
</svg>
