<svg id="Layer_1" data-name="Layer 1" xmlns="http://www.w3.org/2000/svg" viewBox="0 0 118.598 186.503">
  <defs>
    <style>
      .cls-1 {
        fill: #fff;
      }

      .cls-2 {
        fill: #dfdfde;
      }

      .cls-3 {
        fill: #ef875b;
      }

      .cls-4 {
        fill: #475156;
      }

      .cls-5 {
        fill: #e87043;
      }

      .cls-6 {
        fill: #e3e3e2;
        opacity: 0.38;
      }

      .cls-10, .cls-11, .cls-7, .cls-8, .cls-9 {
        fill: none;
      }

      .cls-7 {
        stroke: #51b6a9;
        stroke-width: 3px;
        opacity: 0.39;
      }

      .cls-7, .cls-9 {
        stroke-miterlimit: 10;
      }

      .cls-8 {
        stroke: #ef875b;
      }

      .cls-10, .cls-11, .cls-8 {
        stroke-linecap: round;
        stroke-linejoin: round;
      }

      .cls-10, .cls-11, .cls-8, .cls-9 {
        stroke-width: 2px;
      }

      .cls-10, .cls-9 {
        stroke: #475156;
      }

      .cls-11 {
        stroke: #c4c4c4;
      }
    </style>
  </defs>
  <title>b6b97d61-8ec2-4711-b70a-09761f7112f0</title>
  <rect class="cls-1" x="4.025" y="11.503" width="105" height="174" rx="16.997" ry="16.997"/>
  <g>
    <circle class="cls-2" cx="58.358" cy="148.17" r="13.5"/>
    <g>
      <path class="cls-3" d="M58.025,159.5a12,12,0,1,1,12-12A12.014,12.014,0,0,1,58.025,159.5Z"/>
      <path class="cls-4" d="M58.025,136.5a11,11,0,1,1-11,11,11,11,0,0,1,11-11m0-2a13,13,0,1,0,13,13,13.015,13.015,0,0,0-13-13Z"/>
    </g>
    <path class="cls-5" d="M58.025,158.5a10.988,10.988,0,0,0,9.141-4.881h0C47.475,156.573,53.8,137.35,53.8,137.346A11,11,0,0,0,58.025,158.5Z"/>
    <circle class="cls-1" cx="64.358" cy="137.17" r="1.5"/>
    <path class="cls-6" d="M21.861,137.88C15.377,82.59,22.083,40.6,30.24,12.67H21.531a16.738,16.738,0,0,0-16.673,16.8v138.4a16.738,16.738,0,0,0,16.673,16.8H91.185a16.738,16.738,0,0,0,16.673-16.8V149.326C67.416,177.345,27.391,185.032,21.861,137.88Z"/>
    <rect class="cls-5" y="94.67" width="2.694" height="9" rx="1.124" ry="1.124"/>
    <rect class="cls-5" x="110.319" y="94.67" width="2.694" height="9" rx="1.124" ry="1.124"/>
  </g>
  <path class="cls-7" d="M5.025,66.5c11.587,1.174,27.495,4.792,32.959-8.191,2.136-5.075,4.377-12.99,9.854-15.735,10.3-5.163,14.59,8.123,19.188,14.1,4.263,5.544,11.8,8.734,18.746,8.555,7.938-.205,15.227-4.279,23.063-5.192"/>
  <line class="cls-8" x1="97.792" y1="3.566" x2="101.054" y2="6.898"/>
  <line class="cls-8" x1="106.662" y1="6.132" x2="108.135" y2="1"/>
  <line class="cls-8" x1="111.358" y1="9.902" x2="115.259" y2="6.716"/>
  <line class="cls-8" x1="112.919" y1="16.261" x2="117.598" y2="17.139"/>
  <rect class="cls-9" x="4.025" y="11.503" width="105" height="174" rx="16.997" ry="16.997"/>
  <rect class="cls-1" x="107.56" y="44.503" width="2.532" height="35.167"/>
  <line class="cls-10" x1="108.836" y1="53.322" x2="108.836" y2="61.503"/>
  <line class="cls-11" x1="108.836" y1="66.503" x2="108.836" y2="70.503"/>
  <line class="cls-10" x1="109.025" y1="41.91" x2="109.025" y2="47.204"/>
  <line class="cls-10" x1="109.025" y1="77.095" x2="109.025" y2="85.008"/>
</svg>
