<svg id="Layer_1" data-name="Layer 1" xmlns="http://www.w3.org/2000/svg" viewBox="0 0 343.932 244.391">
  <defs>
    <style>
      .cls-1 {
        fill: #c0d8d7;
        opacity: 0.2;
      }

      .cls-2, .cls-4 {
        fill: #fff;
      }

      .cls-11, .cls-2, .cls-5 {
        stroke: #596368;
      }

      .cls-14, .cls-15, .cls-2, .cls-3 {
        stroke-miterlimit: 10;
      }

      .cls-13, .cls-14, .cls-2, .cls-5, .cls-6 {
        stroke-width: 2px;
      }

      .cls-11, .cls-13, .cls-14, .cls-15, .cls-3, .cls-5, .cls-6 {
        fill: none;
      }

      .cls-3 {
        stroke: #5bc1b7;
      }

      .cls-15, .cls-3 {
        stroke-width: 3px;
      }

      .cls-11, .cls-13, .cls-15, .cls-5, .cls-6 {
        stroke-linecap: round;
      }

      .cls-11, .cls-13, .cls-5, .cls-6 {
        stroke-linejoin: round;
      }

      .cls-6 {
        stroke: #cecece;
      }

      .cls-7 {
        fill: #e5e5e5;
      }

      .cls-8 {
        fill: #f19b70;
      }

      .cls-9 {
        fill: #596368;
      }

      .cls-10 {
        fill: #ed8757;
      }

      .cls-11 {
        stroke-width: 4px;
      }

      .cls-12 {
        fill: #e8e8e8;
        opacity: 0.38;
      }

      .cls-13 {
        stroke: #f19b70;
      }

      .cls-14, .cls-15 {
        stroke: #b6c6ce;
      }
    </style>
  </defs>
  <title>0225fdbc-e2bd-48f7-8d12-8d4255ff3281</title>
  <g>
    <circle class="cls-1" cx="183.997" cy="148.393" r="87"/>
    <rect class="cls-2" x="119.164" y="47.227" width="105" height="174" rx="16.997" ry="16.997"/>
    <path class="cls-3" d="M120.164,102.227c11.587,1.174,27.495,4.792,32.959-8.191,2.136-5.075,4.377-12.99,9.854-15.735,8.605-4.313,15.246,5.379,17.579,12.2,1.791,5.238,2.338,10.781,3.45,16.191a15.418,15.418,0,0,0,2.617,6.648c6.07,7.643,29.876,4.044,38.373,3.053"/>
    <rect class="cls-4" x="222.164" y="80.227" width="3.833" height="35.167"/>
    <line class="cls-5" x1="224.164" y1="77.633" x2="224.164" y2="82.927"/>
    <line class="cls-5" x1="224.164" y1="112.818" x2="224.164" y2="120.732"/>
    <line class="cls-5" x1="223.974" y1="89.045" x2="223.974" y2="97.227"/>
    <line class="cls-6" x1="223.974" y1="102.227" x2="223.974" y2="106.227"/>
    <circle class="cls-7" cx="173.497" cy="183.893" r="13.5"/>
    <g>
      <path class="cls-8" d="M173.164,195.226a12,12,0,1,1,12-12A12.013,12.013,0,0,1,173.164,195.226Z"/>
      <path class="cls-9" d="M173.164,172.227a11,11,0,1,1-11,11,11,11,0,0,1,11-11m0-2a13,13,0,1,0,13,13,13.015,13.015,0,0,0-13-13Z"/>
    </g>
    <path class="cls-10" d="M173.164,194.227a10.988,10.988,0,0,0,9.141-4.881h0c-19.691,2.952-13.365-16.271-13.364-16.276a11,11,0,0,0,4.223,21.157Z"/>
    <circle class="cls-4" cx="179.497" cy="172.893" r="1.5"/>
    <path class="cls-11" d="M118.164,134.227c-14.344.047-46.694,9.175-58.242-2.15C47.6,120,69.467,95.973,52.5,86.744c-3.164-1.722-6.9-1.957-10.5-2.09a299.058,299.058,0,0,0-40,1.2"/>
    <path class="cls-11" d="M225.164,134.727c18.207,0,60.99-15.333,60.945,14.693q-.07,46.486-.14,92.971"/>
    <path class="cls-12" d="M137,173.6c-6.484-55.291.221-97.281,8.378-125.211H136.67A16.738,16.738,0,0,0,120,65.195v138.4a16.738,16.738,0,0,0,16.673,16.8h69.654A16.738,16.738,0,0,0,223,203.592V185.049C182.554,213.068,142.53,220.756,137,173.6Z"/>
    <line class="cls-13" x1="207.497" y1="31.893" x2="216.193" y2="42.622"/>
    <line class="cls-13" x1="221.889" y1="41.88" x2="224.483" y2="33.099"/>
    <line class="cls-13" x1="225.412" y1="30.108" x2="226.149" y2="27.614"/>
    <line class="cls-13" x1="226.497" y1="45.626" x2="238" y2="36.23"/>
    <line class="cls-13" x1="228.058" y1="51.985" x2="241.632" y2="54.53"/>
    <circle class="cls-14" cx="89.247" cy="202.643" r="3.25"/>
    <circle class="cls-14" cx="187.247" cy="235.643" r="3.25"/>
    <circle class="cls-14" cx="259.247" cy="221.643" r="3.25"/>
    <circle class="cls-14" cx="318.247" cy="168.643" r="3.25"/>
    <circle class="cls-14" cx="159.247" cy="27.643" r="3.25"/>
    <circle class="cls-4" cx="91.997" cy="201.393" r="2"/>
    <circle class="cls-4" cx="258.997" cy="218.393" r="2"/>
    <circle class="cls-4" cx="320.997" cy="170.393" r="2"/>
    <g>
      <circle class="cls-14" cx="303.247" cy="56.643" r="3.25"/>
      <circle class="cls-4" cx="302.997" cy="53.393" r="2"/>
    </g>
    <line class="cls-15" x1="93.123" y1="16.761" x2="97.358" y2="20.115"/>
    <line class="cls-15" x1="253.24" y1="9.287" x2="257.754" y2="1.5"/>
    <line class="cls-15" x1="42.655" y1="162.188" x2="36.339" y2="168.599"/>
    <line class="cls-15" x1="334.563" y1="122.577" x2="342.432" y2="118.209"/>
    <rect class="cls-10" x="102.997" y="130.393" width="15" height="9" rx="1.83" ry="1.83"/>
    <path class="cls-8" d="M117.967,137.866a1.823,1.823,0,0,0,.031-.3v-5.34a1.83,1.83,0,0,0-1.83-1.83H105.193C105.812,133.163,108.3,137.827,117.967,137.866Z"/>
    <rect class="cls-10" x="224.997" y="128.393" width="15" height="9" rx="1.83" ry="1.83"/>
    <path class="cls-8" d="M239.967,135.866a1.823,1.823,0,0,0,.031-.3v-5.34a1.83,1.83,0,0,0-1.83-1.83H227.193C227.812,131.163,230.3,135.827,239.967,135.866Z"/>
  </g>
</svg>
