<svg id="Layer_1" data-name="Layer 1" xmlns="http://www.w3.org/2000/svg" viewBox="0 0 1033.84 637.642">
  <defs>
    <style>
      .cls-1, .cls-7, .cls-9 {
        fill: #fff;
      }

      .cls-1, .cls-6, .cls-9 {
        stroke: #3a4945;
      }

      .cls-1, .cls-5, .cls-7 {
        stroke-miterlimit: 10;
      }

      .cls-1, .cls-5, .cls-6, .cls-7, .cls-9 {
        stroke-width: 3px;
      }

      .cls-2, .cls-4, .cls-6 {
        fill: #3a4945;
      }

      .cls-3 {
        fill: #485451;
      }

      .cls-4 {
        opacity: 0.31;
      }

      .cls-5 {
        fill: #f97f75;
        stroke: #202020;
      }

      .cls-6, .cls-9 {
        stroke-linecap: round;
        stroke-linejoin: round;
      }

      .cls-7 {
        stroke: #485451;
      }

      .cls-8 {
        fill: #ff6652;
        opacity: 0.81;
      }
    </style>
  </defs>
  <title>b1c39dca-20d3-4f22-8f4b-befa5a51bda7</title>
  <g>
    <path class="cls-1" d="M854.86,168.7c.215,6.027-3.348,11.518-3.348,11.518a15.991,15.991,0,0,1-10.767,4.4c-1.958,0-1.958.88-1.958.88s-2.936,44-.979,71.273c-.01.018-.029.026-.039.044-18.676,19.455-39.573,15.944-52.876,10.365-.059-.026-.117-.053-.186-.079-.235-.1-.46-.194-.685-.3A77.658,77.658,0,0,1,771.26,259.4c.3-.792,10.043-26.089,10.884-32.777a55.979,55.979,0,0,1-9.915,1.118s-11.746,0-15.661-21.118c-3.377-18.223,1.263-62.659,10.14-85.237,6.578,2.129,13.508,6.186,17.658,6.978,12.7,2.437,25.909.581,37.782-3.933a81.017,81.017,0,0,0,8.643-3.863l.969-.528c-1.165,3.555-7.742,24.541-8.633,46.987-.02,1.39,2.545,2.886,5.1,3.924l.059.026a9.994,9.994,0,0,0,4.512,1.32.528.528,0,0,0,.117.009s0-.44.039-1.161c.01-.009.01-.018.01-.035.519-3.467,1.576-7.506,3.954-10.3l.01-.018a21.391,21.391,0,0,1,6.137-3.265h.01c.372-.044.754-.07,1.155-.079a9.6,9.6,0,0,1,6.215,2.015,15.287,15.287,0,0,1,2.046,2.279,12.335,12.335,0,0,1,1.263,2.121c.088.211.176.414.255.625a2.074,2.074,0,0,1,.117.317c.108.29.2.572.274.862.039.167.088.334.127.5.108.5.2,1.012.255,1.522A8.962,8.962,0,0,1,854.86,168.7Z" transform="translate(0 0)"/>
    <path class="cls-2" d="M854.86,168.7a8.962,8.962,0,0,0-.078-1.012,10.5,10.5,0,0,0-.255-1.522,3.144,3.144,0,0,0-.127-.5,6.216,6.216,0,0,0-.274-.862,2.074,2.074,0,0,0-.117-.317c-.078-.211-.166-.414-.255-.625a12.335,12.335,0,0,0-1.263-2.121,15.287,15.287,0,0,0-2.046-2.279,7.492,7.492,0,0,0-7.37-1.936h-.01a21.391,21.391,0,0,0-6.137,3.265l-.01.018-.088.053c-3.025,2.041-3.71,7.743-3.866,10.242,0,.018,0,.026-.01.035-.039.722-.039,1.161-.039,1.161a.528.528,0,0,1-.117-.009,9.994,9.994,0,0,1-4.512-1.32l-.059-.026a22.083,22.083,0,0,1-5.1-3.924c.891-22.447,7.468-43.433,8.633-46.987.137-.07.264-.141.391-.211,4.591-2.587,8.692-6.036,10.845-10.471a12.748,12.748,0,0,0,1.341-5.526C851.444,104.848,878.332,112.45,854.86,168.7Z" transform="translate(0 0)"/>
    <path class="cls-3" d="M844.338,103.827A12.748,12.748,0,0,1,843,109.353c-2.153,4.435-6.255,7.884-10.845,10.471-.127.07-.254.141-.391.211l-.969.528a81.017,81.017,0,0,1-8.643,3.863c-11.873,4.514-25.087,6.371-37.782,3.933-4.15-.792-11.08-4.848-17.658-6.978-6.206-2.015-12.1-2.323-15.035,3.405,0,0-3.915-23.758,12.725-35.2,16.473-11.324,43.244-15.75,62.027-6.881C834.9,86.713,844.485,94.808,844.338,103.827Z" transform="translate(0 0)"/>
    <path class="cls-4" d="M813.877,214.714l-7.39,8.861-17.619,19.358-16.63,15.821c.3-.792,10.043-26.089,10.884-32.777h.01c.9-.185,1.84-.4,2.8-.642,6.852-1.76,23.492-8.8,23.492-8.8l3.6-2.939C813.76,213.412,814.338,214.169,813.877,214.714Z" transform="translate(0 0)"/>
    <path class="cls-1" d="M994.087,379.361s38.362,75.352,38.253,125.211S932.232,605.778,932.232,605.778L911.5,574.561s39.563-59.861,56.4-75.137c0,0-8.131-19.933-16.944-42S994.087,379.361,994.087,379.361Z" transform="translate(0 0)"/>
    <path class="cls-1" d="M631.769,398.88s-31.811,78.752-26.917,128.907,111.585,94.151,111.585,94.151l18.108-33s-46-57.194-64.6-71.273c0,0,6.362-20.678,13.214-43.556S631.769,398.88,631.769,398.88Z" transform="translate(0 0)"/>
    <path class="cls-5" d="M995.673,382.848c-.157.4-.313.8-.48,1.234-4.953,12.6-17.658,36.536-27.632,54.707-6.627,12.108-12.049,21.661-13.155,23.617-.039.071-.078.132-.108.185l-.127-.106.039.264a.112.112,0,0,1-.019.026l-5.325-4.908-6.45-5.948c-.137.987-.264,1.983-.392,2.979-3.191,23.705-7.459,49.789-13.185,77.134,0,0-7.831,62.567,1.958,89S710.074,631.17,710.074,631.17s12.392-71.653-13.547-169.707c-.029-.132-.068-.273-.108-.405L684.684,476l-.069-.088s-.039-.053-.127-.15c-.02-.026-.039-.053-.069-.088-.069-.079-.147-.176-.245-.291q-.073-.093-.176-.211c-.069-.088-.147-.176-.245-.282a.42.42,0,0,0-.088-.106c-.137-.176-.3-.37-.509-.608a.674.674,0,0,0-.1-.123c-.088-.115-.186-.229-.294-.352s-.215-.264-.333-.4c-2.662-3.208-7.38-8.892-11.834-14.311-1.038-1.26-2.055-2.5-3.025-3.692-.245-.3-.489-.6-.724-.89s-.47-.582-.7-.864c-14.878-18.3-33.9-42.422-38.9-52.116-1.224-2.388-1.605-3.9-.861-4.23,5.873-2.644,4.894-3.525,4.894-3.525,8.682-46.873,33.887-70.278,43.342-77.6.01-.009.029-.018.039-.036,20.7-18.812,47.474-33.18,72.394-46.936,5.918-3.267,11.876-6.482,17.918-9.56,1.782-.908,4.242-2.73,6.261-3.1,4.581-.829,8.164,4.287,11.453,6.248a35.323,35.323,0,0,0,16.654,4.48c13.451.476,29.59-3.02,38.023-13.179-1.359,1.637,72.222,37.784,78.751,40.1a55.784,55.784,0,0,1,14.193,7.376c5.618,2.547,40.924,20.242,60.951,71.309,0,0-.793,1.022,5.491,2.714C997.826,375.79,997.288,378.522,995.673,382.848Z" transform="translate(0 0)"/>
    <g>
      <path class="cls-6" d="M81.84,427.5s-3,41,18,49h0S106.84,435.5,81.84,427.5Z" transform="translate(0 0)"/>
      <path class="cls-1" d="M90.29,460.815c4.334,2.5,9.954,5.75,16.541,9.572a33.05,33.05,0,0,1,6.487-5.837c2.779-1.889,5.457-3.9,8.065-6,4.681-4.346,9.111-8.922,13.421-13.607-4.272-1.461-8.176-2.692-11.585-3.628l-.022,0L107.241,433.5c-28.9-8.844-39.391,8.011-47.235,19.867s-19.541,11.283-19.541,11.283c-9.545,2.953-26.308,2.912-26.308,2.912-11.033-1.821-12.421,3.841-12.421,3.841,6.255,3.3,47.447,14.626,47.447,14.626s9.784,1.156,12.418-3.851S87.006,462.8,87.006,462.8C88.1,462.122,89.2,461.467,90.29,460.815Z" transform="translate(0 0)"/>
      <path class="cls-1" d="M300.7,81.7c-.215,6.027,3.348,11.518,3.348,11.518a15.991,15.991,0,0,0,10.767,4.4c1.958,0,1.958.88,1.958.88s2.936,44,.979,71.273c.01.018.029.026.039.044,18.676,19.455,39.573,15.944,52.876,10.365.059-.026.117-.053.186-.079.235-.1.46-.194.685-.3A77.658,77.658,0,0,0,384.3,172.4c-.3-.792-10.043-26.089-10.884-32.777a55.979,55.979,0,0,0,9.915,1.118s11.746,0,15.661-21.118c3.377-18.223-1.263-62.659-10.14-85.237-6.578,2.129-13.508,6.186-17.658,6.978-12.7,2.437-25.909.581-37.782-3.933a81.017,81.017,0,0,1-8.643-3.863l-.969-.528c1.165,3.555,7.742,24.541,8.633,46.987.02,1.39-2.545,2.886-5.1,3.924l-.059.026a9.994,9.994,0,0,1-4.512,1.32.528.528,0,0,1-.117.009s0-.44-.039-1.161c-.01-.009-.01-.018-.01-.035-.519-3.467-1.576-7.506-3.954-10.3l-.01-.018a21.391,21.391,0,0,0-6.137-3.265h-.01c-.372-.044-.754-.07-1.155-.079a9.6,9.6,0,0,0-6.215,2.015,15.287,15.287,0,0,0-2.046,2.279,12.335,12.335,0,0,0-1.263,2.121c-.088.211-.176.414-.255.625a2.074,2.074,0,0,0-.117.317c-.108.29-.2.572-.274.862-.039.167-.088.334-.127.5-.108.5-.2,1.012-.255,1.522A8.962,8.962,0,0,0,300.7,81.7Z" transform="translate(0 0)"/>
      <path class="cls-2" d="M300.7,81.7a8.962,8.962,0,0,1,.078-1.012,10.5,10.5,0,0,1,.255-1.522,3.144,3.144,0,0,1,.127-.5,6.216,6.216,0,0,1,.274-.862,2.074,2.074,0,0,1,.117-.317c.078-.211.166-.414.255-.625a12.335,12.335,0,0,1,1.263-2.121,15.287,15.287,0,0,1,2.046-2.279,7.492,7.492,0,0,1,7.37-1.936h.01a21.391,21.391,0,0,1,6.137,3.265l.01.018.088.053c3.025,2.041,3.71,7.743,3.866,10.242,0,.018,0,.026.01.035.039.722.039,1.161.039,1.161a.528.528,0,0,0,.117-.009,9.994,9.994,0,0,0,4.512-1.32l.059-.026a22.083,22.083,0,0,0,5.1-3.924c-.891-22.447-7.468-43.433-8.633-46.987-.137-.07-.264-.141-.391-.211-4.591-2.587-8.692-6.036-10.845-10.471a12.748,12.748,0,0,1-1.341-5.526C304.115,17.848,277.227,25.45,300.7,81.7Z" transform="translate(0 0)"/>
      <path class="cls-3" d="M393.285,25.827a12.748,12.748,0,0,1-1.341,5.526c-2.153,4.435-6.255,7.884-10.845,10.471-.127.07-.254.141-.391.211l-.969.528a81.017,81.017,0,0,1-8.643,3.863c-11.873,4.514-25.087,6.371-37.782,3.933-4.15-.792-11.08-4.848-17.658-6.978-6.206-2.015-12.1-2.323-15.035,3.405,0,0-3.915-23.758,12.725-35.2C329.819.266,356.589-4.16,375.373,4.709,383.849,8.713,393.432,16.808,393.285,25.827Z" transform="translate(0 0)"/>
      <path class="cls-4" d="M341.682,127.714l7.39,8.861,17.619,19.358,16.63,15.821c-.3-.792-10.043-26.089-10.884-32.777h-.01c-.9-.185-1.84-.4-2.8-.642-6.852-1.76-23.492-8.8-23.492-8.8l-3.6-2.939C341.8,126.412,341.222,127.169,341.682,127.714Z" transform="translate(0 0)"/>
      <path class="cls-7" d="M99.634,476.449c49.032,18.8,106.942,1.67,119.466-2.2s21.161-27.59,21.161-27.59l46.064-126.512s27.688,97.9,4.953,172.866C268.811,567.1,462.966,476.1,462.966,476.1c5.131-67.368-.913-136.006-18-200.443,2.957,11.15,12.019,23.029,16.46,33.848,5.135,12.511,9.637,25.379,14.316,38.143,6.737,18.377,14.675,58.893,32.459,65.867,7.856-23.171,12.582-48.15,18.628-72.065,1.08-4.271,2.172-8.684,1.791-13.127-1.249-14.569-74.775-138.585-99.156-145.524-7.35-2.092-46.809-17.145-46.809-17.145l-8.425-2.776-18.8,16.144-46.857-10.749s-24.364,12.458-56.267,42.324S223.2,266.63,223.2,266.63s-28.777,127.715-47.915,141.5S84.63,428.548,84.63,428.548C97.084,438.071,99.634,476.449,99.634,476.449Z" transform="translate(0 0)"/>
      <path class="cls-3" d="M375.961,154s7.743,11.738,10.844,12.3c0,0-5.466,10.887-5.194,26.64,0,0-16.19-7.516-20.369-22.441Z" transform="translate(0 0)"/>
      <path class="cls-3" d="M316.63,154.406a31.032,31.032,0,0,0-8.738,9.148s17.661,31.528,45.741,37.742l7.781-29.621S347.57,173.392,316.63,154.406Z" transform="translate(0 0)"/>
      <path class="cls-8" d="M361.551,172.625s4.847,12.589,10.243,15.095c0,0-3.05,6.727-5,7.141s-5.054-.146-9.474-2.858C357.317,192,360.712,173.781,361.551,172.625Z" transform="translate(0 0)"/>
      <path class="cls-8" d="M364.153,190.555S389.062,209.6,397.148,223.7s18.517,37.428,10.343,57.4-41.5,102.439-32.1,118.689c0,0-12.474,11.156-19.088,21.07s-13.824-18.963-20.077-27.368c0,0-1.4-37.405,21.2-68.949,0,0,6.614-9.914,14.959-28.709s17.426-25.583,9.582-51.894-15.175-49.082-18.961-54.361S364.153,190.555,364.153,190.555Z" transform="translate(0 0)"/>
      <path class="cls-4" d="M322.505,487.656a192.656,192.656,0,0,0,1.229-26.952c-.4-19.84-3.278-39.537-4.881-59.2-1.468-18-3.269-37.132-10.319-53.386-9.96-22.965-19.89-18.936-22.21-27.969l11.148,56.016,3.456,51.564s-1.593,26.01-6.018,48.706c-3.462,17.76-6.528,28.756-5.314,32.747,2.021,6.647,8.47,9.844,13.85,10.738,6.912,1.148,11.822-1.126,14.33-9.353A133.779,133.779,0,0,0,322.505,487.656Z" transform="translate(0 0)"/>
      <path class="cls-4" d="M445.757,281.208l-4.923-33.926,66.359,100.545q.251.391.468.8c2.844,5.38.381,12.592-4.652,14.538l-20.074,7.761-11.51-37.7Z" transform="translate(0 0)"/>
      <path class="cls-9" d="M416.84,311.5s-11,61-14,124c0,0-20-6-55,16,0,0,9-105,6-132C353.84,319.5,384.84,328.5,416.84,311.5Z" transform="translate(0 0)"/>
      <path class="cls-1" d="M441.431,397.912c.1-1.063.161-2.123.19-3.184-.682-2.053-1.523-4.036-2.315-6.1a42.736,42.736,0,0,1-2.463-10.219l-.859.544c-.963-.6-1.935-1.2-2.9-1.832,0,0-20.073-13.262-22.322-17.991s-11.039-3.407-11.039-3.407-37.169,11.8-42.849,15.1c0,0,1.115,5.4,11.042,3.4,0,0,15.022-.423,23.507,2.19,0,0,10.492-.807,17.252,10.368,5.775,9.557,13.205,22.561,31.533,20.437C440.522,404.108,440.967,401.007,441.431,397.912Z" transform="translate(0 0)"/>
      <path class="cls-7" d="M528.308,325.877a243,243,0,0,1,5.5,25.559c2.566,15.965,4.018,33.1,1.033,49.062-3.159,16.9-12.312,29.181-26.313,32.269-25.649,5.656-54.165-11.146-76.536-24.821l1.6-30.407c12.283-1.179,24.769-1.358,37.063-3.149a99.84,99.84,0,0,0,14.8-3.236c4.613-1.409,8.865-3.991,13.334-5.618" transform="translate(0 0)"/>
    </g>
    <path class="cls-4" d="M696.34,460s-16-52-22-66l-6,124s12-34,14.5-44.5l1,2Z" transform="translate(0 0)"/>
    <path class="cls-4" d="M940.109,449.963s5.546-54.122,8.7-69.024L969.34,500s-8-21-13-30l-2-7Z" transform="translate(0 0)"/>
  </g>
</svg>
