<svg id="Layer_1" data-name="Layer 1" xmlns="http://www.w3.org/2000/svg" viewBox="0 0 1635.75 201">
  <defs>
    <style>
      .cls-1 {
        fill: #4b58ff;
      }

      .cls-2 {
        fill: #fff;
      }

      .cls-3 {
        fill: #e5eaea;
      }

      .cls-4 {
        fill: #1b1f2d;
      }

      .cls-5 {
        fill: none;
        stroke: #4b58ff;
        stroke-miterlimit: 10;
        stroke-width: 4px;
      }
    </style>
  </defs>
  <title>aa5ddbdd-c4ac-419a-8c8b-0e2cb4773828</title>
  <g>
    <g>
      <rect class="cls-1" width="247" height="201" rx="12" ry="12"/>
      <g>
        <path class="cls-2" d="M81.852,66.677h3.232v12.9c0,3.647,2.016,5.983,5.76,5.983s5.728-2.336,5.728-5.983v-12.9H99.8V79.636c0,5.312-2.976,8.768-8.959,8.768s-8.992-3.487-8.992-8.735Z"/>
        <path class="cls-2" d="M104.54,83.892a7.485,7.485,0,0,0,5.184,2.208c2.176,0,3.328-.9,3.328-2.208,0-1.536-1.76-2.048-3.744-2.5-2.624-.608-5.7-1.312-5.7-4.641,0-2.463,2.112-4.575,5.888-4.575a8.271,8.271,0,0,1,5.888,2.208l-1.28,2.016a6.025,6.025,0,0,0-4.576-1.888c-1.952,0-3.168.768-3.168,2.016,0,1.344,1.664,1.792,3.584,2.24,2.688.607,5.887,1.344,5.887,4.9,0,2.655-2.176,4.735-6.239,4.735a8.794,8.794,0,0,1-6.432-2.4Z"/>
        <path class="cls-2" d="M126.267,72.181c4.64,0,7.52,3.616,7.52,8.352v.7H121.564a5.069,5.069,0,0,0,5.248,4.8,6.572,6.572,0,0,0,4.576-1.824l1.344,1.888a8.692,8.692,0,0,1-6.208,2.3,8.116,8.116,0,0,1-.256-16.223Zm-4.736,6.976h9.439a4.572,4.572,0,0,0-4.7-4.607A4.733,4.733,0,0,0,121.531,79.156Z"/>
        <path class="cls-2" d="M137.4,72.564h2.88v2.368a6.565,6.565,0,0,1,5.056-2.72v2.911a4.565,4.565,0,0,0-.992-.1,5.459,5.459,0,0,0-4.064,2.24V88.02H137.4Z"/>
        <path class="cls-2" d="M147.739,73.076a5.035,5.035,0,0,0,2.176-3.008,1.561,1.561,0,0,1-.48.1,1.726,1.726,0,0,1-1.728-1.824,1.966,1.966,0,0,1,1.952-1.983,2.369,2.369,0,0,1,2.24,2.655,6.377,6.377,0,0,1-2.815,5.151Z"/>
        <path class="cls-2" d="M154.876,83.892a7.485,7.485,0,0,0,5.184,2.208c2.176,0,3.328-.9,3.328-2.208,0-1.536-1.76-2.048-3.744-2.5-2.624-.608-5.7-1.312-5.7-4.641,0-2.463,2.112-4.575,5.888-4.575a8.271,8.271,0,0,1,5.888,2.208l-1.28,2.016a6.025,6.025,0,0,0-4.576-1.888c-1.952,0-3.168.768-3.168,2.016,0,1.344,1.664,1.792,3.584,2.24,2.688.607,5.887,1.344,5.887,4.9,0,2.655-2.176,4.735-6.239,4.735A8.794,8.794,0,0,1,153.5,86Z"/>
        <path class="cls-2" d="M84.988,103.149a1.878,1.878,0,0,1,1.856-1.856,1.857,1.857,0,0,1,1.855,1.856,1.83,1.83,0,0,1-1.855,1.823A1.85,1.85,0,0,1,84.988,103.149Zm.448,4.415h2.88V123.02h-2.88Z"/>
        <path class="cls-2" d="M103.322,113.132c0-2.56-1.312-3.392-3.3-3.392a5.52,5.52,0,0,0-4.256,2.24V123.02h-2.88V107.564h2.88v2.176a7.369,7.369,0,0,1,5.472-2.56c3.264,0,4.959,1.728,4.959,4.991V123.02h-2.88Z"/>
        <path class="cls-2" d="M111.355,119.6v-9.5H108.8v-2.528h2.56v-4.224h2.88v4.224h3.136v2.528h-3.136v8.863c0,1.088.512,1.888,1.5,1.888a2.214,2.214,0,0,0,1.568-.608l.736,2.176a4.1,4.1,0,0,1-3.008.992C112.6,123.4,111.355,122.027,111.355,119.6Z"/>
        <path class="cls-2" d="M127.355,107.181c4.64,0,7.52,3.616,7.52,8.352v.7H122.651a5.069,5.069,0,0,0,5.248,4.8,6.572,6.572,0,0,0,4.576-1.824l1.344,1.888a8.692,8.692,0,0,1-6.208,2.3,8.116,8.116,0,0,1-.256-16.223Zm-4.736,6.976h9.439a4.572,4.572,0,0,0-4.7-4.607A4.733,4.733,0,0,0,122.619,114.156Z"/>
        <path class="cls-2" d="M148.922,113.132c0-2.56-1.312-3.392-3.3-3.392a5.52,5.52,0,0,0-4.256,2.24V123.02h-2.88V107.564h2.88v2.176a7.369,7.369,0,0,1,5.472-2.56c3.264,0,4.959,1.728,4.959,4.991V123.02h-2.88Z"/>
        <path class="cls-2" d="M156.955,119.6v-9.5h-2.56v-2.528h2.56v-4.224h2.88v4.224h3.136v2.528h-3.136v8.863c0,1.088.512,1.888,1.5,1.888a2.214,2.214,0,0,0,1.568-.608l.736,2.176a4.1,4.1,0,0,1-3.008.992C158.2,123.4,156.955,122.027,156.955,119.6Z"/>
      </g>
    </g>
    <g>
      <rect class="cls-1" x="347.188" width="247" height="201" rx="12" ry="12"/>
      <g>
        <path class="cls-2" d="M429.04,66.677h3.232v12.9c0,3.647,2.016,5.983,5.76,5.983s5.728-2.336,5.728-5.983v-12.9h3.231V79.636c0,5.312-2.976,8.768-8.959,8.768s-8.992-3.487-8.992-8.735Z"/>
        <path class="cls-2" d="M451.728,83.892a7.485,7.485,0,0,0,5.184,2.208c2.176,0,3.328-.9,3.328-2.208,0-1.536-1.76-2.048-3.744-2.5-2.624-.608-5.7-1.312-5.7-4.641,0-2.463,2.112-4.575,5.888-4.575a8.271,8.271,0,0,1,5.888,2.208L461.3,76.4a6.025,6.025,0,0,0-4.576-1.888c-1.952,0-3.168.768-3.168,2.016,0,1.344,1.664,1.792,3.584,2.24,2.688.607,5.887,1.344,5.887,4.9,0,2.655-2.176,4.735-6.239,4.735a8.794,8.794,0,0,1-6.432-2.4Z"/>
        <path class="cls-2" d="M473.455,72.181c4.64,0,7.52,3.616,7.52,8.352v.7H468.751a5.069,5.069,0,0,0,5.248,4.8,6.572,6.572,0,0,0,4.576-1.824l1.344,1.888a8.692,8.692,0,0,1-6.208,2.3,8.116,8.116,0,0,1-.256-16.223Zm-4.736,6.976h9.439a4.572,4.572,0,0,0-4.7-4.607A4.733,4.733,0,0,0,468.719,79.156Z"/>
        <path class="cls-2" d="M484.591,72.564h2.88v2.368a6.565,6.565,0,0,1,5.056-2.72v2.911a4.565,4.565,0,0,0-.992-.1,5.459,5.459,0,0,0-4.064,2.24V88.02h-2.88Z"/>
        <path class="cls-2" d="M494.927,73.076a5.035,5.035,0,0,0,2.176-3.008,1.561,1.561,0,0,1-.48.1,1.726,1.726,0,0,1-1.728-1.824,1.966,1.966,0,0,1,1.952-1.983,2.369,2.369,0,0,1,2.24,2.655,6.377,6.377,0,0,1-2.815,5.151Z"/>
        <path class="cls-2" d="M502.063,83.892a7.485,7.485,0,0,0,5.184,2.208c2.176,0,3.328-.9,3.328-2.208,0-1.536-1.76-2.048-3.744-2.5-2.624-.608-5.7-1.312-5.7-4.641,0-2.463,2.112-4.575,5.888-4.575a8.271,8.271,0,0,1,5.888,2.208l-1.28,2.016a6.025,6.025,0,0,0-4.576-1.888c-1.952,0-3.168.768-3.168,2.016,0,1.344,1.664,1.792,3.584,2.24,2.688.607,5.887,1.344,5.887,4.9,0,2.655-2.176,4.735-6.239,4.735a8.794,8.794,0,0,1-6.432-2.4Z"/>
        <path class="cls-2" d="M415.967,120.907a7.634,7.634,0,0,1-5.5,2.5c-3.3,0-4.928-1.664-4.928-4.928V107.564h2.88v9.951c0,2.561,1.28,3.328,3.264,3.328a5.586,5.586,0,0,0,4.288-2.176v-11.1h2.88V123.02h-2.88Z"/>
        <path class="cls-2" d="M424,119.6v-9.5h-2.56v-2.528H424v-4.224h2.88v4.224h3.136v2.528h-3.136v8.863c0,1.088.512,1.888,1.5,1.888a2.214,2.214,0,0,0,1.568-.608l.736,2.176a4.1,4.1,0,0,1-3.008.992C425.247,123.4,424,122.027,424,119.6Z"/>
        <path class="cls-2" d="M433.791,119.6v-9.5h-2.56v-2.528h2.56v-4.224h2.88v4.224h3.136v2.528h-3.136v8.863c0,1.088.512,1.888,1.5,1.888a2.214,2.214,0,0,0,1.568-.608l.736,2.176a4.1,4.1,0,0,1-3.008.992C435.039,123.4,433.791,122.027,433.791,119.6Z"/>
        <path class="cls-2" d="M449.791,107.181c4.64,0,7.52,3.616,7.52,8.352v.7H445.087a5.069,5.069,0,0,0,5.248,4.8,6.572,6.572,0,0,0,4.576-1.824l1.344,1.888a8.692,8.692,0,0,1-6.208,2.3,8.116,8.116,0,0,1-.256-16.223Zm-4.736,6.976h9.439a4.572,4.572,0,0,0-4.7-4.607A4.733,4.733,0,0,0,445.055,114.156Z"/>
        <path class="cls-2" d="M460.927,107.564h2.88v2.368a6.565,6.565,0,0,1,5.056-2.72v2.911a4.565,4.565,0,0,0-.992-.1,5.459,5.459,0,0,0-4.064,2.24V123.02h-2.88Z"/>
        <path class="cls-2" d="M481.279,121.323a6.623,6.623,0,0,1-5.056,2.08,5.136,5.136,0,0,1-5.376-5.119c0-3.521,2.784-5.056,5.376-5.056a6.446,6.446,0,0,1,5.056,2.048v-2.561c0-1.919-1.568-3.071-3.776-3.071a6.324,6.324,0,0,0-4.64,2.048l-1.248-1.983a8.687,8.687,0,0,1,6.335-2.528c3.36,0,6.208,1.472,6.208,5.407V123.02h-2.879Zm0-4.319a4.895,4.895,0,0,0-3.968-1.76c-2.08,0-3.552,1.248-3.552,3.071s1.472,3.072,3.552,3.072a4.9,4.9,0,0,0,3.968-1.76Z"/>
        <path class="cls-2" d="M499.2,113.132c0-2.56-1.312-3.392-3.3-3.392a5.52,5.52,0,0,0-4.256,2.24V123.02h-2.88V107.564h2.88v2.176a7.369,7.369,0,0,1,5.472-2.56c3.264,0,4.959,1.728,4.959,4.991V123.02H499.2Z"/>
        <path class="cls-2" d="M513.566,107.181a6.751,6.751,0,0,1,5.792,2.72l-1.92,1.76a4.317,4.317,0,0,0-3.744-1.92c-3.04,0-4.992,2.336-4.992,5.536s1.952,5.567,4.992,5.567a4.391,4.391,0,0,0,3.744-1.92l1.92,1.76a6.751,6.751,0,0,1-5.792,2.72c-4.672,0-7.872-3.487-7.872-8.127S508.894,107.181,513.566,107.181Z"/>
        <path class="cls-2" d="M529.31,107.181c4.64,0,7.52,3.616,7.52,8.352v.7H524.606a5.069,5.069,0,0,0,5.248,4.8,6.572,6.572,0,0,0,4.576-1.824l1.344,1.888a8.692,8.692,0,0,1-6.208,2.3,8.116,8.116,0,0,1-.256-16.223Zm-4.736,6.976h9.439a4.572,4.572,0,0,0-4.7-4.607A4.733,4.733,0,0,0,524.574,114.156Z"/>
      </g>
    </g>
    <g>
      <rect class="cls-3" x="694.375" width="247" height="201" rx="12" ry="12"/>
      <g>
        <path class="cls-4" d="M755.779,77.364a10.687,10.687,0,0,1,10.943-11.039,9.651,9.651,0,0,1,8.479,4.512l-2.72,1.439a6.765,6.765,0,0,0-5.76-3.1c-4.32,0-7.647,3.392-7.647,8.191,0,4.768,3.328,8.191,7.647,8.191a6.765,6.765,0,0,0,5.76-3.1l2.72,1.439a9.691,9.691,0,0,1-8.479,4.512A10.687,10.687,0,0,1,755.779,77.364Z"/>
        <path class="cls-4" d="M777.379,80.276c0-4.448,3.008-8.1,7.808-8.1,4.832,0,7.808,3.647,7.808,8.1,0,4.479-2.976,8.127-7.808,8.127C780.387,88.4,777.379,84.756,777.379,80.276Zm12.607,0c0-2.912-1.7-5.536-4.8-5.536-3.072,0-4.8,2.624-4.8,5.536,0,2.943,1.728,5.567,4.8,5.567C788.29,85.844,789.987,83.22,789.987,80.276Z"/>
        <path class="cls-4" d="M795.683,80.276c0-4.448,3.008-8.1,7.808-8.1,4.832,0,7.808,3.647,7.808,8.1,0,4.479-2.976,8.127-7.808,8.127C798.691,88.4,795.683,84.756,795.683,80.276Zm12.607,0c0-2.912-1.7-5.536-4.8-5.536-3.071,0-4.8,2.624-4.8,5.536,0,2.943,1.729,5.567,4.8,5.567C806.594,85.844,808.29,83.22,808.29,80.276Z"/>
        <path class="cls-4" d="M814.946,93.907V72.564h2.88v2.208a6.3,6.3,0,0,1,5.056-2.592c4.032,0,6.88,3.04,6.88,8.1s-2.848,8.127-6.88,8.127a6.165,6.165,0,0,1-5.056-2.624v8.128Zm7.168-19.167a5.3,5.3,0,0,0-4.288,2.272v6.56a5.38,5.38,0,0,0,4.288,2.271c2.88,0,4.64-2.336,4.64-5.567C826.754,77.076,824.994,74.74,822.114,74.74Z"/>
        <path class="cls-4" d="M840.195,72.181c4.64,0,7.52,3.616,7.52,8.352v.7H835.49a5.069,5.069,0,0,0,5.248,4.8,6.57,6.57,0,0,0,4.575-1.824l1.344,1.888a8.69,8.69,0,0,1-6.207,2.3,8.116,8.116,0,0,1-.256-16.223Zm-4.736,6.976H844.9a4.571,4.571,0,0,0-4.7-4.607A4.733,4.733,0,0,0,835.458,79.156Z"/>
        <path class="cls-4" d="M851.33,72.564h2.88v2.368a6.566,6.566,0,0,1,5.056-2.72v2.911a4.56,4.56,0,0,0-.991-.1,5.459,5.459,0,0,0-4.064,2.24V88.02h-2.88Z"/>
        <path class="cls-4" d="M861.666,73.076a5.031,5.031,0,0,0,2.176-3.008,1.554,1.554,0,0,1-.479.1,1.725,1.725,0,0,1-1.728-1.824,1.966,1.966,0,0,1,1.951-1.983,2.37,2.37,0,0,1,2.24,2.655,6.377,6.377,0,0,1-2.815,5.151Z"/>
        <path class="cls-4" d="M868.8,83.892a7.485,7.485,0,0,0,5.184,2.208c2.176,0,3.327-.9,3.327-2.208,0-1.536-1.76-2.048-3.743-2.5-2.624-.608-5.7-1.312-5.7-4.641,0-2.463,2.112-4.575,5.888-4.575a8.269,8.269,0,0,1,5.888,2.208L878.37,76.4a6.026,6.026,0,0,0-4.576-1.888c-1.952,0-3.168.768-3.168,2.016,0,1.344,1.664,1.792,3.584,2.24,2.688.607,5.888,1.344,5.888,4.9,0,2.655-2.176,4.735-6.239,4.735a8.793,8.793,0,0,1-6.432-2.4Z"/>
        <path class="cls-4" d="M754.547,107.564h2.88v2.368a6.565,6.565,0,0,1,5.056-2.72v2.911a4.565,4.565,0,0,0-.992-.1,5.459,5.459,0,0,0-4.064,2.24V123.02h-2.88Z"/>
        <path class="cls-4" d="M772.147,107.181c4.64,0,7.52,3.616,7.52,8.352v.7H767.443a5.069,5.069,0,0,0,5.248,4.8,6.572,6.572,0,0,0,4.576-1.824l1.344,1.888a8.692,8.692,0,0,1-6.208,2.3,8.116,8.116,0,0,1-.256-16.223Zm-4.736,6.976h9.439a4.572,4.572,0,0,0-4.7-4.607A4.733,4.733,0,0,0,767.411,114.156Z"/>
        <path class="cls-4" d="M783.315,118.892A7.485,7.485,0,0,0,788.5,121.1c2.176,0,3.328-.9,3.328-2.208,0-1.536-1.76-2.048-3.744-2.5-2.624-.608-5.7-1.312-5.7-4.641,0-2.463,2.112-4.575,5.888-4.575a8.27,8.27,0,0,1,5.888,2.208l-1.279,2.016a6.027,6.027,0,0,0-4.576-1.888c-1.952,0-3.168.768-3.168,2.016,0,1.344,1.664,1.792,3.584,2.24,2.688.607,5.888,1.344,5.888,4.9,0,2.655-2.176,4.735-6.24,4.735a8.794,8.794,0,0,1-6.432-2.4Z"/>
        <path class="cls-4" d="M798.259,128.907V107.564h2.88v2.208a6.3,6.3,0,0,1,5.056-2.592c4.031,0,6.879,3.04,6.879,8.1s-2.848,8.127-6.879,8.127a6.165,6.165,0,0,1-5.056-2.624v8.128Zm7.167-19.167a5.292,5.292,0,0,0-4.287,2.272v6.56a5.377,5.377,0,0,0,4.287,2.271c2.88,0,4.64-2.336,4.64-5.567C810.066,112.076,808.306,109.74,805.426,109.74Z"/>
        <path class="cls-4" d="M815.763,115.276c0-4.448,3.008-8.1,7.808-8.1,4.831,0,7.808,3.647,7.808,8.1,0,4.479-2.977,8.127-7.808,8.127C818.771,123.4,815.763,119.756,815.763,115.276Zm12.607,0c0-2.912-1.7-5.536-4.8-5.536-3.072,0-4.8,2.624-4.8,5.536,0,2.943,1.728,5.567,4.8,5.567C826.674,120.844,828.37,118.22,828.37,115.276Z"/>
        <path class="cls-4" d="M845.457,113.132c0-2.56-1.312-3.392-3.295-3.392a5.52,5.52,0,0,0-4.256,2.24V123.02h-2.88V107.564h2.88v2.176a7.367,7.367,0,0,1,5.472-2.56c3.264,0,4.959,1.728,4.959,4.991V123.02h-2.88Z"/>
        <path class="cls-4" d="M852.946,118.892a7.485,7.485,0,0,0,5.184,2.208c2.176,0,3.327-.9,3.327-2.208,0-1.536-1.76-2.048-3.743-2.5-2.624-.608-5.7-1.312-5.7-4.641,0-2.463,2.112-4.575,5.888-4.575a8.269,8.269,0,0,1,5.888,2.208l-1.279,2.016a6.026,6.026,0,0,0-4.576-1.888c-1.952,0-3.168.768-3.168,2.016,0,1.344,1.664,1.792,3.584,2.24,2.688.607,5.888,1.344,5.888,4.9,0,2.655-2.176,4.735-6.239,4.735a8.793,8.793,0,0,1-6.432-2.4Z"/>
        <path class="cls-4" d="M874.673,107.181c4.64,0,7.52,3.616,7.52,8.352v.7H869.97a5.068,5.068,0,0,0,5.247,4.8,6.574,6.574,0,0,0,4.576-1.824l1.344,1.888a8.694,8.694,0,0,1-6.208,2.3,8.116,8.116,0,0,1-.256-16.223Zm-4.735,6.976h9.439a4.573,4.573,0,0,0-4.7-4.607A4.733,4.733,0,0,0,869.938,114.156Z"/>
      </g>
    </g>
    <g>
      <rect class="cls-3" x="1041.563" width="247" height="201" rx="12" ry="12"/>
      <g>
        <path class="cls-4" d="M1132.887,66.677h14.335v2.816h-11.136v6.239H1147v2.815h-10.912V85.2h11.136V88.02h-14.335Z"/>
        <path class="cls-4" d="M1151.158,72.564h2.88v2.368a6.566,6.566,0,0,1,5.056-2.72v2.911a4.56,4.56,0,0,0-.991-.1,5.459,5.459,0,0,0-4.064,2.24V88.02h-2.88Z"/>
        <path class="cls-4" d="M1161.975,72.564h2.88v2.368a6.564,6.564,0,0,1,5.056-2.72v2.911a4.569,4.569,0,0,0-.992-.1,5.459,5.459,0,0,0-4.063,2.24V88.02h-2.88Z"/>
        <path class="cls-4" d="M1171.83,80.276c0-4.448,3.008-8.1,7.808-8.1,4.832,0,7.808,3.647,7.808,8.1,0,4.479-2.976,8.127-7.808,8.127C1174.838,88.4,1171.83,84.756,1171.83,80.276Zm12.607,0c0-2.912-1.7-5.536-4.8-5.536-3.071,0-4.8,2.624-4.8,5.536,0,2.943,1.729,5.567,4.8,5.567C1182.741,85.844,1184.438,83.22,1184.438,80.276Z"/>
        <path class="cls-4" d="M1191.094,72.564h2.88v2.368a6.566,6.566,0,0,1,5.056-2.72v2.911a4.56,4.56,0,0,0-.991-.1,5.459,5.459,0,0,0-4.064,2.24V88.02h-2.88Z"/>
        <path class="cls-4" d="M1105.639,107.564h2.88v2.368a6.566,6.566,0,0,1,5.056-2.72v2.911a4.56,4.56,0,0,0-.991-.1,5.459,5.459,0,0,0-4.064,2.24V123.02h-2.88Z"/>
        <path class="cls-4" d="M1123.238,107.181c4.64,0,7.52,3.616,7.52,8.352v.7h-12.223a5.068,5.068,0,0,0,5.247,4.8,6.574,6.574,0,0,0,4.576-1.824l1.344,1.888a8.694,8.694,0,0,1-6.208,2.3,8.116,8.116,0,0,1-.256-16.223Zm-4.735,6.976h9.439a4.573,4.573,0,0,0-4.7-4.607A4.733,4.733,0,0,0,1118.5,114.156Z"/>
        <path class="cls-4" d="M1141.286,107.181a6.752,6.752,0,0,1,5.792,2.72l-1.92,1.76a4.318,4.318,0,0,0-3.744-1.92c-3.039,0-4.991,2.336-4.991,5.536s1.952,5.567,4.991,5.567a4.391,4.391,0,0,0,3.744-1.92l1.92,1.76a6.752,6.752,0,0,1-5.792,2.72c-4.672,0-7.871-3.487-7.871-8.127S1136.614,107.181,1141.286,107.181Z"/>
        <path class="cls-4" d="M1149.286,115.276c0-4.448,3.008-8.1,7.808-8.1,4.832,0,7.808,3.647,7.808,8.1,0,4.479-2.976,8.127-7.808,8.127C1152.294,123.4,1149.286,119.756,1149.286,115.276Zm12.607,0c0-2.912-1.7-5.536-4.8-5.536-3.071,0-4.8,2.624-4.8,5.536,0,2.943,1.729,5.567,4.8,5.567C1160.2,120.844,1161.894,118.22,1161.894,115.276Z"/>
        <path class="cls-4" d="M1166.279,107.564h3.072l4.831,12.127,4.832-12.127h3.1l-6.367,15.455h-3.1Z"/>
        <path class="cls-4" d="M1191.238,107.181c4.64,0,7.52,3.616,7.52,8.352v.7h-12.223a5.068,5.068,0,0,0,5.247,4.8,6.574,6.574,0,0,0,4.576-1.824l1.344,1.888a8.694,8.694,0,0,1-6.208,2.3,8.116,8.116,0,0,1-.256-16.223Zm-4.735,6.976h9.439a4.573,4.573,0,0,0-4.7-4.607A4.733,4.733,0,0,0,1186.5,114.156Z"/>
        <path class="cls-4" d="M1202.374,107.564h2.88v2.368a6.564,6.564,0,0,1,5.056-2.72v2.911a4.569,4.569,0,0,0-.992-.1,5.459,5.459,0,0,0-4.063,2.24V123.02h-2.88Z"/>
        <path class="cls-4" d="M1214.15,126.731a2.137,2.137,0,0,0,2.24-1.5l.9-2.048-6.367-15.615h3.072l4.831,12.127,4.832-12.127h3.1l-7.615,18.4a4.885,4.885,0,0,1-4.928,3.328,8.327,8.327,0,0,1-1.792-.224l.448-2.592A3.5,3.5,0,0,0,1214.15,126.731Z"/>
      </g>
    </g>
    <g>
      <rect class="cls-3" x="1388.75" width="247" height="201" rx="12" ry="12"/>
      <g>
        <path class="cls-4" d="M1482.81,83.6h-10.463l-1.729,4.416h-3.52l8.479-21.343h4l8.479,21.343h-3.521Zm-9.535-2.848h8.607l-4.32-11.295Z"/>
        <path class="cls-4" d="M1497.466,72.181a6.75,6.75,0,0,1,5.791,2.72l-1.92,1.76a4.317,4.317,0,0,0-3.743-1.92c-3.04,0-4.992,2.336-4.992,5.536s1.952,5.567,4.992,5.567a4.39,4.39,0,0,0,3.743-1.92l1.92,1.76a6.75,6.75,0,0,1-5.791,2.72c-4.672,0-7.872-3.487-7.872-8.127S1492.794,72.181,1497.466,72.181Z"/>
        <path class="cls-4" d="M1507,84.6v-9.5h-2.561V72.564H1507V68.341h2.88v4.224h3.136v2.528h-3.136v8.863c0,1.088.512,1.888,1.5,1.888a2.213,2.213,0,0,0,1.567-.608l.736,2.176a4.1,4.1,0,0,1-3.008.992C1508.25,88.4,1507,87.027,1507,84.6Z"/>
        <path class="cls-4" d="M1515.77,68.149a1.879,1.879,0,0,1,1.856-1.856,1.857,1.857,0,0,1,1.855,1.856,1.83,1.83,0,0,1-1.855,1.823A1.851,1.851,0,0,1,1515.77,68.149Zm.448,4.415h2.88V88.02h-2.88Z"/>
        <path class="cls-4" d="M1522.713,80.276c0-4.448,3.008-8.1,7.808-8.1,4.832,0,7.808,3.647,7.808,8.1,0,4.479-2.976,8.127-7.808,8.127C1525.721,88.4,1522.713,84.756,1522.713,80.276Zm12.607,0c0-2.912-1.7-5.536-4.8-5.536-3.071,0-4.8,2.624-4.8,5.536,0,2.943,1.729,5.567,4.8,5.567C1533.624,85.844,1535.321,83.22,1535.321,80.276Z"/>
        <path class="cls-4" d="M1552.408,78.132c0-2.56-1.312-3.392-3.3-3.392a5.52,5.52,0,0,0-4.256,2.24V88.02h-2.88V72.564h2.88V74.74a7.37,7.37,0,0,1,5.472-2.56c3.264,0,4.96,1.728,4.96,4.991V88.02h-2.88Z"/>
        <path class="cls-4" d="M1475.882,119.6v-9.5h-2.56v-2.528h2.56v-4.224h2.88v4.224h3.136v2.528h-3.136v8.863c0,1.088.512,1.888,1.5,1.888a2.215,2.215,0,0,0,1.568-.608l.735,2.176a4.1,4.1,0,0,1-3.008.992C1477.13,123.4,1475.882,122.027,1475.882,119.6Z"/>
        <path class="cls-4" d="M1494.634,121.323a6.624,6.624,0,0,1-5.056,2.08,5.135,5.135,0,0,1-5.376-5.119c0-3.521,2.784-5.056,5.376-5.056a6.447,6.447,0,0,1,5.056,2.048v-2.561c0-1.919-1.568-3.071-3.776-3.071a6.324,6.324,0,0,0-4.64,2.048l-1.248-1.983a8.688,8.688,0,0,1,6.336-2.528c3.359,0,6.207,1.472,6.207,5.407V123.02h-2.879Zm0-4.319a4.895,4.895,0,0,0-3.968-1.76c-2.08,0-3.552,1.248-3.552,3.071s1.472,3.072,3.552,3.072a4.9,4.9,0,0,0,3.968-1.76Z"/>
        <path class="cls-4" d="M1507.338,116.364,1505,118.731v4.288h-2.88V101.677H1505V115.4l7.455-7.84h3.616l-6.656,7.008,6.72,8.447h-3.647Z"/>
        <path class="cls-4" d="M1524.778,107.181c4.64,0,7.52,3.616,7.52,8.352v.7h-12.223a5.068,5.068,0,0,0,5.247,4.8,6.574,6.574,0,0,0,4.576-1.824l1.344,1.888a8.694,8.694,0,0,1-6.208,2.3,8.116,8.116,0,0,1-.256-16.223Zm-4.735,6.976h9.439a4.573,4.573,0,0,0-4.7-4.607A4.733,4.733,0,0,0,1520.042,114.156Z"/>
        <path class="cls-4" d="M1546.345,113.132c0-2.56-1.312-3.392-3.295-3.392a5.52,5.52,0,0,0-4.256,2.24V123.02h-2.88V107.564h2.88v2.176a7.367,7.367,0,0,1,5.472-2.56c3.264,0,4.959,1.728,4.959,4.991V123.02h-2.88Z"/>
      </g>
    </g>
    <g>
      <line class="cls-5" x1="260.094" y1="107" x2="319.125" y2="107"/>
      <polygon class="cls-1" points="334.094 107 313.001 115.619 318.006 107 313.001 98.383 334.094 107"/>
    </g>
    <g>
      <line class="cls-5" x1="607.281" y1="107" x2="666.313" y2="107"/>
      <polygon class="cls-1" points="681.281 107 660.189 115.619 665.194 107 660.189 98.383 681.281 107"/>
    </g>
    <g>
      <line class="cls-5" x1="954.469" y1="107" x2="1013.5" y2="107"/>
      <polygon class="cls-1" points="1028.469 107 1007.376 115.619 1012.381 107 1007.376 98.383 1028.469 107"/>
    </g>
    <g>
      <line class="cls-5" x1="1301.656" y1="107" x2="1360.688" y2="107"/>
      <polygon class="cls-1" points="1375.656 107 1354.564 115.619 1359.569 107 1354.564 98.383 1375.656 107"/>
    </g>
  </g>
</svg>
