<svg id="Layer_1" data-name="Layer 1" xmlns="http://www.w3.org/2000/svg" viewBox="0 0 534 505">
  <defs>
    <style>
      .cls-1 {
        fill: #4b58ff;
      }

      .cls-2 {
        fill: #fff;
      }

      .cls-3 {
        fill: #e5eaea;
      }

      .cls-4 {
        fill: #39393a;
      }
    </style>
  </defs>
  <title>f38b165f-e4e8-4b8a-88fb-c7b226d5a146</title>
  <g>
    <rect class="cls-1" x="61" width="470" height="147" rx="25.892" ry="25.892"/>
    <g>
      <path class="cls-2" d="M98.041,48.206a8.347,8.347,0,0,1,8.548-8.623,7.54,7.54,0,0,1,6.623,3.524l-2.125,1.125a5.281,5.281,0,0,0-4.5-2.424c-3.375,0-5.974,2.649-5.974,6.4,0,3.724,2.6,6.4,5.974,6.4a5.281,5.281,0,0,0,4.5-2.425l2.125,1.125a7.572,7.572,0,0,1-6.623,3.524A8.347,8.347,0,0,1,98.041,48.206Z"/>
      <path class="cls-2" d="M114.915,50.48a6.1,6.1,0,1,1,12.2,0c0,3.5-2.324,6.348-6.1,6.348C117.265,56.829,114.915,53.979,114.915,50.48Zm9.848,0c0-2.274-1.324-4.324-3.749-4.324-2.4,0-3.749,2.05-3.749,4.324,0,2.3,1.35,4.349,3.749,4.349C123.438,54.829,124.763,52.78,124.763,50.48Z"/>
      <path class="cls-2" d="M129.215,50.48a6.1,6.1,0,1,1,12.2,0c0,3.5-2.324,6.348-6.1,6.348C131.564,56.829,129.215,53.979,129.215,50.48Zm9.848,0c0-2.274-1.324-4.324-3.749-4.324-2.4,0-3.749,2.05-3.749,4.324,0,2.3,1.35,4.349,3.749,4.349C137.738,54.829,139.063,52.78,139.063,50.48Z"/>
      <path class="cls-2" d="M144.265,61.128V44.457h2.249v1.725a4.921,4.921,0,0,1,3.949-2.024c3.149,0,5.374,2.375,5.374,6.324s-2.225,6.348-5.374,6.348a4.817,4.817,0,0,1-3.949-2.049v6.349Zm5.6-14.972a4.136,4.136,0,0,0-3.35,1.774v5.124a4.2,4.2,0,0,0,3.35,1.774c2.249,0,3.624-1.824,3.624-4.349C153.487,47.981,152.112,46.156,149.863,46.156Z"/>
      <path class="cls-2" d="M163.988,44.157c3.624,0,5.873,2.824,5.873,6.523v.55h-9.547a3.958,3.958,0,0,0,4.1,3.749,5.134,5.134,0,0,0,3.574-1.424l1.05,1.475a6.79,6.79,0,0,1-4.849,1.8,6.037,6.037,0,0,1-6.249-6.348A6.071,6.071,0,0,1,163.988,44.157Zm-3.7,5.449h7.373a3.571,3.571,0,0,0-3.674-3.6A3.7,3.7,0,0,0,160.289,49.605Z"/>
      <path class="cls-2" d="M172.689,44.457h2.249v1.85a5.129,5.129,0,0,1,3.949-2.125v2.274a3.547,3.547,0,0,0-.774-.075,4.266,4.266,0,0,0-3.175,1.75v8.4h-2.249Z"/>
      <path class="cls-2" d="M178.664,58.9a3.886,3.886,0,0,0,1.7-2.325c-.05,0-.249.05-.374.05a1.348,1.348,0,0,1-1.351-1.425,1.515,1.515,0,0,1,1.525-1.524,1.85,1.85,0,0,1,1.749,2.074,5.056,5.056,0,0,1-2.2,4.024Z"/>
      <path class="cls-2" d="M198.937,47.256l-2.975,9.273h-2.324l-3.8-12.072h2.35l2.749,9.2,3.024-9.2h1.949l3.024,9.2,2.749-9.2h2.35l-3.8,12.072h-2.324Z"/>
      <path class="cls-2" d="M218.187,48.756c0-2-1.025-2.6-2.575-2.6a4.315,4.315,0,0,0-3.324,1.75v8.623h-2.249V39.858h2.249v6.3a5.8,5.8,0,0,1,4.274-2c2.574,0,3.874,1.3,3.874,3.849v8.523h-2.249Z"/>
      <path class="cls-2" d="M231.486,55.2a5.175,5.175,0,0,1-3.949,1.625,4.012,4.012,0,0,1-4.2-4,3.9,3.9,0,0,1,4.2-3.949,5.035,5.035,0,0,1,3.949,1.6v-2c0-1.5-1.225-2.4-2.949-2.4a4.938,4.938,0,0,0-3.624,1.6l-.975-1.55a6.785,6.785,0,0,1,4.948-1.975c2.625,0,4.849,1.15,4.849,4.224v8.148h-2.249Zm0-3.374a3.824,3.824,0,0,0-3.1-1.375,2.425,2.425,0,1,0,0,4.8,3.824,3.824,0,0,0,3.1-1.375Z"/>
      <path class="cls-2" d="M237.788,53.854V46.431h-2V44.457h2v-3.3h2.249v3.3h2.449v1.975h-2.449v6.923c0,.85.4,1.475,1.175,1.475a1.73,1.73,0,0,0,1.225-.475l.575,1.7a3.2,3.2,0,0,1-2.35.775C238.763,56.829,237.788,55.754,237.788,53.854Z"/>
      <path class="cls-2" d="M251.088,41.008a1.467,1.467,0,0,1,1.449-1.45,1.451,1.451,0,0,1,1.45,1.45,1.43,1.43,0,0,1-1.45,1.424A1.445,1.445,0,0,1,251.088,41.008Zm.35,3.449h2.249V56.529h-2.249Z"/>
      <path class="cls-2" d="M257.287,53.3a5.85,5.85,0,0,0,4.049,1.725c1.7,0,2.6-.7,2.6-1.725,0-1.2-1.375-1.6-2.924-1.95-2.05-.475-4.449-1.025-4.449-3.624,0-1.924,1.649-3.574,4.6-3.574a6.461,6.461,0,0,1,4.6,1.725l-1,1.575a4.708,4.708,0,0,0-3.574-1.475c-1.525,0-2.475.6-2.475,1.575,0,1.05,1.3,1.4,2.8,1.75,2.1.475,4.6,1.05,4.6,3.824,0,2.074-1.7,3.7-4.874,3.7a6.866,6.866,0,0,1-5.023-1.875Z"/>
      <path class="cls-2" d="M275.861,53.854V46.431h-2V44.457h2v-3.3h2.25v3.3h2.449v1.975h-2.449v6.923c0,.85.4,1.475,1.175,1.475a1.732,1.732,0,0,0,1.225-.475l.574,1.7a3.2,3.2,0,0,1-2.35.775C276.836,56.829,275.861,55.754,275.861,53.854Z"/>
      <path class="cls-2" d="M291.21,48.756c0-2-1.025-2.6-2.575-2.6a4.315,4.315,0,0,0-3.324,1.75v8.623h-2.249V39.858h2.249v6.3a5.8,5.8,0,0,1,4.274-2c2.574,0,3.874,1.3,3.874,3.849v8.523H291.21Z"/>
      <path class="cls-2" d="M302.36,44.157c3.624,0,5.873,2.824,5.873,6.523v.55h-9.547a3.958,3.958,0,0,0,4.1,3.749,5.134,5.134,0,0,0,3.574-1.424l1.05,1.475a6.79,6.79,0,0,1-4.849,1.8,6.037,6.037,0,0,1-6.249-6.348A6.071,6.071,0,0,1,302.36,44.157Zm-3.7,5.449h7.373a3.571,3.571,0,0,0-3.674-3.6A3.7,3.7,0,0,0,298.661,49.605Z"/>
      <path class="cls-2" d="M317.562,39.858h7.823c2.974,0,4.7,1.825,4.7,4.249a3.77,3.77,0,0,1-2.9,3.824,4.122,4.122,0,0,1,3.225,4.1c0,2.625-1.75,4.5-4.824,4.5h-8.022Zm7.348,7.073a2.442,2.442,0,1,0,0-4.874h-4.849v4.874Zm.125,7.4a2.506,2.506,0,0,0,2.8-2.624,2.544,2.544,0,0,0-2.8-2.574h-4.974v5.2Z"/>
      <path class="cls-2" d="M333.511,39.858h7.023a5.128,5.128,0,1,1,0,10.248h-4.523v6.423h-2.5Zm6.7,2.2h-4.2v5.849h4.2a2.928,2.928,0,1,0,0-5.849Z"/>
      <path class="cls-2" d="M362.782,43.282l-5.4,13.247h-1.05l-5.4-13.247V56.529h-2.5V39.858h3.574l4.849,11.972,4.849-11.972h3.574V56.529h-2.5Z"/>
      <path class="cls-2" d="M374.636,50.48a6.1,6.1,0,1,1,12.2,0c0,3.5-2.324,6.348-6.1,6.348C376.984,56.829,374.636,53.979,374.636,50.48Zm9.848,0c0-2.274-1.325-4.324-3.749-4.324-2.4,0-3.75,2.05-3.75,4.324,0,2.3,1.351,4.349,3.75,4.349C383.158,54.829,384.483,52.78,384.483,50.48Z"/>
      <path class="cls-2" d="M397.833,48.806c0-2-1.024-2.649-2.574-2.649a4.313,4.313,0,0,0-3.324,1.75v8.623h-2.25V44.457h2.25v1.7a5.756,5.756,0,0,1,4.273-2c2.55,0,3.874,1.35,3.874,3.9v8.473h-2.249Z"/>
      <path class="cls-2" d="M410.56,53.854V46.431h-2V44.457h2v-3.3h2.249v3.3h2.449v1.975h-2.449v6.923c0,.85.4,1.475,1.175,1.475a1.73,1.73,0,0,0,1.225-.475l.575,1.7a3.2,3.2,0,0,1-2.35.775C411.534,56.829,410.56,55.754,410.56,53.854Z"/>
      <path class="cls-2" d="M425.907,48.756c0-2-1.024-2.6-2.574-2.6a4.313,4.313,0,0,0-3.324,1.75v8.623h-2.25V39.858h2.25v6.3a5.8,5.8,0,0,1,4.273-2c2.575,0,3.874,1.3,3.874,3.849v8.523h-2.249Z"/>
      <path class="cls-2" d="M437.058,44.157c3.624,0,5.874,2.824,5.874,6.523v.55h-9.548a3.959,3.959,0,0,0,4.1,3.749,5.13,5.13,0,0,0,3.574-1.424l1.05,1.475a6.789,6.789,0,0,1-4.849,1.8,6.037,6.037,0,0,1-6.248-6.348A6.071,6.071,0,0,1,437.058,44.157Zm-3.7,5.449h7.374a3.572,3.572,0,0,0-3.675-3.6A3.7,3.7,0,0,0,433.358,49.605Z"/>
      <path class="cls-2" d="M113.362,83.481c0-1.4-.625-2.325-2.1-2.325a3.89,3.89,0,0,0-3,1.725v8.648h-2.249V83.481c0-1.4-.6-2.325-2.125-2.325a3.948,3.948,0,0,0-2.949,1.75v8.623H98.69V79.457h2.249v1.7a5.227,5.227,0,0,1,3.9-2,3.119,3.119,0,0,1,3.274,2.25,5.063,5.063,0,0,1,4.074-2.25c2.224,0,3.424,1.225,3.424,3.649v8.723h-2.249Z"/>
      <path class="cls-2" d="M124.489,79.157c3.624,0,5.873,2.824,5.873,6.523v.55h-9.547a3.958,3.958,0,0,0,4.1,3.749,5.134,5.134,0,0,0,3.574-1.424l1.05,1.475a6.79,6.79,0,0,1-4.849,1.8,6.34,6.34,0,0,1-.2-12.672Zm-3.7,5.449h7.373a3.571,3.571,0,0,0-3.674-3.6A3.7,3.7,0,0,0,120.79,84.605Z"/>
      <path class="cls-2" d="M133.641,88.854V81.431h-2V79.457h2v-3.3h2.249v3.3h2.449v1.975H135.89v6.923c0,.85.4,1.475,1.175,1.475a1.73,1.73,0,0,0,1.225-.475l.575,1.7a3.2,3.2,0,0,1-2.35.775C134.615,91.829,133.641,90.754,133.641,88.854Z"/>
      <path class="cls-2" d="M140.84,79.457h2.25v1.85a5.129,5.129,0,0,1,3.949-2.125v2.274a3.563,3.563,0,0,0-.775-.075,4.264,4.264,0,0,0-3.174,1.75v8.4h-2.25Z"/>
      <path class="cls-2" d="M148.54,85.48a6.1,6.1,0,1,1,12.2,0c0,3.5-2.324,6.348-6.1,6.348C150.89,91.829,148.54,88.979,148.54,85.48Zm9.848,0c0-2.274-1.324-4.324-3.749-4.324-2.4,0-3.749,2.05-3.749,4.324,0,2.3,1.35,4.349,3.749,4.349C157.063,89.829,158.388,87.78,158.388,85.48Z"/>
      <path class="cls-2" d="M171.738,83.806c0-2-1.025-2.649-2.575-2.649a4.315,4.315,0,0,0-3.324,1.75v8.623H163.59V79.457h2.249v1.7a5.757,5.757,0,0,1,4.274-2c2.55,0,3.874,1.35,3.874,3.9v8.473h-2.249Z"/>
      <path class="cls-2" d="M176.814,85.48a6.1,6.1,0,1,1,12.2,0c0,3.5-2.324,6.348-6.1,6.348C179.164,91.829,176.814,88.979,176.814,85.48Zm9.848,0c0-2.274-1.324-4.324-3.749-4.324-2.4,0-3.749,2.05-3.749,4.324,0,2.3,1.35,4.349,3.749,4.349C185.338,89.829,186.662,87.78,186.662,85.48Z"/>
      <path class="cls-2" d="M206.536,83.481c0-1.4-.625-2.325-2.1-2.325a3.89,3.89,0,0,0-3,1.725v8.648h-2.249V83.481c0-1.4-.6-2.325-2.125-2.325a3.948,3.948,0,0,0-2.949,1.75v8.623h-2.249V79.457h2.249v1.7a5.227,5.227,0,0,1,3.9-2,3.119,3.119,0,0,1,3.274,2.25,5.063,5.063,0,0,1,4.074-2.25c2.224,0,3.424,1.225,3.424,3.649v8.723h-2.249Z"/>
      <path class="cls-2" d="M217.663,79.157c3.624,0,5.873,2.824,5.873,6.523v.55h-9.547a3.958,3.958,0,0,0,4.1,3.749,5.134,5.134,0,0,0,3.574-1.424l1.05,1.475a6.79,6.79,0,0,1-4.849,1.8,6.34,6.34,0,0,1-.2-12.672Zm-3.7,5.449h7.373a3.571,3.571,0,0,0-3.674-3.6A3.7,3.7,0,0,0,213.964,84.605Z"/>
      <path class="cls-2" d="M232.813,79.457h2.25v1.85a5.129,5.129,0,0,1,3.949-2.125v2.274a3.563,3.563,0,0,0-.775-.075,4.264,4.264,0,0,0-3.174,1.75v8.4h-2.25Z"/>
      <path class="cls-2" d="M240.914,76.008a1.467,1.467,0,0,1,1.449-1.45,1.451,1.451,0,0,1,1.45,1.45,1.43,1.43,0,0,1-1.45,1.424A1.445,1.445,0,0,1,240.914,76.008Zm.35,3.449h2.249V91.529h-2.249Z"/>
      <path class="cls-2" d="M248.063,92.979a4.709,4.709,0,0,0,3.874,1.6c1.874,0,3.749-.9,3.749-3.449V89.554a5.089,5.089,0,0,1-3.975,2.075c-3.124,0-5.373-2.3-5.373-6.249,0-3.874,2.249-6.224,5.373-6.224a4.928,4.928,0,0,1,3.975,2.05v-1.75h2.249v11.6c0,4.149-3.024,5.374-6,5.374a6.489,6.489,0,0,1-4.949-1.8Zm7.623-10.048a4.21,4.21,0,0,0-3.35-1.774c-2.249,0-3.649,1.75-3.649,4.224,0,2.5,1.4,4.249,3.649,4.249a4.231,4.231,0,0,0,3.35-1.8Z"/>
      <path class="cls-2" d="M269.661,83.756c0-2-1.024-2.6-2.574-2.6a4.313,4.313,0,0,0-3.324,1.75v8.623h-2.25V74.858h2.25v6.3a5.8,5.8,0,0,1,4.273-2c2.575,0,3.874,1.3,3.874,3.849v8.523h-2.249Z"/>
      <path class="cls-2" d="M275.963,88.854V81.431h-2V79.457h2v-3.3h2.25v3.3h2.449v1.975h-2.449v6.923c0,.85.4,1.475,1.175,1.475a1.732,1.732,0,0,0,1.225-.475l.574,1.7a3.2,3.2,0,0,1-2.35.775C276.938,91.829,275.963,90.754,275.963,88.854Z"/>
      <path class="cls-2" d="M297.761,83.806c0-2-1.024-2.649-2.574-2.649a4.313,4.313,0,0,0-3.324,1.75v8.623h-2.25V79.457h2.25v1.7a5.756,5.756,0,0,1,4.273-2c2.55,0,3.874,1.35,3.874,3.9v8.473h-2.249Z"/>
      <path class="cls-2" d="M302.838,85.48a6.1,6.1,0,1,1,12.2,0c0,3.5-2.324,6.348-6.1,6.348C305.187,91.829,302.838,88.979,302.838,85.48Zm9.848,0c0-2.274-1.325-4.324-3.749-4.324-2.4,0-3.75,2.05-3.75,4.324,0,2.3,1.351,4.349,3.75,4.349C311.36,89.829,312.686,87.78,312.686,85.48Z"/>
      <path class="cls-2" d="M325.386,82.256l-2.975,9.273h-2.324l-3.8-12.072h2.35l2.75,9.2,3.023-9.2h1.95l3.024,9.2,2.749-9.2h2.35l-3.8,12.072h-2.324Z"/>
      <path class="cls-2" d="M340.985,81.356c1-.7,1.925-1.325,1.925-2.475,0-1.1-.85-2.049-2.649-2.049a4.419,4.419,0,0,0-3.724,1.9l-1.45-1.6a6.652,6.652,0,0,1,5.424-2.524c3.1,0,4.974,1.7,4.974,3.9,0,2.075-1.425,3.1-2.724,4-1,.725-1.925,1.35-1.925,2.4a1.689,1.689,0,0,0,.6,1.175l-1.85.7a2.808,2.808,0,0,1-.925-2.1C338.661,83.006,339.861,82.156,340.985,81.356Zm-.7,7.323a1.579,1.579,0,0,1,1.574,1.549,1.6,1.6,0,0,1-1.574,1.575,1.579,1.579,0,0,1-1.55-1.575A1.558,1.558,0,0,1,340.286,88.68Z"/>
    </g>
    <rect class="cls-3" y="174" width="371" height="89" rx="25.892" ry="25.892"/>
    <rect class="cls-1" x="163" y="297" width="371" height="89" rx="25.892" ry="25.892"/>
    <g>
      <path class="cls-4" d="M37.74,207.858h2.5v16.671h-2.5Z"/>
      <path class="cls-4" d="M44.365,221.854v-7.423h-2v-1.975h2v-3.3h2.249v3.3h2.449v1.975H46.614v6.923c0,.85.4,1.475,1.175,1.475a1.73,1.73,0,0,0,1.225-.475l.575,1.7a3.2,3.2,0,0,1-2.35.775C45.34,224.829,44.365,223.754,44.365,221.854Z"/>
      <path class="cls-4" d="M57.665,209.008a1.467,1.467,0,0,1,1.449-1.45,1.451,1.451,0,0,1,1.45,1.45,1.43,1.43,0,0,1-1.45,1.424A1.445,1.445,0,0,1,57.665,209.008Zm.35,3.449h2.249v12.072H58.015Z"/>
      <path class="cls-4" d="M63.864,221.3a5.85,5.85,0,0,0,4.049,1.725c1.7,0,2.6-.7,2.6-1.725,0-1.2-1.375-1.6-2.924-1.95-2.05-.475-4.449-1.025-4.449-3.624,0-1.924,1.649-3.574,4.6-3.574a6.461,6.461,0,0,1,4.6,1.725l-1,1.575a4.708,4.708,0,0,0-3.574-1.475c-1.525,0-2.475.6-2.475,1.575,0,1.05,1.3,1.4,2.8,1.75,2.1.475,4.6,1.05,4.6,3.824,0,2.074-1.7,3.7-4.874,3.7a6.866,6.866,0,0,1-5.023-1.875Z"/>
      <path class="cls-4" d="M89.437,223.2a5.173,5.173,0,0,1-3.948,1.625,4.011,4.011,0,0,1-4.2-4,3.9,3.9,0,0,1,4.2-3.949,5.034,5.034,0,0,1,3.948,1.6v-2c0-1.5-1.225-2.4-2.949-2.4a4.942,4.942,0,0,0-3.624,1.6l-.975-1.55a6.786,6.786,0,0,1,4.949-1.975c2.624,0,4.849,1.15,4.849,4.224v8.148h-2.25Zm0-3.374a3.823,3.823,0,0,0-3.1-1.375,2.425,2.425,0,1,0,0,4.8,3.823,3.823,0,0,0,3.1-1.375Z"/>
      <path class="cls-4" d="M95.738,221.854v-7.423h-2v-1.975h2v-3.3h2.25v3.3h2.449v1.975H97.988v6.923c0,.85.4,1.475,1.175,1.475a1.732,1.732,0,0,0,1.225-.475l.574,1.7a3.2,3.2,0,0,1-2.35.775C96.713,224.829,95.738,223.754,95.738,221.854Z"/>
      <path class="cls-4" d="M112.213,211.132l-2.7,2.825-1.475-1.525,4.475-4.574h2.2v16.671h-2.5Z"/>
      <path class="cls-4" d="M117.863,222.554c6.248-4.8,9.122-7.3,9.122-9.922,0-1.95-1.624-2.8-3.249-2.8a5.721,5.721,0,0,0-4.523,2.049l-1.475-1.625a7.62,7.62,0,0,1,5.974-2.649c3,0,5.823,1.7,5.823,5.024,0,3.249-3.124,6.173-7.7,9.7h7.773v2.2H117.863Z"/>
      <path class="cls-4" d="M139.012,207.608c4.623,0,6.522,4.474,6.522,8.6s-1.9,8.623-6.522,8.623-6.523-4.5-6.523-8.623S134.388,207.608,139.012,207.608Zm0,2.225c-2.95,0-3.975,3.124-3.975,6.374s1.024,6.4,3.975,6.4,3.974-3.149,3.974-6.4S141.961,209.833,139.012,209.833Z"/>
      <path class="cls-4" d="M154.987,207.858h7.823c2.975,0,4.7,1.825,4.7,4.249a3.77,3.77,0,0,1-2.9,3.824,4.121,4.121,0,0,1,3.224,4.1c0,2.625-1.749,4.5-4.823,4.5h-8.023Zm7.349,7.073a2.442,2.442,0,1,0,0-4.874h-4.849v4.874Zm.125,7.4a2.505,2.505,0,0,0,2.8-2.624,2.543,2.543,0,0,0-2.8-2.574h-4.974v5.2Z"/>
      <path class="cls-4" d="M170.938,207.858h7.023a5.128,5.128,0,1,1,0,10.248h-4.524v6.423h-2.5Zm6.7,2.2h-4.2v5.849h4.2a2.928,2.928,0,1,0,0-5.849Z"/>
      <path class="cls-4" d="M200.208,211.282l-5.4,13.247h-1.05l-5.4-13.247v13.247h-2.5V207.858h3.574l4.849,11.972,4.849-11.972h3.574v16.671h-2.5Z"/>
      <path class="cls-4" d="M207.512,221.68a1.579,1.579,0,0,1,1.574,1.549,1.6,1.6,0,0,1-1.574,1.575,1.579,1.579,0,0,1-1.55-1.575A1.558,1.558,0,0,1,207.512,221.68Z"/>
    </g>
    <g>
      <path class="cls-2" d="M199.087,333.282l-5.4,13.247h-1.05l-5.4-13.247v13.247h-2.5V329.858h3.574l4.849,11.972,4.849-11.972h3.574v16.671h-2.5Z"/>
      <path class="cls-2" d="M212.688,345.2a5.175,5.175,0,0,1-3.949,1.625,4.012,4.012,0,0,1-4.2-4,3.9,3.9,0,0,1,4.2-3.949,5.035,5.035,0,0,1,3.949,1.6v-2c0-1.5-1.225-2.4-2.949-2.4a4.938,4.938,0,0,0-3.624,1.6l-.975-1.55a6.785,6.785,0,0,1,4.948-1.975c2.625,0,4.849,1.15,4.849,4.224v8.148h-2.249Zm0-3.374a3.824,3.824,0,0,0-3.1-1.375,2.425,2.425,0,1,0,0,4.8,3.824,3.824,0,0,0,3.1-1.375Z"/>
      <path class="cls-2" d="M222.614,341.33l-1.825,1.85v3.349H218.54V329.858h2.249V340.58l5.824-6.124h2.824l-5.2,5.474,5.249,6.6h-2.85Z"/>
      <path class="cls-2" d="M236.238,334.157c3.624,0,5.874,2.824,5.874,6.523v.55h-9.548a3.959,3.959,0,0,0,4.1,3.749,5.13,5.13,0,0,0,3.574-1.424l1.05,1.475a6.789,6.789,0,0,1-4.849,1.8,6.34,6.34,0,0,1-.2-12.672Zm-3.7,5.449h7.374a3.572,3.572,0,0,0-3.675-3.6A3.7,3.7,0,0,0,232.539,339.605Z"/>
      <path class="cls-2" d="M251.84,343.854v-7.423h-2v-1.975h2v-3.3h2.249v3.3h2.449v1.975h-2.449v6.923c0,.85.4,1.475,1.175,1.475a1.73,1.73,0,0,0,1.225-.475l.575,1.7a3.2,3.2,0,0,1-2.35.775C252.814,346.829,251.84,345.754,251.84,343.854Z"/>
      <path class="cls-2" d="M267.188,338.756c0-2-1.024-2.6-2.574-2.6a4.313,4.313,0,0,0-3.324,1.75v8.623h-2.25V329.858h2.25v6.3a5.8,5.8,0,0,1,4.273-2c2.575,0,3.874,1.3,3.874,3.849v8.523h-2.249Z"/>
      <path class="cls-2" d="M280.487,345.2a5.173,5.173,0,0,1-3.948,1.625,4.011,4.011,0,0,1-4.2-4,3.9,3.9,0,0,1,4.2-3.949,5.034,5.034,0,0,1,3.948,1.6v-2c0-1.5-1.225-2.4-2.949-2.4a4.942,4.942,0,0,0-3.624,1.6l-.975-1.55a6.786,6.786,0,0,1,4.949-1.975c2.624,0,4.849,1.15,4.849,4.224v8.148h-2.25Zm0-3.374a3.823,3.823,0,0,0-3.1-1.375,2.425,2.425,0,1,0,0,4.8,3.823,3.823,0,0,0,3.1-1.375Z"/>
      <path class="cls-2" d="M286.789,343.854v-7.423h-2v-1.975h2v-3.3h2.25v3.3h2.449v1.975h-2.449v6.923c0,.85.4,1.475,1.175,1.475a1.732,1.732,0,0,0,1.225-.475l.574,1.7a3.2,3.2,0,0,1-2.35.775C287.764,346.829,286.789,345.754,286.789,343.854Z"/>
      <path class="cls-2" d="M303.264,333.132l-2.7,2.825-1.475-1.525,4.475-4.574h2.2v16.671h-2.5Z"/>
      <path class="cls-2" d="M315.287,329.608c4.624,0,6.523,4.474,6.523,8.6s-1.9,8.623-6.523,8.623-6.523-4.5-6.523-8.623S310.663,329.608,315.287,329.608Zm0,2.225c-2.949,0-3.974,3.124-3.974,6.374s1.024,6.4,3.974,6.4,3.974-3.149,3.974-6.4S318.236,331.833,315.287,331.833Z"/>
      <path class="cls-2" d="M330.638,329.608c4.623,0,6.522,4.474,6.522,8.6s-1.9,8.623-6.522,8.623-6.523-4.5-6.523-8.623S326.014,329.608,330.638,329.608Zm0,2.225c-2.95,0-3.975,3.124-3.975,6.374s1.024,6.4,3.975,6.4,3.974-3.149,3.974-6.4S333.587,331.833,330.638,331.833Z"/>
      <path class="cls-2" d="M346.613,329.858h7.823c2.975,0,4.7,1.825,4.7,4.249a3.77,3.77,0,0,1-2.9,3.824,4.121,4.121,0,0,1,3.224,4.1c0,2.625-1.749,4.5-4.823,4.5h-8.023Zm7.349,7.073a2.442,2.442,0,1,0,0-4.874h-4.849v4.874Zm.125,7.4a2.505,2.505,0,0,0,2.8-2.624,2.543,2.543,0,0,0-2.8-2.574h-4.974v5.2Z"/>
      <path class="cls-2" d="M362.563,329.858h7.023a5.128,5.128,0,1,1,0,10.248h-4.524v6.423h-2.5Zm6.7,2.2h-4.2v5.849h4.2a2.928,2.928,0,1,0,0-5.849Z"/>
      <path class="cls-2" d="M391.834,333.282l-5.4,13.247h-1.05l-5.4-13.247v13.247h-2.5V329.858h3.574l4.849,11.972,4.849-11.972h3.574v16.671h-2.5Z"/>
      <path class="cls-2" d="M399.138,343.68a1.579,1.579,0,0,1,1.574,1.549,1.6,1.6,0,0,1-1.574,1.575,1.579,1.579,0,0,1-1.55-1.575A1.558,1.558,0,0,1,399.138,343.68Z"/>
    </g>
    <g>
      <path class="cls-4" d="M44.136,419.647a5.5,5.5,0,0,1,5.3,3.153l-1.8.684a3.76,3.76,0,0,0-3.59-2.147,5.4,5.4,0,0,0-5.11,5.718,3.819,3.819,0,0,0,4.084,4.008,4.645,4.645,0,0,0,3.268-1.444l1.444,1.026a6.449,6.449,0,0,1-4.826,2.109c-3.4,0-5.945-2.2-5.945-5.585A7.255,7.255,0,0,1,44.136,419.647Z"/>
      <path class="cls-4" d="M54.643,423.123a3.948,3.948,0,0,1,4.313,4.1,5.38,5.38,0,0,1-5.187,5.528,3.923,3.923,0,0,1-4.293-4.1A5.376,5.376,0,0,1,54.643,423.123Zm-.038,1.52c-1.956,0-3.343,1.938-3.343,3.932a2.412,2.412,0,0,0,2.564,2.66c1.956,0,3.344-1.918,3.344-3.932A2.422,2.422,0,0,0,54.6,424.643Z"/>
      <path class="cls-4" d="M65.511,423.123a3.948,3.948,0,0,1,4.313,4.1,5.38,5.38,0,0,1-5.187,5.528,3.923,3.923,0,0,1-4.293-4.1A5.375,5.375,0,0,1,65.511,423.123Zm-.038,1.52c-1.957,0-3.344,1.938-3.344,3.932a2.412,2.412,0,0,0,2.564,2.66c1.957,0,3.344-1.918,3.344-3.932A2.421,2.421,0,0,0,65.473,424.643Z"/>
      <path class="cls-4" d="M71.8,436.022H70.09L72.9,423.351h1.71l-.3,1.273a3.743,3.743,0,0,1,2.964-1.5c2.089,0,3.533,1.387,3.533,3.8,0,2.906-1.824,5.832-4.825,5.832a3.594,3.594,0,0,1-3.116-1.615Zm4.807-11.379a3.333,3.333,0,0,0-2.622,1.444l-.836,3.8a2.926,2.926,0,0,0,2.6,1.349c1.938,0,3.249-1.937,3.249-3.989A2.364,2.364,0,0,0,76.606,424.643Z"/>
      <path class="cls-4" d="M87.341,423.123a3.809,3.809,0,0,1,4.009,4.046,5.968,5.968,0,0,1-.171,1.33H83.9a2.176,2.176,0,0,0-.038.38c0,1.235.988,2.47,2.964,2.47a4.261,4.261,0,0,0,2.546-.836l.551,1.2a5.586,5.586,0,0,1-3.211,1.045c-2.83,0-4.559-1.6-4.559-4.084A5.351,5.351,0,0,1,87.341,423.123Zm2.47,3.837a2.362,2.362,0,0,0-2.6-2.432,3.325,3.325,0,0,0-3.135,2.736h5.719A1.477,1.477,0,0,0,89.811,426.96Z"/>
      <path class="cls-4" d="M94.467,423.351h1.71l-.323,1.349a4.107,4.107,0,0,1,3.362-1.558l-.38,1.729a4.448,4.448,0,0,0-.76-.076,3.483,3.483,0,0,0-2.546,1.387l-1.387,6.345h-1.71Z"/>
      <path class="cls-4" d="M104.688,436.022h-1.71l2.812-12.671h1.71l-.3,1.273a3.743,3.743,0,0,1,2.964-1.5c2.089,0,3.533,1.387,3.533,3.8,0,2.906-1.824,5.832-4.825,5.832a3.594,3.594,0,0,1-3.116-1.615Zm4.807-11.379a3.333,3.333,0,0,0-2.622,1.444l-.836,3.8a2.926,2.926,0,0,0,2.6,1.349c1.938,0,3.249-1.937,3.249-3.989A2.364,2.364,0,0,0,109.5,424.643Z"/>
      <path class="cls-4" d="M117.476,419.856h1.709l-2.792,12.671h-1.71Z"/>
      <path class="cls-4" d="M127.677,423.351h1.71l-2.032,9.176h-1.71l.285-1.273a3.682,3.682,0,0,1-2.945,1.5c-2.09,0-3.533-1.368-3.533-3.78,0-2.926,1.8-5.852,4.825-5.852a3.591,3.591,0,0,1,3.115,1.615Zm-4.027,7.884a3.328,3.328,0,0,0,2.6-1.425l.855-3.8a2.938,2.938,0,0,0-2.6-1.368c-1.938,0-3.249,1.938-3.249,4.008A2.338,2.338,0,0,0,123.649,431.235Z"/>
      <path class="cls-4" d="M130.357,434.692c.494,0,.854-.209,1.292-.854l.816-1.254-1.69-9.233h1.767l1.254,7.2,4.483-7.2h1.9l-6.953,10.923a3.418,3.418,0,0,1-3.059,1.976,4.04,4.04,0,0,1-1.311-.209l.589-1.52A2.356,2.356,0,0,0,130.357,434.692Z"/>
      <path class="cls-4" d="M140.218,429.943a4.015,4.015,0,0,0,3.1,1.444c1.178,0,1.881-.684,1.881-1.425,0-.7-.912-1.045-1.937-1.425-1.312-.494-2.85-1.064-2.85-2.527,0-1.52,1.272-2.888,3.571-2.888a4.7,4.7,0,0,1,3.609,1.5l-.931,1.121a3.529,3.529,0,0,0-2.735-1.234c-1.141,0-1.8.532-1.8,1.234,0,.627.873.95,1.861,1.33,1.349.494,2.926,1.064,2.926,2.622,0,1.615-1.349,3.059-3.705,3.059a5.178,5.178,0,0,1-4.027-1.634Z"/>
      <path class="cls-4" d="M154.125,430.418l1.235-5.585h-1.52l.342-1.482h1.52l.551-2.507h1.71l-.551,2.507h1.861l-.342,1.482H157.07l-1.141,5.205a1.961,1.961,0,0,0-.037.361c0,.532.3.835.911.835a1.492,1.492,0,0,0,.817-.266l.133,1.368a2.328,2.328,0,0,1-1.406.418c-1.387,0-2.279-.551-2.279-1.767A3.912,3.912,0,0,1,154.125,430.418Z"/>
      <path class="cls-4" d="M166.626,426.638a3.362,3.362,0,0,0,.1-.608c0-.988-.779-1.387-1.8-1.387a4.019,4.019,0,0,0-2.641,1.349l-1.425,6.535h-1.71l2.793-12.671h1.709l-1.063,4.787a4.761,4.761,0,0,1,3.191-1.52c1.672,0,2.773.836,2.773,2.3a5.518,5.518,0,0,1-.095.76l-1.406,6.345h-1.709Z"/>
      <path class="cls-4" d="M175.329,423.123a3.809,3.809,0,0,1,4.008,4.046,5.968,5.968,0,0,1-.171,1.33h-7.275a2.085,2.085,0,0,0-.038.38c0,1.235.987,2.47,2.963,2.47a4.257,4.257,0,0,0,2.546-.836l.551,1.2a5.586,5.586,0,0,1-3.21,1.045c-2.831,0-4.56-1.6-4.56-4.084A5.351,5.351,0,0,1,175.329,423.123Zm2.47,3.837a2.362,2.362,0,0,0-2.6-2.432,3.324,3.324,0,0,0-3.135,2.736h5.718A1.4,1.4,0,0,0,177.8,426.96Z"/>
      <path class="cls-4" d="M197.8,426.524a2.7,2.7,0,0,0,.076-.57,1.374,1.374,0,0,0-1.5-1.311,3.455,3.455,0,0,0-2.337,1.33l-1.443,6.554h-1.71l1.33-6a3.2,3.2,0,0,0,.076-.665c-.02-.665-.532-1.216-1.521-1.216a3.577,3.577,0,0,0-2.317,1.33l-1.425,6.554h-1.71l2.033-9.176h1.71l-.3,1.292a4.093,4.093,0,0,1,2.869-1.52,2.24,2.24,0,0,1,2.394,1.653v.057a4.2,4.2,0,0,1,3.191-1.71,2.279,2.279,0,0,1,2.47,2.3,5.177,5.177,0,0,1-.095.76l-1.406,6.345h-1.71Z"/>
      <path class="cls-4" d="M206.451,423.123a3.809,3.809,0,0,1,4.008,4.046,5.968,5.968,0,0,1-.171,1.33h-7.275a2.085,2.085,0,0,0-.038.38c0,1.235.987,2.47,2.963,2.47a4.257,4.257,0,0,0,2.546-.836l.551,1.2a5.586,5.586,0,0,1-3.21,1.045c-2.831,0-4.56-1.6-4.56-4.084A5.351,5.351,0,0,1,206.451,423.123Zm2.47,3.837a2.362,2.362,0,0,0-2.6-2.432,3.324,3.324,0,0,0-3.135,2.736H208.9A1.4,1.4,0,0,0,208.921,426.96Z"/>
      <path class="cls-4" d="M212.342,430.418l1.234-5.585h-1.52l.342-1.482h1.521l.551-2.507h1.709l-.551,2.507h1.862l-.342,1.482h-1.862l-1.14,5.205a1.954,1.954,0,0,0-.038.361c0,.532.3.835.912.835a1.491,1.491,0,0,0,.816-.266l.133,1.368a2.327,2.327,0,0,1-1.405.418c-1.387,0-2.279-.551-2.279-1.767A3.779,3.779,0,0,1,212.342,430.418Z"/>
      <path class="cls-4" d="M219.391,423.351h1.71l-.323,1.349a4.107,4.107,0,0,1,3.362-1.558l-.38,1.729a4.448,4.448,0,0,0-.76-.076,3.483,3.483,0,0,0-2.546,1.387l-1.387,6.345h-1.71Z"/>
      <path class="cls-4" d="M229.289,423.123a3.948,3.948,0,0,1,4.313,4.1,5.38,5.38,0,0,1-5.187,5.528,3.923,3.923,0,0,1-4.293-4.1A5.375,5.375,0,0,1,229.289,423.123Zm-.038,1.52c-1.957,0-3.344,1.938-3.344,3.932a2.412,2.412,0,0,0,2.564,2.66c1.957,0,3.344-1.918,3.344-3.932A2.421,2.421,0,0,0,229.251,424.643Z"/>
      <path class="cls-4" d="M242.132,426.638a2.9,2.9,0,0,0,.1-.608c0-.988-.779-1.387-1.653-1.387a4.111,4.111,0,0,0-2.792,1.33l-1.425,6.554h-1.71l2.032-9.176h1.71l-.3,1.292a4.761,4.761,0,0,1,3.191-1.52c1.672,0,2.773.836,2.773,2.3a5.518,5.518,0,0,1-.095.76l-1.406,6.345h-1.709Z"/>
      <path class="cls-4" d="M250.777,423.123a3.948,3.948,0,0,1,4.313,4.1,5.38,5.38,0,0,1-5.187,5.528,3.923,3.923,0,0,1-4.293-4.1A5.375,5.375,0,0,1,250.777,423.123Zm-.038,1.52c-1.957,0-3.344,1.938-3.344,3.932a2.412,2.412,0,0,0,2.564,2.66c1.957,0,3.344-1.918,3.344-3.932A2.421,2.421,0,0,0,250.739,424.643Z"/>
      <path class="cls-4" d="M268.617,426.524a2.784,2.784,0,0,0,.075-.57,1.373,1.373,0,0,0-1.5-1.311,3.453,3.453,0,0,0-2.337,1.33l-1.444,6.554H261.7l1.329-6a3.2,3.2,0,0,0,.076-.665c-.019-.665-.531-1.216-1.52-1.216a3.573,3.573,0,0,0-2.317,1.33l-1.425,6.554h-1.71l2.032-9.176h1.71l-.3,1.292a4.091,4.091,0,0,1,2.868-1.52,2.24,2.24,0,0,1,2.394,1.653v.057a4.2,4.2,0,0,1,3.192-1.71,2.278,2.278,0,0,1,2.469,2.3,5.177,5.177,0,0,1-.095.76L269,432.527h-1.71Z"/>
      <path class="cls-4" d="M277.263,423.123a3.809,3.809,0,0,1,4.009,4.046,5.968,5.968,0,0,1-.171,1.33h-7.276a2.176,2.176,0,0,0-.038.38c0,1.235.988,2.47,2.964,2.47a4.261,4.261,0,0,0,2.546-.836l.551,1.2a5.586,5.586,0,0,1-3.211,1.045c-2.83,0-4.559-1.6-4.559-4.084A5.351,5.351,0,0,1,277.263,423.123Zm2.47,3.837a2.362,2.362,0,0,0-2.6-2.432A3.325,3.325,0,0,0,274,427.265h5.719A1.477,1.477,0,0,0,279.732,426.96Z"/>
      <path class="cls-4" d="M44.8,450.351h1.71l-2.033,9.176h-1.71l.285-1.273a3.68,3.68,0,0,1-2.944,1.5c-2.09,0-3.533-1.368-3.533-3.78,0-2.926,1.8-5.852,4.825-5.852a3.593,3.593,0,0,1,3.115,1.615Zm-4.027,7.884a3.329,3.329,0,0,0,2.6-1.425l.854-3.8a2.936,2.936,0,0,0-2.6-1.368c-1.937,0-3.248,1.938-3.248,4.008A2.338,2.338,0,0,0,40.773,458.235Z"/>
      <path class="cls-4" d="M48.013,457.418l1.234-5.585h-1.52l.342-1.482H49.59l.551-2.507H51.85l-.551,2.507h1.862l-.342,1.482H50.957l-1.14,5.205a1.954,1.954,0,0,0-.038.361c0,.532.3.835.912.835a1.491,1.491,0,0,0,.816-.266l.133,1.368a2.327,2.327,0,0,1-1.405.418c-1.387,0-2.279-.551-2.279-1.767A3.779,3.779,0,0,1,48.013,457.418Z"/>
      <path class="cls-4" d="M62.319,449.344l-2.527,2.147-.854-1.159,4.16-3.476H64.77l-2.793,12.671h-1.9Z"/>
      <path class="cls-4" d="M71.515,446.666c2.679,0,4.236,1.881,4.236,4.958,0,3.914-2.318,8.131-6.041,8.131-2.679,0-4.274-1.881-4.274-4.978C65.436,450.883,67.791,446.666,71.515,446.666Zm-.19,1.691c-2.488,0-3.951,3.7-3.951,6.516,0,1.824.722,3.191,2.526,3.191,2.47,0,3.933-3.723,3.933-6.535C73.832,449.705,73.129,448.356,71.324,448.356Z"/>
      <path class="cls-4" d="M83.181,446.666c2.679,0,4.236,1.881,4.236,4.958,0,3.914-2.318,8.131-6.041,8.131-2.679,0-4.274-1.881-4.274-4.978C77.1,450.883,79.457,446.666,83.181,446.666Zm-.19,1.691c-2.488,0-3.951,3.7-3.951,6.516,0,1.824.722,3.191,2.526,3.191,2.47,0,3.933-3.723,3.933-6.535C85.5,449.705,84.795,448.356,82.99,448.356Z"/>
      <path class="cls-4" d="M95.815,446.856h5.528a3.017,3.017,0,0,1,3.287,2.944,3.364,3.364,0,0,1-2.926,3.362,2.67,2.67,0,0,1,1.843,2.6c0,1.842-1.311,3.761-4.351,3.761H93.023Zm3.952,7.048H96.158l-.874,3.951h3.837a2.284,2.284,0,0,0,2.508-2.242A1.679,1.679,0,0,0,99.768,453.9Zm1.082-5.376h-3.5l-.816,3.7h3.78A2.05,2.05,0,0,0,102.6,450.1,1.652,1.652,0,0,0,100.85,448.527Z"/>
      <path class="cls-4" d="M107.938,446.856h4.92a3.344,3.344,0,0,1,3.629,3.343c0,1.919-1.292,4.445-4.958,4.445h-3.4l-1.082,4.882h-1.9Zm6.573,3.514a1.873,1.873,0,0,0-1.957-1.843h-3.077l-.988,4.445h3.191A2.6,2.6,0,0,0,114.511,450.37Z"/>
      <path class="cls-4" d="M129.652,449.154l-6.363,10.373h-.8l-1.823-10.373-2.279,10.373h-1.9l2.793-12.671H121.9l1.615,9.4,5.775-9.4h2.792l-2.792,12.671h-1.9Z"/>
      <path class="cls-4" d="M133.283,457.361a1.07,1.07,0,0,1,1.063,1.1,1.3,1.3,0,0,1-1.292,1.273,1.086,1.086,0,0,1-1.082-1.1A1.293,1.293,0,0,1,133.283,457.361Z"/>
    </g>
  </g>
</svg>
