<svg id="Layer_1" data-name="Layer 1" xmlns="http://www.w3.org/2000/svg" viewBox="0 0 774 176">
  <defs>
    <style>
      .cls-1, .cls-2 {
        fill: #fff;
      }

      .cls-1, .cls-12, .cls-3 {
        stroke: #596368;
      }

      .cls-1 {
        stroke-miterlimit: 10;
      }

      .cls-1, .cls-3, .cls-4 {
        stroke-width: 2px;
      }

      .cls-12, .cls-3, .cls-4 {
        fill: none;
        stroke-linecap: round;
        stroke-linejoin: round;
      }

      .cls-4 {
        stroke: #cecece;
      }

      .cls-5 {
        opacity: 0.62;
      }

      .cls-6 {
        fill: #f19b70;
      }

      .cls-7 {
        fill: #e5e5e5;
      }

      .cls-8 {
        opacity: 0.95;
      }

      .cls-9 {
        fill: #5bc1b7;
      }

      .cls-10 {
        fill: #596368;
      }

      .cls-11 {
        fill: #58b7ac;
      }

      .cls-12 {
        stroke-width: 4px;
      }

      .cls-13 {
        fill: #e8e8e8;
        opacity: 0.38;
      }

      .cls-14 {
        fill: #ed8757;
      }
    </style>
  </defs>
  <title>4d8a1e4a-4afd-4e95-aa17-f39f746b54d7</title>
  <g>
    <rect class="cls-1" x="235.167" y="1" width="105" height="174" rx="16.997" ry="16.997"/>
    <rect class="cls-2" x="338.167" y="34" width="3.833" height="35.167"/>
    <line class="cls-3" x1="340.167" y1="31.406" x2="340.167" y2="36.701"/>
    <line class="cls-3" x1="340.167" y1="66.592" x2="340.167" y2="74.505"/>
    <line class="cls-3" x1="339.977" y1="42.819" x2="339.977" y2="51"/>
    <line class="cls-4" x1="339.977" y1="56" x2="339.977" y2="60"/>
    <g class="cls-5">
      <circle class="cls-6" cx="288.213" cy="136.681" r="27.21"/>
    </g>
    <circle class="cls-7" cx="289.5" cy="137.667" r="13.5"/>
    <g class="cls-8">
      <circle class="cls-6" cx="288.213" cy="136.681" r="17.5"/>
    </g>
    <g>
      <path class="cls-9" d="M288.213,148.681a12,12,0,1,1,12-12A12.013,12.013,0,0,1,288.213,148.681Z"/>
      <path class="cls-10" d="M288.213,125.681a11,11,0,1,1-11,11,11,11,0,0,1,11-11m0-2a13,13,0,1,0,13,13,13.015,13.015,0,0,0-13-13Z"/>
    </g>
    <path class="cls-11" d="M288.167,148a10.988,10.988,0,0,0,9.141-4.881h0c-19.691,2.952-13.365-16.271-13.364-16.276A11,11,0,0,0,288.167,148Z"/>
    <circle class="cls-2" cx="295.5" cy="126.667" r="1.5"/>
    <path class="cls-12" d="M234.167,109.632a299.058,299.058,0,0,0-40-1.2c-3.6.133-7.335.368-10.5,2.09-16.962,9.229,4.9,33.253-7.418,45.333-11.547,11.325-43.9,2.2-58.242,2.15,0,0-68-6.833-116-3.833"/>
    <path class="cls-13" d="M253.24,127.377c-6.484-55.291.221-97.281,8.378-125.211H252.91a16.738,16.738,0,0,0-16.673,16.8v138.4a16.738,16.738,0,0,0,16.673,16.8h69.654a16.738,16.738,0,0,0,16.673-16.8V138.823C298.794,166.842,258.77,174.529,253.24,127.377Z"/>
    <g>
      <rect class="cls-14" x="219" y="104.167" width="15" height="9" rx="1.83" ry="1.83"/>
      <path class="cls-6" d="M233.969,111.64a1.823,1.823,0,0,0,.031-.3V106a1.83,1.83,0,0,0-1.83-1.83H221.2C221.815,106.936,224.3,111.6,233.969,111.64Z"/>
    </g>
    <path class="cls-12" d="M343,106.167q72.256,0,144.511.047c7.931.015,27.388-1.9,17.28-13.2-5.439-6.081-16.232-9.379-23.79-11.844-46-15,132-16,132-16H772"/>
    <rect class="cls-14" x="341" y="102.167" width="15" height="9" rx="1.83" ry="1.83"/>
    <path class="cls-6" d="M355.969,109.64a1.823,1.823,0,0,0,.031-.3V104a1.83,1.83,0,0,0-1.83-1.83H343.2C343.815,104.936,346.3,109.6,355.969,109.64Z"/>
  </g>
</svg>
