<?xml version="1.0" encoding="UTF-8"?>
<svg width="1024px" height="972px" viewBox="0 0 1024 972" version="1.1" xmlns="http://www.w3.org/2000/svg" xmlns:xlink="http://www.w3.org/1999/xlink">
    <!-- Generator: Sketch 50.2 (55047) - http://www.bohemiancoding.com/sketch -->
    <title>Profession desktop</title>
    <desc>Created with Sketch.</desc>
    <defs>
        <rect id="path-1" x="684" y="269.666667" width="305" height="300" rx="7"></rect>
        <filter x="-5.1%" y="-3.8%" width="110.2%" height="110.3%" filterUnits="objectBoundingBox" id="filter-2">
            <feOffset dx="0" dy="4" in="SourceAlpha" result="shadowOffsetOuter1"></feOffset>
            <feGaussianBlur stdDeviation="4.5" in="shadowOffsetOuter1" result="shadowBlurOuter1"></feGaussianBlur>
            <feColorMatrix values="0 0 0 0 0   0 0 0 0 0   0 0 0 0 0  0 0 0 0.222882699 0" type="matrix" in="shadowBlurOuter1"></feColorMatrix>
        </filter>
        <rect id="path-3" x="33" y="269" width="305" height="300" rx="7"></rect>
        <filter x="-5.1%" y="-3.8%" width="110.2%" height="110.3%" filterUnits="objectBoundingBox" id="filter-4">
            <feOffset dx="0" dy="4" in="SourceAlpha" result="shadowOffsetOuter1"></feOffset>
            <feGaussianBlur stdDeviation="4.5" in="shadowOffsetOuter1" result="shadowBlurOuter1"></feGaussianBlur>
            <feColorMatrix values="0 0 0 0 0   0 0 0 0 0   0 0 0 0 0  0 0 0 0.222882699 0" type="matrix" in="shadowBlurOuter1"></feColorMatrix>
        </filter>
        <rect id="path-5" x="359" y="269.333333" width="305" height="300" rx="7"></rect>
        <filter x="-5.1%" y="-3.8%" width="110.2%" height="110.3%" filterUnits="objectBoundingBox" id="filter-6">
            <feOffset dx="0" dy="4" in="SourceAlpha" result="shadowOffsetOuter1"></feOffset>
            <feGaussianBlur stdDeviation="4.5" in="shadowOffsetOuter1" result="shadowBlurOuter1"></feGaussianBlur>
            <feColorMatrix values="0 0 0 0 0   0 0 0 0 0   0 0 0 0 0  0 0 0 0.222882699 0" type="matrix" in="shadowBlurOuter1"></feColorMatrix>
        </filter>
        <rect id="path-7" x="0" y="0" width="305" height="300" rx="7"></rect>
        <filter x="-5.1%" y="-3.8%" width="110.2%" height="110.3%" filterUnits="objectBoundingBox" id="filter-8">
            <feOffset dx="0" dy="4" in="SourceAlpha" result="shadowOffsetOuter1"></feOffset>
            <feGaussianBlur stdDeviation="4.5" in="shadowOffsetOuter1" result="shadowBlurOuter1"></feGaussianBlur>
            <feColorMatrix values="0 0 0 0 0   0 0 0 0 0   0 0 0 0 0  0 0 0 0.222882699 0" type="matrix" in="shadowBlurOuter1"></feColorMatrix>
        </filter>
        <rect id="path-9" x="0" y="0" width="305" height="300" rx="7"></rect>
        <filter x="-5.1%" y="-3.8%" width="110.2%" height="110.3%" filterUnits="objectBoundingBox" id="filter-10">
            <feOffset dx="0" dy="4" in="SourceAlpha" result="shadowOffsetOuter1"></feOffset>
            <feGaussianBlur stdDeviation="4.5" in="shadowOffsetOuter1" result="shadowBlurOuter1"></feGaussianBlur>
            <feColorMatrix values="0 0 0 0 0   0 0 0 0 0   0 0 0 0 0  0 0 0 0.222882699 0" type="matrix" in="shadowBlurOuter1"></feColorMatrix>
        </filter>
        <rect id="path-11" x="0" y="0" width="305" height="300" rx="7"></rect>
        <filter x="-5.1%" y="-3.8%" width="110.2%" height="110.3%" filterUnits="objectBoundingBox" id="filter-12">
            <feOffset dx="0" dy="4" in="SourceAlpha" result="shadowOffsetOuter1"></feOffset>
            <feGaussianBlur stdDeviation="4.5" in="shadowOffsetOuter1" result="shadowBlurOuter1"></feGaussianBlur>
            <feColorMatrix values="0 0 0 0 0   0 0 0 0 0   0 0 0 0 0  0 0 0 0.222882699 0" type="matrix" in="shadowBlurOuter1"></feColorMatrix>
        </filter>
    </defs>
    <g id="Profession-desktop" stroke="none" stroke-width="1" fill="none" fill-rule="evenodd">
        <text id="Arbor-Green" font-family="ProximaNova-Semibold, Proxima Nova" font-size="24" font-weight="500" letter-spacing="-0.01291548" fill="#14B88E">
            <tspan x="58" y="95">Arbor Green</tspan>
        </text>
        <g id="Group-10" transform="translate(525.000000, 77.000000)">
            <path d="M0,31 L75,31" id="Path-8" stroke="#0E9270" stroke-width="2" stroke-linecap="round" stroke-linejoin="round"></path>
            <text id="HOME-Copy-2" font-family="ProximaNova-Medium, Proxima Nova" font-size="18" font-weight="400" letter-spacing="0.7137063" fill="#0E9270">
                <tspan x="10" y="17">HOME</tspan>
            </text>
        </g>
        <text id="SEARCH-FOR-JOBS" font-family="ProximaNova-Regular, Proxima Nova" font-size="18" font-weight="normal" letter-spacing="0.7137063" fill="#6A6A6A">
            <tspan x="632" y="94">SEARCH FOR JOBS</tspan>
        </text>
        <text id="PROFILE" font-family="ProximaNova-Regular, Proxima Nova" font-size="18" font-weight="normal" letter-spacing="0.7137063" fill="#6A6A6A">
            <tspan x="833" y="94">PROFILE</tspan>
        </text>
        <g id="menu-copy-7" transform="translate(939.000000, 82.000000)" fill="#000000" fill-rule="nonzero">
            <path d="M20.5624462,0 L0.437512817,0 C0.196013289,0 0,0.224008625 0,0.5 C0,0.775991375 0.196013289,1 0.437512817,1 L20.5624872,1 C20.8039867,1 21,0.775991375 21,0.5 C21,0.224008625 20.8039457,0 20.5624462,0 Z" id="Shape"></path>
            <path d="M20.5624462,6 L0.437512817,6 C0.196013289,6 0,6.22400862 0,6.5 C0,6.77599138 0.196013289,7 0.437512817,7 L20.5624872,7 C20.8039867,7 21,6.77599138 21,6.5 C21,6.22400862 20.8039457,6 20.5624462,6 Z" id="Shape"></path>
            <path d="M20.5624462,12 L0.437512817,12 C0.196013289,12 0,12.2239722 0,12.4999766 C0,12.7759809 0.196013289,13 0.437512817,13 L20.5624872,13 C20.8039867,13 21,12.7759809 21,12.4999766 C20.999959,12.2239722 20.8039457,12 20.5624462,12 Z" id="Shape"></path>
        </g>
        <g id="Rectangle-2-Copy-27">
            <use fill="black" fill-opacity="1" filter="url(#filter-2)" xlink:href="#path-1"></use>
            <use fill="#FFFFFF" fill-rule="evenodd" xlink:href="#path-1"></use>
        </g>
        <g id="balance" transform="translate(814.381679, 293.666667)" fill="#14B88E" fill-rule="nonzero">
            <path d="M43.3620423,12.6042629 L42.7759179,12.6042629 C42.204886,10.0659649 39.2760645,5.59680243 37.9794732,3.70387901 C38.587379,3.33754066 38.9869898,2.72409674 38.9869898,2.03026273 C38.9869898,0.91081209 37.9474014,0 36.6696758,0 C35.3919502,0 34.3524476,0.910736959 34.3524476,2.03026273 C34.3524476,2.72409674 34.7520584,3.33754066 35.36005,3.70387901 C34.0635444,5.59680243 31.1347229,10.0659649 30.563691,12.6042629 L29.9776523,12.6042629 C29.4946892,12.6042629 29.1030534,12.9473107 29.1030534,13.3705231 C29.1030534,17.0260178 32.4975159,20 36.6698473,20 C40.8421788,20 44.2366412,17.0260178 44.2366412,13.3705231 C44.2366412,12.9473107 43.8450055,12.6042629 43.3620423,12.6042629 Z M36.6697616,1.53259555 C36.982933,1.53259555 37.2377921,1.75588463 37.2377921,2.03026273 C37.2377921,2.30464084 36.982933,2.52785479 36.6697616,2.52785479 C36.3565902,2.52785479 36.1018168,2.30464084 36.1018168,2.03026273 C36.1018168,1.75588463 36.3565044,1.53259555 36.6697616,1.53259555 Z M36.6683895,4.77073801 C38.1484074,6.95945184 40.4339926,10.6052547 40.9961919,12.6042629 L32.3460754,12.6042629 C32.8768031,10.7326016 34.9332553,7.32563993 36.6683895,4.77073801 Z M36.6697616,18.4674796 C33.7592056,18.4674796 31.3408741,16.5850745 30.9177668,14.1367833 L42.4218421,14.1367833 C41.9986491,16.5850745 39.5804891,18.4674796 36.6697616,18.4674796 Z" id="Shape"></path>
            <path d="M30.5333009,30.6609217 L28.1591871,30.6609217 L28.1591871,28.7437096 C28.1591871,28.3267667 27.757074,27.9888009 27.2611903,27.9888009 L24.980583,27.9888009 L24.980583,6.90087431 C25.5679481,6.41280017 25.9462884,5.74730507 25.990136,5.00882832 L29.7872741,4.32194205 C30.2721519,4.23423082 30.5806705,3.83268362 30.4763341,3.42506695 C30.3719097,3.01745028 29.8942519,2.75838758 29.4094621,2.84587675 L25.6034313,3.53446543 C25.032443,2.62315684 23.8948688,2 22.5868346,2 C20.7754326,2 19.2902468,3.19435311 19.1857343,4.69543646 L9.69068799,6.41309624 C9.25749411,5.91502967 8.55778033,5.59068316 7.76931464,5.59068316 C6.45740634,5.59068316 5.39000606,6.48792835 5.39000606,7.59086933 C5.39000606,8.27442479 5.80030758,8.8788551 6.42456461,9.23969244 C5.09328586,11.1045739 2.08619834,15.5075296 1.49988979,18.008225 L0.898172922,18.008225 C0.402025053,18.008225 0,18.3461908 0,18.7631337 C0,22.3644754 3.48527369,25.2944007 7.76922659,25.2944007 C12.0531795,25.2944007 15.5384532,22.3644754 15.5384532,18.7631337 C15.5384532,18.3461908 15.1364281,18.008225 14.6404564,18.008225 L14.0387395,18.008225 C13.4524309,15.5074556 10.4452554,11.1045739 9.11406467,9.23969244 C9.64886541,8.93051961 10.0262372,8.44266752 10.1235297,7.87931715 L19.5570308,6.17283408 C19.7230004,6.44329555 19.9381006,6.68903503 20.1931743,6.90102234 L20.1931743,27.9890229 L17.912655,27.9890229 C17.4166832,27.9890229 17.0146582,28.3269887 17.0146582,28.7439317 L17.0146582,30.6611437 L14.6405444,30.6611437 C14.1445726,30.6611437 13.7425476,30.9991095 13.7425476,31.4160525 L13.7425476,34.2450913 C13.7425476,34.6620342 14.1445726,35 14.6405444,35 L30.5333009,35 C31.0291846,35 31.4312977,34.6620342 31.4312977,34.2450913 L31.4312977,31.4158304 C31.4312977,30.9988875 31.0291846,30.6609217 30.5333009,30.6609217 Z M7.76922659,7.10042661 C8.0907762,7.10042661 8.35245348,7.32040786 8.35245348,7.59072129 C8.35245348,7.86103473 8.0907762,8.08094196 7.76922659,8.08094196 C7.44767699,8.08094196 7.18599971,7.86103473 7.18599971,7.59072129 C7.18599971,7.32040786 7.44767699,7.10042661 7.76922659,7.10042661 Z M7.76922659,23.7844352 C4.7807171,23.7844352 2.29777657,21.9299162 1.86335002,19.5178944 L13.6751032,19.5178944 C13.2406766,21.9299162 10.7577361,23.7844352 7.76922659,23.7844352 Z M12.2114009,18.0080769 L3.32986979,18.0080769 C3.87488404,16.1641426 5.98635202,12.8076521 7.76790588,10.2905988 C9.28743027,12.4468148 11.6341613,16.0386082 12.2114009,18.0080769 Z M22.5869226,3.50966943 C23.4755864,3.50966943 24.1984567,4.11735653 24.1984567,4.86441936 C24.1984567,5.6114822 23.4754984,6.21916929 22.5869226,6.21916929 C21.6983469,6.21916929 20.9753886,5.6114822 20.9753886,4.86441936 C20.9753886,4.11735653 21.6982589,3.50966943 22.5869226,3.50966943 Z M23.1846774,7.68405789 L23.1846774,27.9888749 L21.9891679,27.9888749 L21.9891679,7.68405789 C22.1834008,7.71314693 22.3829165,7.7291348 22.5870107,7.7291348 C22.7911049,7.7291348 22.9904445,7.71307291 23.1846774,7.68405789 Z M18.8105638,29.4986183 L26.3631934,29.4986183 L26.3631934,30.6609217 L18.8105638,30.6609217 L18.8105638,29.4986183 Z M29.6353041,33.4901085 L15.5385412,33.4901085 L15.5385412,32.1707391 L29.6353041,32.1707391 L29.6353041,33.4901085 Z" id="Shape"></path>
            <path d="M33.7402793,2.7322618 C33.6411628,2.23165702 33.1873183,1.91322256 32.7266987,2.02094304 L32.1050672,2.1662975 C31.6445313,2.27401798 31.3514478,2.76716869 31.4505642,3.26777347 C31.5367997,3.70265512 31.8904404,4 32.2838114,4 C32.3432812,4 32.4036712,3.99327315 32.4641447,3.97909223 L33.0857762,3.83373776 C33.5462285,3.72601728 33.8393957,3.23286658 33.7402793,2.7322618 Z" id="Shape"></path>
        </g>
        <text id="Coordinate-and-manag" font-family="ProximaNova-Regular, Proxima Nova" font-size="12" font-weight="normal" letter-spacing="0.1157143" fill="#0D0D0D">
            <tspan x="714" y="427">Coordinate and manage the logistics of court </tspan>
            <tspan x="714" y="442">cases. Communicate with witnesses to </tspan>
            <tspan x="714" y="457">make sure they get to their court </tspan>
            <tspan x="714" y="472">appointments on time. </tspan>
            <tspan x="714" y="487"></tspan>
            <tspan x="714" y="502" font-family="ProximaNova-Medium, Proxima Nova" font-weight="400">Skills:</tspan>
            <tspan x="744.99" y="502"> ability to multitask, stong written and </tspan>
            <tspan x="714" y="517">verbal communication, and familiarity of </tspan>
            <tspan x="714" y="532">computer systems.</tspan>
        </text>
        <text id="Paralegal" font-family="AvenirNext-DemiBold, Avenir Next" font-size="18" font-weight="500" letter-spacing="0.1157143" fill="#0D0D0D">
            <tspan x="713" y="364">Paralegal</tspan>
        </text>
        <text id="MEDIUM-TERM-GOAL" font-family="ProximaNova-Medium, Proxima Nova" font-size="12" font-weight="400" letter-spacing="0.549325" fill="#0E9270">
            <tspan x="713" y="389">MEDIUM TERM GOAL</tspan>
        </text>
        <g id="Rectangle-2-Copy-15">
            <use fill="black" fill-opacity="1" filter="url(#filter-4)" xlink:href="#path-3"></use>
            <use fill="#FFFFFF" fill-rule="evenodd" xlink:href="#path-3"></use>
        </g>
        <text id="City-planner" font-family="AvenirNext-DemiBold, Avenir Next" font-size="18" font-weight="500" letter-spacing="0.1157143" fill="#0D0D0D">
            <tspan x="61" y="364">City planner</tspan>
        </text>
        <text id="Develop-plans-for-la" font-family="ProximaNova-Regular, Proxima Nova" font-size="12" font-weight="normal" letter-spacing="0.1157143" fill="#0D0D0D">
            <tspan x="62" y="427">Develop plans for land use that help create </tspan>
            <tspan x="62" y="442">communities, accommodate population </tspan>
            <tspan x="62" y="457">growth, and revitalize physical facilities in </tspan>
            <tspan x="62" y="472">towns, cities, and metropolitan areas.</tspan>
            <tspan x="62" y="487"></tspan>
            <tspan x="62" y="502" font-family="ProximaNova-Medium, Proxima Nova" font-weight="400">Skills:</tspan>
            <tspan x="92.9900001" y="502"> writing and public speaking, and good </tspan>
            <tspan x="62" y="517">people skills</tspan>
        </text>
        <g id="sketch" transform="translate(163.381679, 293.000000)" fill="#14B88E" fill-rule="nonzero">
            <path d="M36.8627367,25.0412725 C36.6272208,24.9574072 36.3561426,25.0037349 36.1758152,25.1585686 L29.2876447,31.0756809 C29.1074012,31.2305866 29.0534708,31.4634496 29.1510992,31.6657638 C29.2485598,31.86815 29.4785401,32 29.7334308,32 L36.6216013,32 C36.9697589,32 37.2519084,31.7576265 37.2519084,31.4585503 L37.2519084,25.541438 C37.2518245,25.3224805 37.0982527,25.1250657 36.8627367,25.0412725 Z M31.2548907,30.9171726 L35.9911264,26.8486266 L35.9911264,30.9171726 L31.2548907,30.9171726 Z" id="Shape"></path>
            <path d="M41.528684,16.9326081 C41.2988426,16.850501 41.0342958,16.8958574 40.8583133,17.0474451 L39.0160627,18.6350601 L39.0160627,7.84044925 C39.0160627,7.54764303 38.7406296,7.31035077 38.4009424,7.31035077 L33.6747066,7.31035077 L35.3903316,5.8318592 C35.3905771,5.83164759 35.3908227,5.83136543 35.3910683,5.83115382 L37.0441581,4.40655383 C37.3983331,4.10133279 37.5933873,3.69531192 37.5933873,3.26361495 C37.5933873,2.83191799 37.3983331,2.42603819 37.0441581,2.12067607 L35.1325786,0.47331481 C34.7784035,0.168093769 34.3072615,0 33.8063251,0 C33.3053888,0 32.8343286,0.168093769 32.4800717,0.47331481 L30.8261634,1.89862018 L28.8276567,3.62089357 L24.5465339,7.31028023 L5.45300274,7.31028023 L5.45300274,2.06607911 C5.45300274,1.77327288 5.17756963,1.53598063 4.83788242,1.53598063 C2.17031474,1.5361217 0,3.40631478 0,5.70531274 L0,28.2202846 C0,28.2594336 0.00523854962,28.2975245 0.0145697161,28.3342046 C0.0995324427,29.3096846 0.58925498,30.2160366 1.40769651,30.9040713 C2.28253429,31.6393669 3.43738893,32.0443297 4.65960803,32.0443297 L23.4560152,32.0443297 L19.9159834,35.0950588 C19.7400827,35.246717 19.6874517,35.4746276 19.782646,35.6727709 C19.8778402,35.8708436 20.1021975,36 20.3509467,36 L41.2932766,36 C41.6329638,36 41.9083969,35.7627077 41.9083969,35.4699015 L41.9083969,17.4223584 C41.9083969,17.2079913 41.7584435,17.0146446 41.528684,16.9326081 Z M33.3501621,1.22307086 C33.6016124,1.00623484 34.0112834,1.00623484 34.2627338,1.22307086 L36.1743951,2.87050267 C36.4260092,3.08726815 36.4260092,3.44017337 36.1743951,3.65700939 L34.955532,4.70747201 L32.1311352,2.27353348 L33.3501621,1.22307086 Z M31.2612086,3.023219 L34.0855235,5.45708699 L32.9568616,6.42974539 L30.1327104,3.9958774 L31.2612086,3.023219 Z M40.67832,23.378789 L39.5434374,23.378789 C39.2036683,23.378789 38.928317,23.6160813 38.928317,23.9088875 C38.928317,24.2016937 39.2036683,24.438986 39.5434374,24.438986 L40.67832,24.438986 L40.67832,26.0364058 L39.5434374,26.0364058 C39.2036683,26.0364058 38.928317,26.2736981 38.928317,26.5665043 C38.928317,26.8593105 39.2036683,27.0966028 39.5434374,27.0966028 L40.67832,27.0966028 L40.67832,28.6939521 L39.5434374,28.6939521 C39.2036683,28.6939521 38.928317,28.9312443 38.928317,29.2240506 C38.928317,29.5168568 39.2036683,29.754149 39.5434374,29.754149 L40.67832,29.754149 L40.67832,31.3515689 L39.5434374,31.3515689 C39.2036683,31.3515689 38.928317,31.5889317 38.928317,31.8816674 C38.928317,32.1744736 39.2036683,32.4117659 39.5434374,32.4117659 L40.67832,32.4117659 L40.67832,34.9400147 L21.8359119,34.9400147 L28.0491591,29.585632 C28.2893957,29.3785304 28.2893957,29.0429777 28.0491591,28.8359465 C28.0215749,28.812175 27.9919443,28.7915777 27.9609223,28.7732376 C27.7214224,28.631878 27.3918848,28.6526869 27.1791506,28.8359465 L24.6862558,30.9842738 L4.65968989,30.9842738 C2.7941114,30.9842738 1.29228471,29.7291078 1.23318732,28.1242814 C1.23670697,28.0235521 1.24579258,27.9236693 1.2603623,27.8249151 C1.26044415,27.8243507 1.260526,27.8237864 1.26060785,27.8232221 C1.26748345,27.7763139 1.27575054,27.7296172 1.28516356,27.6832028 C1.28622764,27.6779124 1.28737357,27.672622 1.28843765,27.6673316 C1.29703214,27.6259253 1.30669072,27.5847307 1.31724967,27.5436772 C1.32019636,27.5322499 1.32330674,27.5208226 1.32641713,27.5094659 C1.3357483,27.4747609 1.34581614,27.4402674 1.35662065,27.4059151 C1.36251401,27.3872928 1.36865294,27.3688822 1.37495557,27.3503306 C1.38395933,27.3233848 1.39329049,27.2965095 1.40319463,27.2699164 C1.41309876,27.2433233 1.42365771,27.2170124 1.43438037,27.1907014 C1.44182893,27.1722908 1.44919564,27.1538802 1.45721717,27.1356107 C1.47219615,27.1009056 1.4880755,27.0665533 1.50444597,27.0324831 C1.50911155,27.0226782 1.51369528,27.0127322 1.51852457,27.0029274 C1.53956062,26.9606041 1.5614152,26.9187747 1.58449755,26.877439 C1.58547978,26.8756755 1.58638016,26.873912 1.58736239,26.8721486 C2.06849043,26.0141156 2.99383111,25.3743999 4.10432177,25.175904 C4.10743216,25.1753397 4.11054255,25.1747048 4.11365294,25.1741405 C4.16456509,25.1651821 4.21596836,25.1574934 4.26769904,25.150369 C4.27629354,25.1491698 4.28488803,25.1476885 4.29364623,25.1465599 C4.34038392,25.140423 4.38761271,25.1356264 4.43484151,25.1310413 C4.44810159,25.1297717 4.46127982,25.1280082 4.47462175,25.1268796 C4.5202135,25.1229294 4.56621452,25.1203195 4.61221553,25.1178506 C4.62678525,25.1170747 4.64135496,25.1157344 4.65592468,25.1150996 C4.716168,25.1124897 4.77690243,25.1111494 4.83788242,25.1111494 C5.17756963,25.1111494 5.45300274,24.8738572 5.45300274,24.5810509 L5.45300274,20.7374666 C5.45300274,20.4446604 5.17756963,20.2073682 4.83788242,20.2073682 C4.49819522,20.2073682 4.22276211,20.4446604 4.22276211,20.7374666 L4.22276211,24.0843173 C3.18405594,24.1975319 2.21991725,24.5967811 1.45967274,25.2365673 C1.37970301,25.3038612 1.30390774,25.3738356 1.23007693,25.4449387 L1.23007693,5.70531274 C1.23007693,4.17173043 2.52547203,2.89378044 4.22268025,2.6413929 L4.22268025,7.84044925 L4.22268025,18.6171433 L4.22268025,18.6172138 C4.22268025,18.9099495 4.49811337,19.1473123 4.83780057,19.1473123 C5.17748777,19.1473123 5.45292089,18.9099495 5.45292089,18.6172138 L5.45292089,18.6171433 L5.45292089,8.37054773 L23.3163751,8.37054773 L19.9159016,11.3010083 C19.675665,11.50811 19.675665,11.8436627 19.9159016,12.0506938 C20.1561382,12.2576544 20.5455916,12.2576544 20.7857464,12.0506938 L25.2363035,8.21529201 C25.2364672,8.21515093 25.2365491,8.21500986 25.2367128,8.21493932 L29.26262,4.74549238 L32.0867712,7.17943091 L31.755433,7.46497165 C31.7551874,7.46518326 31.75486,7.46539488 31.7546144,7.4656065 L19.3516934,18.1543387 L16.5274603,15.7204707 L18.972226,13.6136202 C19.2124626,13.4065186 19.2124626,13.0709659 18.972226,12.8639347 C18.7319894,12.6569741 18.3425359,12.6569741 18.1023812,12.8639347 L15.2225704,15.345628 C15.2071821,15.3588893 15.1927761,15.3729265 15.1792705,15.3873164 C15.1747686,15.392113 15.1707578,15.3972623 15.1665015,15.4022706 C15.1578252,15.4122165 15.1493125,15.422233 15.1413729,15.4326728 C15.136871,15.4387391 15.1327784,15.4449465 15.128522,15.4512244 C15.1217283,15.4610999 15.1151801,15.4711164 15.1092049,15.4813445 C15.105276,15.4879751 15.1017563,15.4946763 15.0981548,15.5015891 C15.0926707,15.5119583 15.0875959,15.5225391 15.0829303,15.5331199 C15.0812932,15.5368584 15.0791651,15.5403854 15.0776099,15.5441239 L13.8792098,18.4697173 L13.0621598,20.4644818 C13.0513553,20.4910044 13.0435793,20.5179501 13.0377678,20.5451076 L10.9921141,20.5451076 C10.6524269,20.5451076 10.3769938,20.7823998 10.3769938,21.075206 C10.3769938,21.3680123 10.6524269,21.6053045 10.9921141,21.6053045 L28.0267316,21.6053045 C28.3665006,21.6053045 28.6418519,21.3680123 28.6418519,21.075206 C28.6418519,20.7823998 28.3665006,20.5451076 28.0267316,20.5451076 L15.8051135,20.5451076 L19.5564061,19.4039321 C19.5595165,19.4029446 19.5624632,19.4016044 19.5655736,19.4006168 C19.5801433,19.3959613 19.5944674,19.3907414 19.6086279,19.3851688 C19.6142757,19.3829116 19.6199235,19.3807954 19.6254076,19.3784677 C19.640141,19.3721192 19.6546289,19.3651358 19.6688712,19.3576587 C19.6734549,19.3552604 19.6782024,19.3530737 19.6827043,19.3506049 C19.6975195,19.3424224 19.7119255,19.333464 19.726086,19.3240118 C19.7296056,19.321684 19.733289,19.3196384 19.7367268,19.3172401 C19.7538339,19.3053896 19.7706137,19.292622 19.786493,19.2789375 L32.4444659,8.37061827 L37.7857402,8.37061827 L37.7857402,19.6953276 L28.9869413,27.2780284 C28.7467047,27.48513 28.7467047,27.8206827 28.9869413,28.0277139 C29.0019203,28.0406225 29.0175541,28.0527551 29.033679,28.0641119 C29.1464716,28.1433268 29.284229,28.1829696 29.4219047,28.1829696 C29.5595803,28.1829696 29.6974196,28.1433268 29.8101303,28.0641119 C29.8262552,28.0528257 29.841889,28.0406225 29.856868,28.0277139 C29.8571135,28.0275023 29.856868,28.0277139 29.8571135,28.0275023 L40.67832,18.7019308 L40.67832,23.378789 Z M18.226633,18.684014 L16.4646796,19.2200377 L15.2907534,18.2083714 L15.9127493,16.6899549 L18.226633,18.684014 Z" id="Shape"></path>
        </g>
        <text id="MEDIUM-TERM-GOAL" font-family="ProximaNova-Medium, Proxima Nova" font-size="12" font-weight="400" letter-spacing="0.549325" fill="#0E9270">
            <tspan x="61" y="389">MEDIUM TERM GOAL</tspan>
        </text>
        <g id="Rectangle-2-Copy-16">
            <use fill="black" fill-opacity="1" filter="url(#filter-6)" xlink:href="#path-5"></use>
            <use fill="#FFFFFF" fill-rule="evenodd" xlink:href="#path-5"></use>
        </g>
        <g id="Group" transform="translate(488.217557, 293.333333)" fill="#14B88E" fill-rule="nonzero">
            <g id="selection">
                <path d="M36.5364417,7.13680273 C32.6852619,3.56732031 27.5647843,1.6015625 22.1183206,1.6015625 C16.671857,1.6015625 11.5513793,3.56732031 7.70019956,7.13680273 C3.84893339,10.7062051 1.7279938,15.4520352 1.7279938,20.5 C1.7279938,25.5479648 3.84893339,30.2937949 7.70019956,33.8631973 C11.5513793,37.4326797 16.671857,39.3984375 22.1183206,39.3984375 C27.5647843,39.3984375 32.6852619,37.4326797 36.5364417,33.8631973 C40.3877078,30.2937949 42.5086474,25.5479648 42.5086474,20.5 C42.5086474,15.4520352 40.3877078,10.7062051 36.5364417,7.13680273 Z M22.1183206,37.796875 C11.8278583,37.796875 3.4559876,30.0375449 3.4559876,20.5 C3.4559876,10.9624551 11.8278583,3.203125 22.1183206,3.203125 C32.4087829,3.203125 40.7806536,10.9624551 40.7806536,20.5 C40.7806536,30.0375449 32.4087829,37.796875 22.1183206,37.796875 Z" id="Shape"></path>
                <path d="M38.7235634,17.4061816 C37.6568728,12.4620781 34.0514138,8.26822656 29.0789388,6.18779688 C28.6439164,6.0057793 28.1322574,6.18507422 27.9359573,6.5881875 C27.7396572,6.99130078 27.9330197,7.46560352 28.3679558,7.64754102 C32.8336102,9.51592383 36.0714385,13.2814375 37.0291791,17.720248 C37.1113452,18.1009395 37.4720639,18.3641563 37.8754641,18.3641563 C37.9315375,18.3641563 37.9886476,18.3590313 38.0457578,18.3484609 C38.5136986,18.2617363 38.8171343,17.8398848 38.7235634,17.4061816 Z" id="Shape"></path>
                <path d="M26.1268342,5.24711914 L26.0958167,5.24015234 C25.631764,5.13669141 25.1652921,5.40158984 25.0537501,5.83160938 C24.9422945,6.26170898 25.2279318,6.69405078 25.6918982,6.79743164 L25.7134981,6.80223633 C25.7828771,6.8180918 25.8524288,6.82569922 25.9208574,6.82569922 C26.3090512,6.82569922 26.6619939,6.58138086 26.7590208,6.21622461 C26.8732411,5.78676563 26.5901958,5.35290234 26.1268342,5.24711914 Z" id="Shape"></path>
                <path d="M19.4114183,5.79397266 C19.3065291,5.36243164 18.8437724,5.0916875 18.3785964,5.18890234 C15.3031995,5.8315293 12.4846688,7.26164453 10.2277361,9.32461719 C7.97279058,11.3858281 6.39124426,13.9753145 5.65399571,16.8132832 C5.54228091,17.2432227 5.82774548,17.6757246 6.29171182,17.7792656 C6.35962197,17.7944004 6.42770493,17.8016875 6.49466469,17.8016875 C6.88475929,17.8016875 7.23865242,17.555127 7.33395128,17.188209 C8.67720725,12.0175645 13.1616104,7.92084766 18.7585823,6.75130664 C19.2241038,6.65401172 19.5163939,6.22535352 19.4114183,5.79397266 Z" id="Shape"></path>
                <path d="M15.5785553,33.2276172 C11.2698027,31.3221582 8.14040598,27.6033301 7.20754853,23.279752 C7.11397767,22.8461289 6.6587377,22.5646543 6.19088338,22.6515391 C5.72294266,22.7382637 5.41950695,23.1601152 5.51307781,23.5938184 C6.55212048,28.4095566 10.0367064,32.5513574 14.8343948,34.6730273 C14.9544039,34.7261992 15.0810659,34.7512637 15.205827,34.7512637 C15.5284435,34.7512637 15.8380136,34.5830195 15.9862754,34.2952188 C16.1918203,33.8960293 16.0092577,33.418043 15.5785553,33.2276172 Z" id="Shape"></path>
                <path d="M18.5403367,34.2016074 C18.0768887,34.0954238 17.6087752,34.3579199 17.4946412,34.7872988 C17.3804208,35.2167578 17.6633798,35.6507012 18.1266549,35.7565645 L18.1385781,35.7592871 C18.207093,35.7746621 18.2755216,35.7821094 18.3429134,35.7821094 C18.7316256,35.7821094 19.0828403,35.5359492 19.1790032,35.169752 C19.2917548,34.7399727 19.0039574,34.3061094 18.5403367,34.2016074 Z" id="Shape"></path>
                <path d="M37.944843,23.2208145 C37.4810495,23.1171133 37.0143183,23.3818516 36.9026035,23.8118711 C35.5593476,28.9824355 31.0749445,33.0792324 25.4779726,34.2487734 C25.012451,34.3460684 24.7201609,34.7745664 24.8251365,35.2060273 C24.9156834,35.5782305 25.2721685,35.830877 25.6671879,35.830877 C25.7301732,35.830877 25.7940226,35.8244707 25.8579584,35.8110977 C28.9333553,35.1684707 31.751886,33.7384355 34.0088187,31.6753828 C36.2637642,29.614252 37.8453106,27.0246855 38.5825591,24.1867969 C38.6942739,23.7567773 38.4088093,23.3242754 37.944843,23.2208145 Z" id="Shape"></path>
                <path d="M22.1183206,0 C21.6411351,0 21.2543237,0.358509766 21.2543237,0.80078125 L21.2543237,6.80664063 C21.2543237,7.24891211 21.6411351,7.60742188 22.1183206,7.60742188 C22.5955061,7.60742188 22.9823175,7.24891211 22.9823175,6.80664063 L22.9823175,0.80078125 C22.9823175,0.358509766 22.5955061,0 22.1183206,0 Z" id="Shape"></path>
                <path d="M22.1183206,33.3925781 C21.6411351,33.3925781 21.2543237,33.751168 21.2543237,34.1933594 L21.2543237,40.1992188 C21.2543237,40.6414102 21.6411351,41 22.1183206,41 C22.5955061,41 22.9823175,40.6414102 22.9823175,40.1992188 L22.9823175,34.1933594 C22.9823175,33.751168 22.5955061,33.3925781 22.1183206,33.3925781 Z" id="Shape"></path>
                <path d="M43.3726443,19.6992188 L36.8926676,19.6992188 C36.4154821,19.6992188 36.0286707,20.0577285 36.0286707,20.5 C36.0286707,20.9421914 36.4154821,21.3007813 36.8926676,21.3007813 L43.3726443,21.3007813 C43.8498298,21.3007813 44.2366412,20.9421914 44.2366412,20.5 C44.2366412,20.0577285 43.8498298,19.6992188 43.3726443,19.6992188 Z" id="Shape"></path>
                <path d="M7.34397364,19.6992188 L0.863996899,19.6992188 C0.386811412,19.6992188 0,20.0577285 0,20.5 C0,20.9421914 0.386811412,21.3007813 0.863996899,21.3007813 L7.34397364,21.3007813 C7.82115913,21.3007813 8.20797054,20.9421914 8.20797054,20.5 C8.20797054,20.0577285 7.82115913,19.6992188 7.34397364,19.6992188 Z" id="Shape"></path>
                <path d="M25.9441853,19.6658262 C25.9353725,19.6635039 25.9263869,19.6618223 25.9174878,19.6598203 C26.7261025,18.8229238 27.2190127,17.7188066 27.2190127,16.509627 L27.2190127,9.96972656 C27.2190127,9.52745508 26.8322013,9.16894531 26.3550158,9.16894531 L21.1069258,9.16894531 C18.8519803,9.16894531 17.0174557,10.8692441 17.0174557,12.9592031 L17.0174557,16.509627 C17.0174557,17.7188066 17.510366,18.8229238 18.3189806,19.6598203 C18.3100815,19.6618223 18.3010959,19.663584 18.2922831,19.6658262 C14.5588661,19.9847773 11.6251647,22.902584 11.6251647,26.4446797 L11.6251647,29.2685547 C11.6251647,29.7107461 12.0119761,30.0693359 12.4891616,30.0693359 L31.7473068,30.0693359 C32.2244923,30.0693359 32.6113037,29.7107461 32.6113037,29.2685547 L32.6113037,26.4446797 C32.6113901,22.902584 29.6776887,19.9848574 25.9441853,19.6658262 Z M22.118407,19.6357168 C20.2586537,19.6357168 18.7456223,18.2333887 18.7456223,16.509707 L18.7456223,15.4513145 L23.9092134,15.4513145 C24.4818705,15.4513145 25.0208318,15.3157422 25.4911917,15.0775898 L25.4911917,16.509707 C25.4911917,18.2333887 23.9781603,19.6357168 22.118407,19.6357168 Z M23.62444,21.2371992 L22.1183206,22.6331211 L20.6122012,21.2371992 L23.62444,21.2371992 Z M18.7454495,12.9592031 L18.7455359,12.9592031 C18.7455359,11.7523457 19.8048825,10.7705078 21.1070122,10.7705078 L25.4911053,10.7705078 L25.4911053,12.3836016 C25.4911053,13.1920703 24.7814183,13.849832 23.909127,13.849832 L18.7454495,13.849832 L18.7454495,12.9592031 Z M30.8833964,28.4677734 L13.3532449,28.4677734 L13.3532449,26.4446797 C13.3532449,23.8096289 15.4763445,21.6268594 18.2201394,21.285166 L21.5073884,24.3318984 C21.676127,24.4882109 21.8972238,24.5664473 22.1183206,24.5664473 C22.3394174,24.5664473 22.5606006,24.4882109 22.7292528,24.3318984 L26.0165018,21.285166 C28.7602968,21.6268594 30.8833964,23.8096289 30.8833964,26.4446797 L30.8833964,28.4677734 Z" id="Shape"></path>
            </g>
        </g>
        <text id="Professional-bodygua" font-family="AvenirNext-DemiBold, Avenir Next" font-size="18" font-weight="500" letter-spacing="0.1157143" fill="#0D0D0D">
            <tspan x="386" y="364">Professional bodyguard</tspan>
        </text>
        <text id="SHORT-TERM-GOAL" font-family="ProximaNova-Medium, Proxima Nova" font-size="12" font-weight="400" letter-spacing="0.549325" fill="#0E9270">
            <tspan x="386" y="389">SHORT TERM GOAL</tspan>
        </text>
        <text id="Protect-your-client" font-family="ProximaNova-Regular, Proxima Nova" font-size="12" font-weight="normal" letter-spacing="0.1157143" fill="#0D0D0D">
            <tspan x="388" y="427">Protect your client from threats like assault, </tspan>
            <tspan x="388" y="442">kidnapping and stalking. Work with high </tspan>
            <tspan x="388" y="457">profile clients such as public officials, wealthy </tspan>
            <tspan x="388" y="472">people, and celebrities.</tspan>
            <tspan x="388" y="487"></tspan>
            <tspan x="388" y="502" font-family="ProximaNova-Medium, Proxima Nova" font-weight="400">Skills:</tspan>
            <tspan x="418.99" y="502"> military training, good communication, </tspan>
            <tspan x="388" y="517">and customer service.</tspan>
        </text>
        <g id="Group" transform="translate(33.000000, 597.000000)">
            <g id="Group-6">
                <g id="Group-8-Copy">
                    <g id="Rectangle-2-Copy-21">
                        <use fill="black" fill-opacity="1" filter="url(#filter-8)" xlink:href="#path-7"></use>
                        <use fill="#FFFFFF" fill-rule="evenodd" xlink:href="#path-7"></use>
                    </g>
                    <g id="analytics" transform="translate(130.381679, 29.000000)" fill-rule="nonzero">
                        <path d="M38.5318276,0 C38.3850272,0 37.9615089,0 37.8886715,0 L13.6092886,0 C13.1652697,0 12.8053435,0.318142321 12.8053435,0.710456277 C12.8053435,1.10277023 13.1652697,1.42091255 13.6092886,1.42091255 L35.6572415,1.42091255 C35.3393616,1.87581771 35.155419,2.41107547 35.155419,2.98384532 L35.155419,12.2895437 C35.155419,12.6818577 35.5153452,13 35.9593641,13 C36.4033829,13 36.7633092,12.6818577 36.7633092,12.2895437 L36.7633092,10.0881949 L41.1044519,10.0881949 C41.5484707,10.0881949 41.9083969,9.77005263 41.9083969,9.37773867 L41.9083969,2.98384532 C41.9083166,1.33857067 40.393684,0 38.5318276,0 Z M40.3005068,8.6672824 L36.7632288,8.6672824 L36.7632288,2.98384532 C36.7632288,2.12199081 37.5566422,1.42091255 38.5318276,1.42091255 C39.507013,1.42091255 40.3004264,2.12206185 40.3004264,2.98384532 L40.3004264,8.6672824 L40.3005068,8.6672824 Z" id="Shape" fill="#14B88E"></path>
                        <path d="M41.0208535,28.5527418 L35.7160321,23.8964233 C36.3282144,22.8004919 36.6725567,21.5693333 36.6725567,20.2687434 C36.6725567,15.7093009 32.4465665,12 27.2521946,12 C22.0578226,12 17.8318324,15.7093009 17.8318324,20.2687434 C17.8318324,21.31114 18.0532997,22.3089124 18.4561965,23.2283428 L17.5056005,24.0627306 L13.5957717,20.6307986 C13.4434977,20.4971397 13.2368923,20.4220056 13.0215159,20.4220056 C12.8061395,20.4220056 12.5995341,20.4971397 12.44726,20.6307986 L11.5332098,21.4331082 L11.5332098,14.923957 C11.5332098,14.5303227 11.16962,14.2111097 10.7210816,14.2111097 C10.2725432,14.2111097 9.90895337,14.5303227 9.90895337,14.923957 L9.90895337,22.8588028 L2.56609632,29.3040828 C2.24896026,29.5824497 2.24896026,30.0338246 2.56609632,30.3122628 C2.72470496,30.4514105 2.93252856,30.5210557 3.14035216,30.5210557 C3.34817577,30.5210557 3.55608059,30.4514105 3.71460801,30.3122628 L9.90895337,24.8751626 L9.90895337,30.0122253 L6.33623903,30.0122253 C5.88770063,30.0122253 5.52411083,30.3314383 5.52411083,30.7250726 L5.52411083,33.0061127 C5.52411083,34.6569244 7.05416035,36 8.93496803,36 L33.2986514,36 C35.179459,36 36.7095898,34.6569244 36.7095898,33.0059701 L36.7095898,32.3939907 C37.2777547,32.8780853 38.0266993,33.1442625 38.8265643,33.1442625 C38.8315995,33.1442625 38.8367159,33.1441912 38.8418323,33.1441912 C39.6598079,33.1406982 40.4281623,32.8596938 41.0055855,32.3528594 C42.2033121,31.3013384 42.2102152,29.5967066 41.0208535,28.5527418 Z M27.2521133,13.4256233 C31.5509515,13.4256233 35.0483003,16.4954289 35.0483003,20.2687434 C35.0483003,24.042058 31.5509515,27.1118636 27.2521133,27.1118636 C24.3001898,27.1118636 21.7263119,25.6643559 20.4031927,23.53558 L25.0964815,19.4160355 L25.0964815,21.0332721 C25.0964815,21.4269064 25.4600713,21.7461194 25.9086097,21.7461194 C26.3571481,21.7461194 26.7207379,21.4269064 26.7207379,21.0332721 L26.7207379,17.6121754 C26.7207379,17.2185412 26.3571481,16.8993281 25.9086097,16.8993281 L22.0109628,16.8993281 C21.5624244,16.8993281 21.1988346,17.2185412 21.1988346,17.6121754 C21.1988346,18.0058097 21.5624244,18.3250227 22.0109628,18.3250227 L24.0425015,18.3250227 L19.7403336,22.10126 C19.5553308,21.5177945 19.4560075,20.9033201 19.4560075,20.2688147 C19.4559263,16.4953576 22.9532752,13.4256233 27.2521133,13.4256233 Z M8.93488682,34.5740916 C7.94969411,34.5740203 7.14828601,33.8705113 7.14828601,33.0058275 L7.14828601,31.4376348 L29.8876317,31.4376348 L29.8876317,32.2930515 C29.8876317,32.3163616 29.8890936,32.3393866 29.8916112,32.3621264 C29.8890936,32.3848663 29.8876317,32.4078912 29.8876317,32.4312013 L29.8876317,33.0058275 C29.8876317,33.5805963 30.0734467,34.1177267 30.3946434,34.5741628 L8.93488682,34.5741628 L8.93488682,34.5740916 Z M35.0853334,33.0056137 C35.0853334,33.8705113 34.2837629,34.5740203 33.2986514,34.5740203 C32.3133774,34.5740203 31.5118881,33.87044 31.5118881,33.005685 L31.5118881,32.4310588 C31.5118881,32.4077487 31.5104263,32.3847237 31.5079087,32.3619839 C31.5104263,32.339244 31.5118881,32.3162191 31.5118881,32.292909 L31.5118881,30.7247162 C31.5118881,30.3310819 31.1482983,30.0118689 30.6997599,30.0118689 L11.5332098,30.0118689 L11.5332098,23.4491829 L13.0214347,22.1428902 L16.9312634,25.5748222 C17.0835375,25.7084811 17.2901429,25.7836152 17.5055193,25.7836152 C17.7208957,25.7836152 17.9275011,25.7084811 18.0797751,25.5748222 L19.2152927,24.5781192 C20.8728464,26.9510452 23.855306,28.5374156 27.2521133,28.5374156 C28.7266945,28.5374156 30.1231489,28.2381623 31.3670857,27.7056654 L35.0853334,30.9693654 L35.0853334,33.0056137 Z M39.8570738,31.3444656 C39.5843612,31.5838398 39.2209338,31.7166432 38.8338735,31.7182115 C38.8315183,31.7182828 38.8290819,31.7182828 38.8266455,31.7182828 C38.4452701,31.7182828 38.0897204,31.5903979 37.8248854,31.3578672 L32.799761,26.9470533 C33.5831399,26.4443534 34.2749919,25.8382193 34.8493289,25.1517474 L39.8723418,29.5607079 C40.428406,30.0488657 40.4215841,30.849108 39.8570738,31.3444656 Z" id="Shape" fill="#14B88E"></path>
                        <path d="M31.8967761,20 C31.5109152,20 31.1981323,20.2687488 31.1981323,20.6001536 C31.1981323,22.3643653 29.5272559,23.7996927 27.4734529,23.7996927 C27.087592,23.7996927 26.7748092,24.0683815 26.7748092,24.3998464 C26.7748092,24.7312512 27.087592,25 27.4734529,25 C30.2977203,25 32.5954198,23.0262147 32.5954198,20.6001536 C32.5954198,20.2687488 32.282637,20 31.8967761,20 Z" id="Shape" fill="#14B88E"></path>
                        <path d="M21.2870935,11.5507551 L20.5285084,11.5507551 L20.5285084,6.69568683 C20.5285084,6.29553031 20.1564052,5.97102815 19.6973644,5.97102815 L15.880585,5.97102815 C15.4215442,5.97102815 15.049441,6.29553031 15.049441,6.69568683 L15.049441,11.5507551 L13.7132939,11.5507551 L13.7132939,3.72465869 C13.7132939,3.32450216 13.3411908,3 12.88215,3 L9.22519955,3 C8.76615872,3 8.39405556,3.32450216 8.39405556,3.72465869 L8.39405556,11.5506826 L7.06447453,11.5506826 L7.06447453,8.36225688 C7.06447453,7.96210035 6.69237137,7.63759819 6.23333054,7.63759819 L2.57646324,7.63759819 C2.11742242,7.63759819 1.74531925,7.96210035 1.74531925,8.36225688 L1.74531925,11.5506826 L0.831143985,11.5506826 C0.372103162,11.5506826 0,11.8751848 0,12.2753413 C0,12.6754978 0.372103162,13 0.831143985,13 L21.2871766,13 C21.7462174,13 22.1183206,12.6754978 22.1183206,12.2753413 C22.1182375,11.8751848 21.7461343,11.5507551 21.2870935,11.5507551 Z M5.40226967,11.5507551 L3.40760722,11.5507551 L3.40760722,9.08698803 L5.40226967,9.08698803 L5.40226967,11.5507551 Z M12.0511722,11.5507551 L10.0565098,11.5507551 L10.0565098,4.44931737 L12.0511722,4.44931737 L12.0511722,11.5507551 Z M18.8663035,11.5507551 L16.7118121,11.5507551 L16.7118121,7.42034552 L18.8663035,7.42034552 L18.8663035,11.5507551 Z" id="Shape" fill="#14B88E"></path>
                        <path d="M27.1027997,3 L20.6262079,3 C20.1644125,3 19.7900763,3.2239 19.7900763,3.5 C19.7900763,3.7761 20.1644125,4 20.6262079,4 L27.1027997,4 C27.5645952,4 27.9389313,3.7761 27.9389313,3.5 C27.9388477,3.2239 27.5645952,3 27.1027997,3 Z" id="Shape" fill="#14B88E"></path>
                        <path d="M31.2607538,3.1465 C31.1524905,3.0535 31.0023187,3 30.8492366,3 C30.6961546,3 30.5459828,3.05345 30.4377195,3.1465 C30.3294561,3.23955 30.2671756,3.3685 30.2671756,3.5 C30.2671756,3.6315 30.3294561,3.7605 30.4377195,3.85345 C30.5459828,3.94645 30.6961546,4 30.8492366,4 C31.0023187,4 31.1524905,3.9465 31.2607538,3.85345 C31.3690172,3.7605 31.4312977,3.6315 31.4312977,3.5 C31.4312977,3.36855 31.3690172,3.23955 31.2607538,3.1465 Z" id="Shape" fill="#14B88E"></path>
                        <path d="M24.9710068,7 L23.922123,7 C23.5688276,7 23.2824427,7.2239 23.2824427,7.5 C23.2824427,7.7761 23.5688276,8 23.922123,8 L24.9710068,8 C25.3243022,8 25.610687,7.7761 25.610687,7.5 C25.610687,7.2239 25.3243022,7 24.9710068,7 Z" id="Shape" fill="#14B88E"></path>
                        <path d="M30.7609521,7 L27.4451547,7 C27.0749229,7 26.7748092,7.2239 26.7748092,7.5 C26.7748092,7.7761 27.0749229,8 27.4451547,8 L30.7609521,8 C31.131184,8 31.4312977,7.7761 31.4312977,7.5 C31.4312977,7.2239 31.131184,7 30.7609521,7 Z" id="Shape" fill="#14B88E"></path>
                        <path d="M0.993578244,31.14655 C0.885314885,31.05355 0.73514313,31 0.582061069,31 C0.428396947,31 0.278807252,31.0535 0.170543893,31.14655 C0.0616984733,31.2395 0,31.3685 0,31.5 C0,31.6315 0.0616984733,31.7605 0.170543893,31.8535 C0.278807252,31.9465 0.428396947,32 0.582061069,32 C0.73514313,32 0.884732824,31.94655 0.993578244,31.8535 C1.1018416,31.7605 1.16412214,31.6315 1.16412214,31.5 C1.16412214,31.36845 1.1018416,31.23945 0.993578244,31.14655 Z" id="Shape" fill="#36C5A0"></path>
                    </g>
                    <text id="Stock-trader" font-family="AvenirNext-DemiBold, Avenir Next" font-size="18" font-weight="500" letter-spacing="0.1157143" fill="#0D0D0D">
                        <tspan x="28" y="109">Stock trader</tspan>
                    </text>
                    <text id="Buy-and-sell-stocks." font-family="ProximaNova-Regular, Proxima Nova" font-size="12" font-weight="normal" letter-spacing="0.1157143" fill="#0D0D0D">
                        <tspan x="29.1030534" y="167">Buy and sell stocks. Make profits by taking </tspan>
                        <tspan x="29.1030534" y="182">advantage of price fluctuations on individual </tspan>
                        <tspan x="29.1030534" y="197">stocks in the market.</tspan>
                        <tspan x="29.1030534" y="212"></tspan>
                        <tspan x="29.1030534" y="227" font-family="ProximaNova-Medium, Proxima Nova" font-weight="400">Skills:</tspan>
                        <tspan x="60.0930535" y="227"> data analysis, research, and record </tspan>
                        <tspan x="29.1030534" y="242">keeping.</tspan>
                    </text>
                </g>
            </g>
            <text id="SHORT-TERM-GOAL-Copy" font-family="ProximaNova-Medium, Proxima Nova" font-size="12" font-weight="400" letter-spacing="0.549325" fill="#0E9270">
                <tspan x="28" y="132">SHORT TERM GOAL</tspan>
            </text>
        </g>
        <g id="Group" transform="translate(359.000000, 597.000000)">
            <g id="Group-7">
                <g id="Group-6-Copy">
                    <g id="Rectangle-2-Copy-18">
                        <use fill="black" fill-opacity="1" filter="url(#filter-10)" xlink:href="#path-9"></use>
                        <use fill="#FFFFFF" fill-rule="evenodd" xlink:href="#path-9"></use>
                    </g>
                    <text id="Pick-up-passengers," font-family="ProximaNova-Regular, Proxima Nova" font-size="12" font-weight="normal" letter-spacing="0.1157143" fill="#0D0D0D">
                        <tspan x="29" y="161">Pick up passengers, transport clients </tspan>
                        <tspan x="29" y="176">between places, and keep your vehicle in </tspan>
                        <tspan x="29" y="191">good condition. </tspan>
                        <tspan x="29" y="206"></tspan>
                        <tspan x="29" y="221" font-family="ProximaNova-Medium, Proxima Nova" font-weight="400">Skills:</tspan>
                        <tspan x="59.9900001" y="221"> safe driving, communication, time </tspan>
                        <tspan x="29" y="236">management, and customer service.</tspan>
                    </text>
                    <g id="taxi" transform="translate(129.217557, 29.000000)" fill="#14B88E" fill-rule="nonzero">
                        <path d="M32.9145083,11 L31.1122092,11 C30.6455767,11 30.2671756,11.2238389 30.2671756,11.5 C30.2671756,11.7761029 30.6454784,12 31.1122092,12 L32.9145083,12 C33.3811408,12 33.759542,11.7761611 33.759542,11.5 C33.7594436,11.2238389 33.3811408,11 32.9145083,11 Z" id="Shape"></path>
                        <path d="M33.4191108,16.5073279 C33.1130704,16.1849355 32.6522935,16 32.1550229,16 L14.4098274,16 C13.9125569,16 13.4518703,16.1849355 13.1457396,16.5073279 C12.8396992,16.8297947 12.7332896,17.2422402 12.8539714,17.6390824 L13.2678667,19.000873 C13.4467215,19.5891149 14.0865338,20 14.8237227,20 L31.741218,20 C32.4784068,20 33.1181289,19.5891149 33.297074,19.0007987 L33.7109693,17.6390824 C33.8315608,17.2421659 33.7251512,16.8297204 33.4191108,16.5073279 Z M32.2052468,17.329544 L31.7913515,18.691186 C31.7855704,18.7102814 31.764975,18.7234327 31.741218,18.7234327 L14.8237227,18.7234327 C14.7999657,18.7234327 14.7791897,18.7101328 14.7734988,18.6912603 L14.3596036,17.329544 C14.3577066,17.3235256 14.3534611,17.3094084 14.368998,17.2930621 C14.3845348,17.2767159 14.4022397,17.2767159 14.4097371,17.2767159 L32.1550229,17.2767159 C32.1626107,17.2767159 32.1802252,17.2767159 32.1957621,17.2930621 C32.211299,17.3094084 32.2071437,17.3234513 32.2052468,17.329544 Z" id="Shape"></path>
                        <path d="M43.0139424,12.6295782 C44.3300325,12.6295782 45.4007634,11.6985118 45.4007634,10.5540905 C45.4007634,9.40966921 44.3300325,8.47860282 43.0139424,8.47860282 L42.2014283,8.47860282 C41.0147127,8.47860282 40.0277781,9.23579304 39.845111,10.2236101 L37.8129834,5.36409901 C37.3549855,4.2686406 36.1466335,3.5327319 34.8062469,3.5327319 L29.0125952,3.5327319 L28.5837708,1.66851723 C28.3615554,0.701673221 27.3771037,0 26.243326,0 L19.15726,0 C18.0234823,0 17.039208,0.701673221 16.8168152,1.66851723 L16.3880795,3.5327319 L10.5944277,3.5327319 C9.25404114,3.5327319 8.04568918,4.26871771 7.58769125,5.3640219 L5.5556524,10.223533 C5.37307394,9.23579304 4.38613937,8.47860282 3.19942372,8.47860282 L2.38690966,8.47860282 C1.07073089,8.47860282 0,9.40966921 0,10.5540905 C0,11.6985118 1.07073089,12.6295782 2.38682099,12.6295782 L3.19933504,12.6295782 C3.57451205,12.6295782 3.92956021,12.553705 4.24576943,12.4189992 L2.50422453,14.3120518 C1.93724703,14.9282905 1.6250281,15.702213 1.6250281,16.4913255 L1.6250281,29.6310433 C1.6250281,30.3859203 2.33122279,31 3.19933504,31 L5.63696587,31 C6.50507812,31 7.21127281,30.3859203 7.21127281,29.6310433 L7.21127281,26.76066 L38.1894019,26.76066 L38.1894019,29.6310433 C38.1894019,30.3859203 38.8955966,31 39.7637088,31 L42.2013396,31 C43.0694519,31 43.7756466,30.3859203 43.7756466,29.6310433 L43.7756466,16.4913255 C43.7756466,15.702213 43.4634277,14.9282134 42.8964502,14.3120518 L41.1549053,12.4189992 C41.4711145,12.553705 41.8261626,12.6295782 42.2013396,12.6295782 L43.0139424,12.6295782 Z M3.19942372,11.3048038 L2.38690966,11.3048038 C1.91082236,11.3048038 1.52358577,10.9680777 1.52358577,10.5540905 C1.52358577,10.1401033 1.91082236,9.80337728 2.38690966,9.80337728 L3.19942372,9.80337728 C3.67551102,9.80337728 4.06274761,10.1401033 4.06274761,10.5540905 C4.06274761,10.9680006 3.67542234,11.3048038 3.19942372,11.3048038 Z M18.310784,1.92821343 C18.3912108,1.57853343 18.7472344,1.32469736 19.15726,1.32469736 L26.243326,1.32469736 C26.6534403,1.32469736 27.0094639,1.57853343 27.089802,1.92821343 L27.4588605,3.5327319 L17.9417255,3.5327319 L18.310784,1.92821343 Z M5.68777571,29.6310433 C5.68777571,29.6554091 5.66498666,29.6752255 5.63696587,29.6752255 L3.19933504,29.6752255 C3.17131426,29.6752255 3.1485252,29.6554091 3.1485252,29.6310433 L3.1485252,26.3472126 C3.63622872,26.6090678 4.21030009,26.76066 4.82436315,26.76066 L5.68768704,26.76066 L5.68768704,29.6310433 L5.68777571,29.6310433 Z M31.6892008,25.4358856 L13.7116512,25.4358856 L13.7116512,23.9786414 C13.7116512,23.9542756 13.7344403,23.9344591 13.7624611,23.9344591 L31.6383909,23.9344591 C31.6664117,23.9344591 31.6892008,23.9542756 31.6892008,23.9786414 L31.6892008,25.4358856 Z M42.2521495,29.6310433 C42.2521495,29.6554091 42.2293604,29.6752255 42.2013396,29.6752255 L39.7637088,29.6752255 C39.735688,29.6752255 39.712899,29.6554091 39.712899,29.6310433 L39.712899,26.76066 L40.5762229,26.76066 C41.1902859,26.76066 41.7643573,26.6090678 42.2520608,26.3472126 L42.2520608,29.6310433 L42.2521495,29.6310433 Z M41.7069856,15.1396407 C42.0584868,15.5218598 42.2522382,16.0019277 42.2522382,16.4914026 L42.2522382,23.9786414 C42.2522382,24.7821729 41.5004654,25.4358856 40.5764002,25.4358856 L33.2126092,25.4358856 L33.2126092,23.9786414 C33.2126092,23.2237644 32.5064145,22.6096846 31.6383023,22.6096846 L13.7624611,22.6096846 C12.8943488,22.6096846 12.1881541,23.2237644 12.1881541,23.9786414 L12.1881541,25.4358856 L4.82445182,25.4358856 C3.90038667,25.4358856 3.14861388,24.7821729 3.14861388,23.9786414 L3.14861388,16.4914026 C3.14861388,16.0019277 3.34227651,15.5218598 3.69395508,15.1396407 L6.0030982,12.6295782 L27.5756433,12.6295782 C27.9963098,12.6295782 28.3374362,12.3330249 28.3374362,11.9671524 C28.3374362,11.6013571 27.9963985,11.3047267 27.5756433,11.3047267 L6.72463338,11.3047267 L9.01967744,5.81663968 C9.25953889,5.24288688 9.89248938,4.85742925 10.5946051,4.85742925 L34.8063356,4.85742925 C35.5084513,4.85742925 36.1413131,5.24296399 36.3812633,5.81663968 L38.6763073,11.3047267 L35.7012272,11.3047267 C35.2805608,11.3047267 34.9394343,11.60128 34.9394343,11.9671524 C34.9394343,12.3329478 35.2804721,12.6295782 35.7012272,12.6295782 L39.3978425,12.6295782 L41.7069856,15.1396407 Z M41.3380158,10.5540905 C41.3380158,10.1401033 41.7252523,9.80337728 42.2013396,9.80337728 L43.0138537,9.80337728 C43.489941,9.80337728 43.8771776,10.1401033 43.8771776,10.5540905 C43.8771776,10.9680777 43.489941,11.3048038 43.0138537,11.3048038 L42.2013396,11.3048038 C41.725341,11.3048038 41.3380158,10.9680006 41.3380158,10.5540905 Z" id="Shape"></path>
                        <path d="M8.73091603,21 C7.7680269,21 6.98473282,21.6728625 6.98473282,22.5 C6.98473282,23.3271375 7.7680269,24 8.73091603,24 C9.69380516,24 10.4770992,23.3271375 10.4770992,22.5 C10.4770992,21.6728625 9.69380516,21 8.73091603,21 Z" id="Shape"></path>
                        <path d="M37.8339695,21 C36.8710803,21 36.0877863,21.6728625 36.0877863,22.5 C36.0877863,23.3271375 36.8710803,24 37.8339695,24 C38.7968586,24 39.5801527,23.3271375 39.5801527,22.5 C39.5801527,21.6728625 38.7967602,21 37.8339695,21 Z" id="Shape"></path>
                        <path d="M7.56679389,16 C5.96200982,16 4.65648855,17.1214642 4.65648855,18.5 C4.65648855,19.8785358 5.96200982,21 7.56679389,21 C9.17157797,21 10.4770992,19.8785358 10.4770992,18.5 C10.4770992,17.1214642 9.17157797,16 7.56679389,16 Z M7.56679389,19.6363059 C6.83734659,19.6363059 6.24390263,19.1266072 6.24390263,18.4999206 C6.24390263,17.8732341 6.83725419,17.3635354 7.56679389,17.3635354 C8.29633359,17.3635354 8.88968516,17.8732341 8.88968516,18.4999206 C8.88968516,19.1266072 8.2962412,19.6363059 7.56679389,19.6363059 Z" id="Shape"></path>
                        <path d="M37.8339695,16 C36.5501422,16 35.5057252,16.8971713 35.5057252,18 C35.5057252,19.1028287 36.5501422,20 37.8339695,20 C39.1177967,20 40.1622137,19.1028287 40.1622137,18 C40.1622137,16.8971713 39.1177967,16 37.8339695,16 Z M37.8339695,18.9090447 C37.2504116,18.9090447 36.7756565,18.5012858 36.7756565,17.9999365 C36.7756565,17.4985873 37.2503377,17.0908283 37.8339695,17.0908283 C38.4175273,17.0908283 38.8922825,17.4985873 38.8922825,17.9999365 C38.8922825,18.5012858 38.4176012,18.9090447 37.8339695,18.9090447 Z" id="Shape"></path>
                    </g>
                </g>
            </g>
            <text id="Ridesharing" font-family="AvenirNext-DemiBold, Avenir Next" font-size="18" font-weight="500" letter-spacing="0.1157143" fill="#0D0D0D">
                <tspan x="29" y="100">Ridesharing</tspan>
            </text>
            <text id="SHORT-TERM-GOAL-Copy" font-family="ProximaNova-Medium, Proxima Nova" font-size="12" font-weight="400" letter-spacing="0.549325" fill="#0E9270">
                <tspan x="29" y="123">SHORT TERM GOAL</tspan>
            </text>
        </g>
        <g id="Group-2" transform="translate(684.000000, 604.000000)">
            <g id="Group-8">
                <g id="Group-7-Copy">
                    <g id="Rectangle-2-Copy-17">
                        <use fill="black" fill-opacity="1" filter="url(#filter-12)" xlink:href="#path-11"></use>
                        <use fill="#FFFFFF" fill-rule="evenodd" xlink:href="#path-11"></use>
                    </g>
                    <text id="Generate-and-researc" font-family="ProximaNova-Regular, Proxima Nova" font-size="12" font-weight="normal" letter-spacing="0.1157143" fill="#0D0D0D">
                        <tspan x="29" y="157">Generate and research ideas for a blog post </tspan>
                        <tspan x="29" y="172">and promote your content on the internet to </tspan>
                        <tspan x="29" y="187">gain a following.</tspan>
                        <tspan x="29" y="202"></tspan>
                        <tspan x="29" y="217" font-family="ProximaNova-Medium, Proxima Nova" font-weight="400">Skills: </tspan>
                        <tspan x="63.2017144" y="217">good content ideas, communication, </tspan>
                        <tspan x="29" y="232">marketing, and collaboration.</tspan>
                    </text>
                    <g id="digital-marketing-(1)" transform="translate(137.366412, 22.000000)" fill="#14B88E" fill-rule="nonzero">
                        <path d="M15.5385114,2 L10.0721756,2 C9.65293828,2 9.3129771,2.22384477 9.3129771,2.5 C9.3129771,2.77615523 9.65293828,3 10.0721756,3 L15.5385114,3 C15.9577487,3 16.2977099,2.77615523 16.2977099,2.5 C16.2977099,2.22384477 15.9577487,2 15.5385114,2 Z" id="Shape"></path>
                        <path d="M12.6347655,31.146522 C12.5265387,31.053458 12.3763951,31 12.2232824,31 C12.0701698,31 11.9200262,31.053508 11.8117412,31.146522 C11.7034561,31.2395359 11.6412214,31.3685053 11.6412214,31.500025 C11.6412214,31.6315447 11.7034561,31.7605141 11.8117412,31.853528 C11.9200262,31.946542 12.0701698,32 12.2232824,32 C12.3763951,32 12.5265387,31.946492 12.6347655,31.853528 C12.7430505,31.7605141 12.8053435,31.6315447 12.8053435,31.500025 C12.8053435,31.3680052 12.7431087,31.2394859 12.6347655,31.146522 Z" id="Shape"></path>
                        <path d="M35.9801105,21.7297444 L33.0233839,17.3735808 C34.2357343,16.4180868 34.5591777,14.841368 33.6986445,13.5735523 C33.2148457,12.8608461 32.4338873,12.3509986 31.4992451,12.1380209 C30.8294503,11.9852786 30.1381944,11.9991581 29.4917093,12.1703607 L26.5355455,7.81501754 C26.4020366,7.61838065 26.162428,7.4908675 25.8960534,7.4749369 C25.629518,7.45873282 25.3714223,7.55664104 25.2068873,7.73536456 L16.0028955,17.7332157 L12.1402218,19.6301875 C9.93608008,20.7125792 9.17827071,23.1185779 10.4508246,24.9934656 C11.0673284,25.9017148 12.0625761,26.5513823 13.2535457,26.8227494 C13.6511786,26.9134102 14.0546792,26.958262 14.4556076,26.958262 C15.2553746,26.958262 16.0446923,26.7798804 16.7559625,26.4305012 L17.2159692,26.2046012 L18.8204063,28.5684146 L1.60725033,28.5684146 L1.60725033,5.74219391 L24.4305909,5.74219391 L24.4305909,5.94724052 C24.4305909,6.32478883 24.7904459,6.63082038 25.2342161,6.63082038 C25.6779863,6.63082038 26.0378412,6.32478883 26.0378412,5.94724052 L26.0378412,2.68386116 C26.0378412,1.20402494 24.6224546,0 22.88266,0 L3.15518127,0 C1.41538663,4.26981329e-17 0,1.20395657 0,2.68386116 L0,32.3161388 C0,33.7959751 1.41538663,35 3.15518127,35 L22.8828207,35 C24.622535,35 26.038002,33.7960434 26.038002,32.3161388 L26.038002,23.8798964 L35.3972853,22.748277 C35.6615701,22.7163475 35.8900061,22.5748865 36.0067962,22.3706604 C36.1235059,22.1665709 36.1136193,21.9263813 35.9801105,21.7297444 Z M1.60725033,2.68386116 C1.60725033,1.9578225 2.30164099,1.3672281 3.15510089,1.3672281 L22.8827403,1.3672281 C23.7362002,1.3672281 24.4305909,1.9578225 24.4305909,2.68386116 L24.4305909,4.37496581 L1.60725033,4.37496581 L1.60725033,2.68386116 Z M31.0832859,13.4586195 C31.6031746,13.5771076 32.0376209,13.8607133 32.3067284,14.2572005 C32.7193921,14.8652297 32.6425502,15.6011139 32.1813378,16.1331138 L30.3335947,13.4107594 C30.5815627,13.3867609 30.8349964,13.4020078 31.0832859,13.4586195 Z M15.9523373,25.2465091 C15.2564195,25.5882991 14.4454799,25.6790283 13.6695049,25.5021508 C12.8933693,25.3252049 12.2446336,24.9018476 11.8428211,24.3098174 C11.0134747,23.0878107 11.5074012,21.5196383 12.9439274,20.8141111 L16.2455585,19.1926772 L19.2536469,23.6251436 L15.9523373,25.2465091 Z M18.6079657,25.5210214 L20.0572721,24.8092724 L21.9558948,27.6064254 L20.5065884,28.3181744 L18.6079657,25.5210214 Z M24.4305909,32.3160705 C24.4305909,33.0421091 23.7362002,33.6327035 22.8827403,33.6327035 L3.15518127,33.6327035 C2.30172137,33.6327035 1.60733071,33.0421091 1.60733071,32.3160705 L1.60733071,29.9355744 L24.4306713,29.9355744 L24.4306713,32.3160705 L24.4305909,32.3160705 Z M24.4305909,28.5684146 L23.2114888,28.5684146 L23.4552771,28.4486275 C23.8396475,28.2599217 23.971388,27.841829 23.7493823,27.5148073 L21.6429006,24.4112126 L24.4305909,24.0741403 L24.4305909,28.5684146 Z M20.7772231,23.1349871 L17.5069397,18.3169046 L23.3519102,11.9677755 L30.1615042,22.0003594 L20.7772231,23.1349871 Z M31.8766226,21.7929882 L24.4202221,10.8073033 L25.7386721,9.37519046 L33.9933928,21.5370047 L31.8766226,21.7929882 Z" id="Shape"></path>
                        <path d="M40.631123,10.3105779 C40.3982904,10.0136372 39.8827867,9.91177922 39.4794407,10.0833229 L35.345376,11.8412418 C34.9421143,12.0126612 34.803899,12.3924547 35.0368159,12.6894575 C35.1930777,12.8886395 35.4763391,13 35.7677804,13 C35.9108025,13 36.0557642,12.9731691 36.1884982,12.9167125 L40.3225629,11.1587936 C40.7258246,10.9873742 40.86404,10.6075807 40.631123,10.3105779 Z" id="Shape"></path>
                        <path d="M33.1237981,7.02207034 C32.6662718,6.93016091 32.1963103,7.13371137 32.0736744,7.47647568 L31.4607521,9.19087569 C31.3381162,9.53376855 31.6096304,9.88610944 32.067071,9.97795459 C32.1414243,9.99286577 32.216035,10 32.2895308,10 C32.6680727,10 33.0145406,9.81065373 33.1171946,9.52354925 L33.7301169,7.80914924 C33.852667,7.46625638 33.5812386,7.11391549 33.1237981,7.02207034 Z" id="Shape"></path>
                        <path d="M39.0358889,15.5644805 L37.0120188,15.0250745 C36.6203281,14.9206545 36.2179916,15.151912 36.1130023,15.5413329 C36.0080131,15.9308268 36.2404579,16.3311278 36.6320752,16.4355478 L38.6559452,16.9749538 C38.7195995,16.9918947 38.7834741,17 38.8463943,17 C39.170466,17 39.4670791,16.7848802 39.5549617,16.4586955 C39.6598775,16.0691285 39.4275062,15.6687545 39.0358889,15.5644805 Z" id="Shape"></path>
                        <path d="M15.487121,8 L4.30287429,8 C3.85530338,8 3.49236641,8.22384477 3.49236641,8.5 C3.49236641,8.77615523 3.85530338,9 4.30287429,9 L15.487202,9 C15.934773,9 16.2977099,8.77615523 16.2977099,8.5 C16.2977099,8.22384477 15.9346919,8 15.487121,8 Z" id="Shape"></path>
                        <path d="M14.963068,11.146522 C14.854783,11.053008 14.7046394,11 14.5515267,11 C14.3978319,11 14.2482705,11.053008 14.1399854,11.146522 C14.0311182,11.2395359 13.9694656,11.3685053 13.9694656,11.500025 C13.9694656,11.6315447 14.0311765,11.7605141 14.1399854,11.853528 C14.2482705,11.946492 14.3978319,12 14.5515267,12 C14.7046394,12 14.854783,11.946492 14.963068,11.853528 C15.0712948,11.7605141 15.1335878,11.6315447 15.1335878,11.500025 C15.1335878,11.3685053 15.071353,11.2395359 14.963068,11.146522 Z" id="Shape"></path>
                        <path d="M12.0070176,11 L4.29069232,11 C3.84984842,11 3.49236641,11.2238448 3.49236641,11.5 C3.49236641,11.7761552 3.84984842,12 4.29069232,12 L12.0070176,12 C12.4478615,12 12.8053435,11.7761552 12.8053435,11.5 C12.8053435,11.2238448 12.4478615,11 12.0070176,11 Z" id="Shape"></path>
                        <path d="M13.1191097,14 L6.67105173,14 C6.20142931,14 5.82061069,14.2238448 5.82061069,14.5 C5.82061069,14.7761552 6.20134424,15 6.67105173,15 L13.1190246,15 C13.588647,15 13.9694656,14.7761552 13.9694656,14.5 C13.9694656,14.2238448 13.5887321,14 13.1191097,14 Z" id="Shape"></path>
                        <path d="M4.08762769,14 L4.06122727,14 C3.74709636,14 3.49236641,14.2238448 3.49236641,14.5 C3.49236641,14.7761552 3.74709636,15 4.06122727,15 L4.08762769,15 C4.4017586,15 4.65648855,14.7761552 4.65648855,14.5 C4.65648855,14.2238448 4.4017586,14 4.08762769,14 Z" id="Shape"></path>
                    </g>
                </g>
            </g>
            <text id="Online-blogger" font-family="AvenirNext-DemiBold, Avenir Next" font-size="18" font-weight="500" letter-spacing="0.1157143" fill="#0D0D0D">
                <tspan x="29" y="99">Online blogger</tspan>
            </text>
            <text id="MEDIUM-TERM-GOAL" font-family="ProximaNova-Medium, Proxima Nova" font-size="12" font-weight="400" letter-spacing="0.549325" fill="#0E9270">
                <tspan x="29" y="122">MEDIUM TERM GOAL</tspan>
            </text>
        </g>
        <text id="Choose-one-of-these" font-family="AvenirNext-Medium, Avenir Next" font-size="18" font-weight="400" line-spacing="21" letter-spacing="0.1157143" fill="#0D0D0D">
            <tspan x="38" y="229">Choose one of these professions to view open jobs: </tspan>
        </text>
        <text id="SUGGESTIONS-BASED-ON-Copy" font-family="ProximaNova-Regular, Proxima Nova" font-size="16" font-weight="normal" line-spacing="21" letter-spacing="0.1028572" fill="#6C6B6B">
            <tspan x="38" y="178">SUGGESTIONS BASED ON SKILLS</tspan>
        </text>
        <rect id="Rectangle-43" fill="#A3A3A3" opacity="0.53203125" x="1018" y="235" width="5" height="143" rx="2.5"></rect>
    </g>
</svg>